<?xml version="1.0" encoding="UTF-8" standalone="no"?>
<!-- Created with Inkscape (http://www.inkscape.org/) -->

<svg
   width="546mm"
   height="546mm"
   viewBox="0 0 546 546"
   version="1.1"
   id="svg1"
   inkscape:version="1.3.2 (091e20e, 2023-11-25, custom)"
   sodipodi:docname="hex_gosper_d4.svg"
   xmlns:inkscape="http://www.inkscape.org/namespaces/inkscape"
   xmlns:sodipodi="http://sodipodi.sourceforge.net/DTD/sodipodi-0.dtd"
   xmlns="http://www.w3.org/2000/svg"
   xmlns:svg="http://www.w3.org/2000/svg">
  <sodipodi:namedview
     id="namedview1"
     pagecolor="#ffffff"
     bordercolor="#000000"
     borderopacity="0.25"
     inkscape:showpageshadow="2"
     inkscape:pageopacity="0.0"
     inkscape:pagecheckerboard="0"
     inkscape:deskcolor="#d1d1d1"
     inkscape:document-units="mm"
     inkscape:zoom="0.28991378"
     inkscape:cx="177.63902"
     inkscape:cy="1190.009"
     inkscape:window-width="1920"
     inkscape:window-height="992"
     inkscape:window-x="-8"
     inkscape:window-y="-8"
     inkscape:window-maximized="1"
     inkscape:current-layer="layer1" />
  <defs
     id="defs1" />
  <g
     inkscape:label="Layer 1"
     inkscape:groupmode="layer"
     id="layer1">
    <!-- <circle
       style="display:inline;fill:none;stroke:#000000;stroke-width:0.284607;stroke-opacity:1"
       id="path1"
       cx="273"
       cy="273"
       r="273" /> -->
    <path
       d="m 353.23479,518.96362 4.46093,-7.72653 v 0 h -8.92183 v 0 l -4.46089,-7.72653 v 0 h 8.92179 v 0 h 8.92182 v 0 l 4.46094,7.72653 v 0 h 8.92178 v 0 l 4.46092,-7.72653 v 0 l 4.46089,-7.7265 v 0 h -8.92181 v 0 l -4.4609,7.7265 v 0 l -4.46088,-7.7265 v 0 l 4.46088,-7.72653 v 0 l -4.46088,-7.72652 v 0 h -8.92183 v 0 h -8.92183 v 0 l 4.4609,7.72652 v 0 h 8.92182 v 0 l -4.46089,7.72653 v 0 h -8.92183 v 0 l -4.46089,-7.72653 v 0 h -8.92181 v 0 l 4.46088,7.72653 v 0 l -4.46088,7.7265 v 0 l -4.4609,-7.7265 v 0 l -4.46093,-7.72653 v 0 l 4.46093,-7.72652 v 0 h 8.92178 v 0 l 4.46093,-7.72651 v 0 h -8.92181 v 0 l -4.4609,-7.72652 v 0 h 8.92178 v 0 h 8.92182 v 0 l 4.4609,7.72652 v 0 h 8.92182 v 0 l 4.46094,-7.72652 v 0 h -8.92183 v 0 l -4.46093,-7.72651 v 0 h 8.92182 v 0 h 8.92182 v 0 l 4.4609,7.72651 v 0 l -4.4609,7.72652 v 0 l 4.4609,7.72651 v 0 l 4.46092,7.72652 v 0 l 4.46089,-7.72652 v 0 l -4.46089,-7.72651 v 0 h 8.92179 v 0 l 4.46093,7.72651 v 0 h 8.92177 v 0 l 4.46095,-7.72651 v 0 h -8.92183 v 0 l -4.46089,-7.72652 v 0 h 8.92177 v 0 h 8.92183 v 0 l 4.46093,7.72652 v 0 h 8.92178 v 0 l 4.46094,-7.72652 v 0 l 4.46088,-7.72651 v 0 h -8.92182 v 0 l -4.46088,7.72651 v 0 l -4.4609,-7.72651 v 0 l 4.4609,-7.72653 v 0 h 8.92182 v 0 l 4.46088,-7.72647 v 0 l 4.4609,-7.72653 v 0 h -8.92178 v 0 l -4.46094,7.72653 v 0 l -4.46088,-7.72653 v 0 l 4.46088,-7.7265 v 0 l -4.46088,-7.72653 v 0 h -8.92183 v 0 h -8.92183 v 0 l 4.46095,7.72653 v 0 h 8.92181 v 0 l -4.46093,7.7265 v 0 h -8.92183 v 0 l -4.46088,7.72653 v 0 l 4.46088,7.72647 v 0 l 4.46095,-7.72647 v 0 h 8.92181 v 0 l -4.46093,7.72647 v 0 l -4.46088,7.72653 v 0 h -8.92183 v 0 l -4.46089,-7.72653 v 0 h -8.92183 v 0 l 4.4609,7.72653 v 0 l -4.4609,7.72651 v 0 l -4.46089,-7.72651 v 0 l -4.46092,-7.72653 v 0 l 4.46092,-7.72647 v 0 h 8.92179 v 0 l 4.46093,-7.72653 v 0 l 4.46089,-7.7265 v 0 h -8.92182 v 0 l -4.4609,7.7265 v 0 l -4.46089,-7.7265 v 0 l 4.46089,-7.72653 v 0 l -4.46089,-7.72651 v 0 h -8.92182 v 0 l 4.4609,7.72651 v 0 l -4.4609,7.72653 v 0 l -4.46088,-7.72653 v 0 l -4.46094,-7.72651 v 0 l 4.46094,-7.72652 v 0 l -4.46094,-7.72652 v 0 h -8.92182 v 0 H 344.313 v 0 l 4.46089,7.72652 v 0 h 8.92183 v 0 l -4.46093,7.72652 v 0 H 344.313 v 0 l -4.46093,-7.72652 v 0 h -8.92178 v 0 h -8.92183 v 0 l 4.4609,7.72652 v 0 h 8.92183 v 0 l -4.4609,7.72651 v 0 h -8.92183 v 0 l -4.46088,7.72653 v 0 l 4.46088,7.7265 v 0 l 4.4609,7.72653 v 0 l 4.46093,-7.72653 v 0 l -4.46093,-7.7265 v 0 h 8.92183 v 0 l 4.46088,7.7265 v 0 h 8.92182 v 0 l 4.4609,-7.7265 v 0 H 344.313 v 0 l -4.46093,-7.72653 v 0 h 8.92182 v 0 h 8.92183 v 0 l 4.46089,7.72653 v 0 l -4.46089,7.7265 v 0 l 4.46089,7.72653 v 0 l 4.46094,-7.72653 v 0 h 8.92178 v 0 l -4.4609,7.72653 v 0 l -4.46088,7.72647 v 0 h -8.92183 v 0 l -4.46093,-7.72647 v 0 H 344.313 v 0 h -8.92181 v 0 l 4.46088,7.72647 v 0 h 8.92182 v 0 l -4.46089,7.72653 v 0 h -8.92181 v 0 l -4.4609,-7.72653 v 0 h -8.92183 v 0 l 4.4609,7.72653 v 0 l -4.4609,7.72651 v 0 l -4.46088,-7.72651 v 0 l -4.46093,-7.72653 v 0 l 4.46093,-7.72647 v 0 l -4.46093,-7.72653 v 0 h -8.92179 v 0 h -8.92182 v 0 l 4.46088,7.72653 v 0 h 8.92184 v 0 l -4.4609,7.72647 v 0 h -8.92182 v 0 l -4.46093,7.72653 v 0 l 4.46093,7.72651 v 0 l 4.46088,7.72652 v 0 l 4.46094,-7.72652 v 0 l -4.46094,-7.72651 v 0 h 8.92184 v 0 l 4.46089,7.72651 v 0 l -4.46089,7.72652 v 0 l 4.46089,7.72651 v 0 l 4.46093,-7.72651 v 0 h 8.92178 v 0 l -4.4609,7.72651 v 0 l -4.46088,7.72652 v 0 h -8.92182 v 0 l -4.4609,-7.72652 v 0 h -8.92182 v 0 l 4.46088,7.72652 v 0 l -4.46088,7.72653 v 0 l -4.46093,-7.72653 v 0 l -4.46089,-7.72652 v 0 l 4.46089,-7.72651 v 0 l -4.46089,-7.72652 v 0 h -8.92183 v 0 l 4.46093,7.72652 v 0 l -4.46093,7.72651 v 0 l -4.46088,-7.72651 v 0 l -4.4609,-7.72652 v 0 l 4.4609,-7.72651 v 0 h 8.92181 v 0 l 4.4609,-7.72653 v 0 l 4.46089,-7.72647 v 0 h -8.92179 v 0 l -4.46093,7.72647 v 0 l -4.46088,-7.72647 v 0 l 4.46088,-7.72653 v 0 h 8.92183 v 0 l 4.46089,-7.7265 v 0 h -8.92179 v 0 l -4.46093,-7.72653 v 0 h 8.92183 v 0 h 8.92182 v 0 l 4.46088,7.72653 v 0 h 8.92184 v 0 l 4.46089,-7.72653 v 0 l 4.46093,-7.72651 v 0 h -8.92182 v 0 l -4.4609,7.72651 v 0 l -4.46094,-7.72651 v 0 l 4.46094,-7.72652 v 0 l -4.46094,-7.72652 v 0 h -8.92181 v 0 h -8.92179 v 0 l 4.4609,7.72652 v 0 h 8.92182 v 0 l -4.46093,7.72652 v 0 h -8.92179 v 0 l -4.46093,-7.72652 v 0 h -8.92178 v 0 l 4.4609,7.72652 v 0 l -4.4609,7.72651 v 0 l -4.46093,-7.72651 v 0 l -4.46089,-7.72652 v 0 l 4.46089,-7.72652 v 0 h 8.92183 v 0 l 4.46088,-7.72651 v 0 h -8.92178 v 0 l -4.46093,-7.72653 v 0 h 8.92183 v 0 h 8.92181 v 0 l 4.4609,7.72653 v 0 h 8.92182 v 0 l 4.46088,-7.72653 v 0 h -8.92181 v 0 l -4.46089,-7.72652 v 0 h 8.92182 v 0 h 8.92182 v 0 l 4.4609,7.72652 v 0 l -4.4609,7.72653 v 0 l 4.4609,7.72651 v 0 l 4.46089,7.72652 v 0 l 4.46093,-7.72652 v 0 l -4.46093,-7.72651 v 0 h 8.92181 v 0 l 4.4609,7.72651 v 0 h 8.92183 v 0 l 4.46088,-7.72651 v 0 h -8.92178 v 0 l -4.46093,-7.72653 v 0 h 8.92183 v 0 h 8.92181 v 0 l 4.46089,7.72653 v 0 h 8.92183 v 0 l 4.46089,-7.72653 v 0 l 4.46094,-7.72652 v 0 h -8.92183 v 0 l -4.46093,7.72652 v 0 l -4.4609,-7.72652 v 0 l 4.4609,-7.7265 v 0 l -4.4609,-7.72653 v 0 h -8.92182 v 0 h -8.92178 v 0 l 4.4609,7.72653 v 0 h 8.92181 v 0 l -4.46093,7.7265 v 0 h -8.92178 v 0 l -4.46093,-7.7265 v 0 h -8.92178 v 0 l 4.46088,7.7265 v 0 l -4.46088,7.72652 v 0 l -4.46093,-7.72652 v 0 l -4.46089,-7.7265 v 0 l 4.46089,-7.72653 v 0 h 8.92181 v 0 l 4.4609,-7.72651 v 0 h -8.92178 v 0 l -4.46093,-7.72653 v 0 h 8.92181 v 0 h 8.92183 v 0 l 4.4609,7.72653 v 0 h 8.92181 v 0 l 4.46089,-7.72653 v 0 h -8.92182 v 0 l -4.46088,-7.72652 v 0 h 8.92181 v 0 h 8.92179 v 0 l 4.46093,7.72652 v 0 l -4.46093,7.72653 v 0 l 4.46093,7.72651 v 0 l 4.46089,7.72653 v 0 l 4.46094,-7.72653 v 0 l -4.46094,-7.72651 v 0 h 8.92182 v 0 l 4.4609,7.72651 v 0 l -4.4609,7.72653 v 0 l 4.4609,7.7265 v 0 l 4.46092,-7.7265 v 0 h 8.92179 v 0 l -4.4609,7.7265 v 0 l -4.46089,7.72652 v 0 h -8.92182 v 0 l -4.46088,7.72653 v 0 l 4.46088,7.72651 v 0 l 4.4609,7.72652 v 0 l 4.46092,-7.72652 v 0 l -4.46092,-7.72651 v 0 h 8.92181 v 0 l 4.4609,7.72651 v 0 l -4.4609,7.72652 v 0 l 4.4609,7.72652 v 0 l 4.46093,7.72651 v 0 l 4.46089,-7.72651 v 0 l -4.46089,-7.72652 v 0 h 8.92177 v 0 l 4.46095,7.72652 v 0 h 8.92181 v 0 l 4.4609,-7.72652 v 0 l 4.46088,-7.72652 v 0 h -8.92178 v 0 l -4.46093,7.72652 v 0 l -4.46088,-7.72652 v 0 l 4.46088,-7.72651 v 0 l -4.46088,-7.72653 v 0 h -8.92183 v 0 l 4.46088,7.72653 v 0 l -4.46088,7.72651 v 0 l -4.46089,-7.72651 v 0 l -4.46093,-7.72653 v 0 l 4.46093,-7.72652 v 0 h 8.92177 v 0 l 4.46095,-7.7265 v 0 h -8.92183 v 0 l -4.46089,-7.72653 v 0 h 8.92177 v 0 h 8.92183 v 0 l 4.46093,7.72653 v 0 l -4.46093,7.7265 v 0 l 4.46093,7.72652 v 0 l 4.4609,7.72653 v 0 l 4.46088,-7.72653 v 0 l -4.46088,-7.72652 v 0 h 8.92182 v 0 l 4.46088,7.72652 v 0 h 8.92183 v 0 l 4.46089,-7.72652 v 0 H 437.992 v 0 l -4.4609,-7.7265 v 0 h 8.92183 v 0 h 8.92178 v 0 l 4.46093,7.7265 v 0 h 8.92183 v 0 l 4.46089,-7.7265 v 0 l 4.46089,-7.72653 v 0 h -8.92178 v 0 l -4.46093,7.72653 v 0 l -4.4609,-7.72653 v 0 l 4.4609,-7.72651 v 0 l -4.4609,-7.72653 v 0 h -8.92182 v 0 H 437.992 v 0 l 4.46093,7.72653 v 0 h 8.92178 v 0 l -4.46089,7.72651 v 0 H 437.992 v 0 l -4.4609,-7.72651 v 0 h -8.92182 v 0 l 4.46094,7.72651 v 0 l -4.46094,7.72653 v 0 l -4.46088,-7.72653 v 0 l -4.4609,-7.72651 v 0 l 4.4609,-7.72653 v 0 h 8.92182 v 0 l 4.46088,-7.72652 v 0 h -8.92182 v 0 l -4.46088,-7.72649 v 0 h 8.92182 v 0 h 8.92178 v 0 l 4.46093,7.72649 v 0 h 8.92178 v 0 l 4.46093,-7.72649 v 0 h -8.92182 v 0 l -4.46089,-7.72653 v 0 h 8.92178 v 0 h 8.92183 v 0 l 4.46093,7.72653 v 0 l -4.46093,7.72649 v 0 l 4.46093,7.72652 v 0 l 4.46089,7.72653 v 0 l 4.46089,-7.72653 v 0 l -4.46089,-7.72652 v 0 h 8.92182 v 0 l 4.46089,7.72652 v 0 h 8.92183 v 0 l 4.46088,-7.72652 v 0 h -8.92183 v 0 l -4.46088,-7.72649 v 0 h 8.92183 v 0 h 8.92178 v 0 l 4.46093,7.72649 v 0 h 8.92183 v 0 l 4.46087,-7.72649 v 0 l 4.4609,-7.72653 v 0 h -8.92177 v 0 l -4.46093,7.72653 v 0 l -4.4609,-7.72653 v 0 l 4.4609,-7.72651 v 0 h 8.9218 v 0 l 4.4609,-7.72651 v 0 l 4.46093,-7.72651 v 0 h -8.92183 v 0 l -4.46087,7.72651 v 0 l -4.46093,-7.72651 v 0 l 4.46093,-7.72651 v 0 l -4.46093,-7.72651 v 0 h -8.92183 v 0 h -8.92178 v 0 l 4.46088,7.72651 v 0 h 8.92183 v 0 l -4.46093,7.72651 v 0 h -8.92178 v 0 l -4.46095,7.72651 v 0 l 4.46095,7.72651 v 0 l 4.46088,-7.72651 v 0 h 8.92183 v 0 l -4.46093,7.72651 v 0 l -4.4609,7.72651 v 0 h -8.92183 v 0 l -4.46088,-7.72651 v 0 h -8.92182 v 0 l 4.46093,7.72651 v 0 l -4.46093,7.72653 v 0 l -4.46089,-7.72653 v 0 l -4.46089,-7.72651 v 0 l 4.46089,-7.72651 v 0 h 8.92182 v 0 l 4.46089,-7.72651 v 0 l 4.46088,-7.72651 v 0 h -8.92177 v 0 l -4.46093,7.72651 v 0 l -4.46089,-7.72651 v 0 l 4.46089,-7.72651 v 0 h 8.92182 v 0 l 4.46088,-7.72655 v 0 h -8.92177 v 0 l -4.46093,-7.7265 v 0 h 8.92182 v 0 h 8.92183 v 0 l 4.46088,7.7265 v 0 h 8.92183 v 0 l 4.4609,-7.7265 v 0 l 4.46093,-7.72651 v 0 h -8.92183 v 0 l -4.46093,7.72651 v 0 l -4.4609,-7.72651 v 0 l 4.4609,-7.72651 v 0 h 8.92183 v 0 l 4.46093,-7.72651 v 0 l 4.46087,-7.72653 v 0 h -8.9218 v 0 l -4.4609,7.72653 v 0 l -4.46093,-7.72653 v 0 l 4.46093,-7.72651 v 0 l -4.46093,-7.72651 v 0 h -8.92178 v 0 h -8.92183 v 0 l 4.46088,7.72651 v 0 h 8.92183 v 0 l -4.46088,7.72651 v 0 h -8.92183 v 0 l -4.46089,7.72653 v 0 l 4.46089,7.72651 v 0 l 4.46088,-7.72651 v 0 h 8.92183 v 0 l -4.46088,7.72651 v 0 l -4.46095,7.72651 v 0 h -8.92177 v 0 l -4.46093,-7.72651 v 0 h -8.92178 v 0 l 4.46089,7.72651 v 0 l -4.46089,7.72651 v 0 l -4.46093,-7.72651 v 0 l -4.4609,-7.72651 v 0 l 4.4609,-7.72651 v 0 h 8.92182 v 0 l 4.46089,-7.72653 v 0 l 4.46093,-7.72651 v 0 h -8.92182 v 0 l -4.46089,7.72651 v 0 l -4.46093,-7.72651 v 0 l 4.46093,-7.72651 v 0 l -4.46093,-7.72653 v 0 h -8.92183 v 0 l 4.46093,7.72653 v 0 l -4.46093,7.72651 v 0 l -4.46089,-7.72651 v 0 l -4.46089,-7.72653 v 0 l 4.46089,-7.72651 v 0 l -4.46089,-7.72651 v 0 h -8.92183 v 0 h -8.92182 v 0 l 4.46094,7.72651 v 0 h 8.92178 v 0 l -4.4609,7.72651 v 0 h -8.92182 v 0 l -4.46088,-7.72651 v 0 h -8.92183 v 0 h -8.92183 v 0 l 4.46095,7.72651 v 0 h 8.92181 v 0 l -4.46093,7.72653 v 0 h -8.92183 v 0 l -4.46088,7.72651 v 0 l 4.46088,7.72651 v 0 l 4.46095,7.72653 v 0 l 4.46088,-7.72653 v 0 l -4.46088,-7.72651 v 0 h 8.92181 v 0 l 4.4609,7.72651 v 0 h 8.92182 v 0 l 4.46088,-7.72651 v 0 h -8.92182 v 0 l -4.46088,-7.72651 v 0 h 8.92182 v 0 h 8.92178 v 0 l 4.46093,7.72651 v 0 l -4.46093,7.72651 v 0 l 4.46093,7.72653 v 0 l 4.46089,-7.72653 v 0 h 8.92182 v 0 l -4.46093,7.72653 v 0 l -4.46089,7.72651 v 0 H 437.992 v 0 l -4.4609,-7.72651 v 0 h -8.92182 v 0 h -8.92178 v 0 l 4.4609,7.72651 v 0 h 8.92182 v 0 l -4.46094,7.72651 v 0 h -8.92178 v 0 l -4.46093,7.72651 v 0 l 4.46093,7.7265 v 0 l 4.4609,-7.7265 v 0 h 8.92182 v 0 l -4.46094,7.7265 v 0 l -4.46088,7.72655 v 0 h -8.92183 v 0 l -4.46088,7.72651 v 0 l 4.46088,7.72651 v 0 l 4.46093,7.72651 v 0 l 4.4609,-7.72651 v 0 l -4.4609,-7.72651 v 0 h 8.92178 v 0 l 4.46094,7.72651 v 0 h 8.92178 v 0 l 4.46093,-7.72651 v 0 l 4.46089,-7.72651 v 0 H 437.992 v 0 l -4.4609,7.72651 v 0 l -4.46088,-7.72651 v 0 l 4.46088,-7.72655 v 0 h 8.92183 v 0 l 4.46089,-7.7265 v 0 H 437.992 v 0 l -4.4609,-7.72651 v 0 h 8.92183 v 0 h 8.92178 v 0 l 4.46093,7.72651 v 0 l -4.46093,7.7265 v 0 l 4.46093,7.72655 v 0 l 4.4609,-7.72655 v 0 h 8.92182 v 0 l -4.46089,7.72655 v 0 l -4.46093,7.72651 v 0 h -8.92183 v 0 l -4.46089,7.72651 v 0 l 4.46089,7.72651 v 0 l 4.46093,-7.72651 v 0 h 8.92183 v 0 l -4.46093,7.72651 v 0 l -4.4609,7.72651 v 0 h -8.92182 v 0 l -4.46089,-7.72651 v 0 h -8.92183 v 0 h -8.92182 v 0 l 4.46094,7.72651 v 0 h 8.92178 v 0 l -4.4609,7.72651 v 0 h -8.92182 v 0 l -4.46088,-7.72651 v 0 h -8.92183 v 0 l 4.46093,7.72651 v 0 l -4.46093,7.72653 v 0 l -4.46088,-7.72653 v 0 l -4.46095,-7.72651 v 0 l 4.46095,-7.72651 v 0 l -4.46095,-7.72651 v 0 h -8.92177 v 0 h -8.92183 v 0 l 4.4609,7.72651 v 0 h 8.92182 v 0 l -4.46089,7.72651 v 0 h -8.92183 v 0 l -4.46089,7.72651 v 0 l 4.46089,7.72653 v 0 l 4.4609,7.72649 v 0 l 4.46093,-7.72649 v 0 l -4.46093,-7.72653 v 0 h 8.92182 v 0 l 4.46088,7.72653 v 0 l -4.46088,7.72649 v 0 l 4.46088,7.72652 v 0 l 4.46095,-7.72652 v 0 h 8.92181 v 0 l -4.46093,7.72652 v 0 l -4.46088,7.72653 v 0 h -8.92183 v 0 l -4.46089,-7.72653 v 0 h -8.92183 v 0 l 4.4609,7.72653 v 0 l -4.4609,7.72651 v 0 l -4.46089,-7.72651 v 0 l -4.46092,-7.72653 v 0 l 4.46092,-7.72652 v 0 l -4.46092,-7.72649 v 0 h -8.92178 v 0 l 4.46088,7.72649 v 0 l -4.46088,7.72652 v 0 l -4.46094,-7.72652 v 0 l -4.46089,-7.72649 v 0 l 4.46089,-7.72653 v 0 h 8.92182 v 0 l 4.4609,-7.72651 v 0 l 4.46092,-7.72651 v 0 h -8.92182 v 0 l -4.46088,7.72651 v 0 l -4.46094,-7.72651 v 0 l 4.46094,-7.72651 v 0 h 8.92178 v 0 l 4.46092,-7.72651 v 0 h -8.92182 v 0 l -4.46088,-7.72651 v 0 h 8.92178 v 0 h 8.92181 v 0 l 4.4609,7.72651 v 0 h 8.92182 v 0 l 4.46088,-7.72651 v 0 l 4.46095,-7.72655 v 0 h -8.92183 v 0 l -4.46089,7.72655 v 0 l -4.46093,-7.72655 v 0 l 4.46093,-7.7265 v 0 h 8.92177 v 0 l 4.46095,-7.72651 v 0 l 4.46088,-7.72651 v 0 h -8.92183 v 0 l -4.46088,7.72651 v 0 l -4.46089,-7.72651 v 0 l 4.46089,-7.72651 v 0 l -4.46089,-7.72653 v 0 h -8.92183 v 0 h -8.92181 v 0 l 4.46092,7.72653 v 0 h 8.92179 v 0 l -4.4609,7.72651 v 0 h -8.92181 v 0 l -4.4609,7.72651 v 0 l 4.4609,7.72651 v 0 l 4.46092,-7.72651 v 0 h 8.92179 v 0 l -4.4609,7.72651 v 0 l -4.46089,7.7265 v 0 h -8.92182 v 0 l -4.46088,-7.7265 v 0 h -8.92183 v 0 l 4.46089,7.7265 v 0 l -4.46089,7.72655 v 0 l -4.46093,-7.72655 v 0 l -4.4609,-7.7265 v 0 l 4.4609,-7.72651 v 0 h 8.92182 v 0 l 4.46094,-7.72651 v 0 l 4.46088,-7.72651 v 0 h -8.92182 v 0 l -4.46089,7.72651 v 0 l -4.46093,-7.72651 v 0 l 4.46093,-7.72653 v 0 l -4.46093,-7.72651 v 0 H 344.313 v 0 l 4.46089,7.72651 v 0 l -4.46089,7.72653 v 0 l -4.46093,-7.72653 v 0 l -4.46088,-7.72651 v 0 l 4.46088,-7.72651 v 0 l -4.46088,-7.72653 v 0 h -8.92183 v 0 h -8.92178 v 0 l 4.46088,7.72653 v 0 h 8.92183 v 0 l -4.46093,7.72651 v 0 h -8.92178 v 0 l -4.46093,7.72651 v 0 l 4.46093,7.72653 v 0 l 4.46088,7.72651 v 0 l 4.4609,-7.72651 v 0 l -4.4609,-7.72653 v 0 h 8.92183 v 0 l 4.4609,7.72653 v 0 l -4.4609,7.72651 v 0 l 4.4609,7.72651 v 0 l 4.46088,-7.72651 v 0 h 8.92182 v 0 l -4.46089,7.72651 v 0 l -4.46093,7.72651 v 0 h -8.92178 v 0 l -4.46093,-7.72651 v 0 h -8.92178 v 0 l 4.46088,7.72651 v 0 l -4.46088,7.7265 v 0 l -4.46093,-7.7265 v 0 l -4.46089,-7.72651 v 0 l 4.46089,-7.72651 v 0 l -4.46089,-7.72651 v 0 h -8.92184 v 0 l 4.46094,7.72651 v 0 l -4.46094,7.72651 v 0 l -4.46088,-7.72651 v 0 l -4.46093,-7.72651 v 0 l 4.46093,-7.72653 v 0 h 8.92182 v 0 l 4.4609,-7.72651 v 0 l 4.46089,-7.72651 v 0 h -8.92179 v 0 l -4.46094,7.72651 v 0 l -4.46088,-7.72651 v 0 l 4.46088,-7.72653 v 0 l -4.46088,-7.72651 v 0 h -8.92182 v 0 l 4.46089,7.72651 v 0 l -4.46089,7.72653 v 0 l -4.4609,-7.72653 v 0 l -4.46093,-7.72651 v 0 l 4.46093,-7.72651 v 0 l -4.46093,-7.72651 v 0 h -8.92178 v 0 h -8.92182 v 0 l 4.46089,7.72651 v 0 h 8.92183 v 0 l -4.4609,7.72651 v 0 h -8.92182 v 0 l -4.46088,-7.72651 v 0 h -8.92183 v 0 h -8.92183 v 0 l 4.46089,7.72651 v 0 h 8.92184 v 0 l -4.4609,7.72651 v 0 h -8.92183 v 0 l -4.46088,7.72653 v 0 l 4.46088,7.72651 v 0 l 4.46089,7.72651 v 0 l 4.46094,-7.72651 v 0 l -4.46094,-7.72651 v 0 h 8.92184 v 0 l 4.46093,7.72651 v 0 h 8.92177 v 0 l 4.46093,-7.72651 v 0 h -8.92182 v 0 l -4.46088,-7.72653 v 0 h 8.92177 v 0 h 8.92183 v 0 l 4.46088,7.72653 v 0 l -4.46088,7.72651 v 0 l 4.46088,7.72651 v 0 l 4.46093,-7.72651 v 0 h 8.92179 v 0 l -4.46089,7.72651 v 0 l -4.4609,7.72653 v 0 h -8.92181 v 0 l -4.4609,-7.72653 v 0 h -8.92182 v 0 h -8.92181 v 0 l 4.46093,7.72653 v 0 h 8.92177 v 0 l -4.46089,7.72651 v 0 h -8.92181 v 0 l -4.4609,-7.72651 v 0 h -8.92183 v 0 l 4.46089,7.72651 v 0 l -4.46089,7.72651 v 0 l -4.46088,-7.72651 v 0 l -4.46095,-7.72651 v 0 l 4.46095,-7.72653 v 0 l -4.46095,-7.72651 v 0 h -8.92177 v 0 h -8.92182 v 0 l 4.46088,7.72651 v 0 h 8.92184 v 0 l -4.4609,7.72653 v 0 h -8.92182 v 0 l -4.46089,-7.72653 v 0 h -8.92183 v 0 h -8.92182 v 0 l 4.46089,7.72653 v 0 h 8.92183 v 0 l -4.4609,7.72651 v 0 h -8.92182 v 0 l -4.46089,7.72651 v 0 l 4.46089,7.72651 v 0 l 4.46089,7.7265 v 0 l 4.46093,-7.7265 v 0 l -4.46093,-7.72651 v 0 h 8.92183 v 0 l 4.46093,7.72651 v 0 h 8.92177 v 0 l 4.46094,-7.72651 v 0 h -8.92182 v 0 l -4.46089,-7.72651 v 0 h 8.92177 v 0 h 8.92184 v 0 l 4.46087,7.72651 v 0 l -4.46087,7.72651 v 0 l 4.46087,7.7265 v 0 l 4.46095,-7.7265 v 0 h 8.92177 v 0 l -4.46089,7.7265 v 0 l -4.46088,7.72655 v 0 h -8.92182 v 0 l -4.4609,-7.72655 v 0 h -8.92182 v 0 h -8.92182 v 0 l 4.46093,7.72655 v 0 h 8.92177 v 0 l -4.46088,7.72651 v 0 h -8.92182 v 0 l -4.4609,7.72651 v 0 l 4.4609,7.72651 v 0 l 4.46093,-7.72651 v 0 h 8.92177 v 0 l -4.46088,7.72651 v 0 l -4.46089,7.72651 v 0 h -8.92183 v 0 l -4.46093,7.72651 v 0 l 4.46093,7.72653 v 0 l 4.4609,7.72649 v 0 l 4.46093,-7.72649 v 0 l -4.46093,-7.72653 v 0 h 8.92182 v 0 l 4.46088,7.72653 v 0 l -4.46088,7.72649 v 0 l 4.46088,7.72652 v 0 l 4.46094,7.72653 v 0 l 4.4609,-7.72653 v 0 l -4.4609,-7.72652 v 0 h 8.92177 v 0 l 4.46095,7.72652 v 0 h 8.92177 v 0 l 4.46094,-7.72652 v 0 l 4.4609,-7.72649 v 0 h -8.92184 v 0 l -4.46089,7.72649 v 0 l -4.46088,-7.72649 v 0 l 4.46088,-7.72653 v 0 l -4.46088,-7.72651 v 0 h -8.92182 v 0 l 4.46087,7.72651 v 0 l -4.46087,7.72653 v 0 l -4.4609,-7.72653 v 0 l -4.46094,-7.72651 v 0 l 4.46094,-7.72651 v 0 h 8.92177 v 0 l 4.46095,-7.72651 v 0 h -8.92182 v 0 l -4.4609,-7.72651 v 0 h 8.92177 v 0 h 8.92183 v 0 l 4.46089,7.72651 v 0 l -4.46089,7.72651 v 0 l 4.46089,7.72651 v 0 l 4.46094,7.72651 v 0 l 4.4609,-7.72651 v 0 l -4.4609,-7.72651 v 0 h 8.92183 v 0 l 4.46088,7.72651 v 0 h 8.92182 v 0 l 4.4609,-7.72651 v 0 h -8.92183 v 0 l -4.46089,-7.72651 v 0 h 8.92182 v 0 h 8.92178 v 0 l 4.46093,7.72651 v 0 h 8.92179 v 0 l 4.46093,-7.72651 v 0 l 4.46088,-7.72651 v 0 h -8.92181 v 0 l -4.46089,7.72651 v 0 l -4.4609,-7.72651 v 0 l 4.4609,-7.72651 v 0 l -4.4609,-7.72655 v 0 h -8.92181 v 0 h -8.92183 v 0 l 4.46093,7.72655 v 0 h 8.92178 v 0 l -4.46088,7.72651 v 0 h -8.92183 v 0 l -4.46089,-7.72651 v 0 h -8.92181 v 0 l 4.46093,7.72651 v 0 l -4.46093,7.72651 v 0 l -4.4609,-7.72651 v 0 l -4.46094,-7.72651 v 0 l 4.46094,-7.72655 v 0 h 8.92183 v 0 l 4.46088,-7.7265 v 0 h -8.92181 v 0 l -4.4609,-7.72651 v 0 h 8.92183 v 0 h 8.92177 v 0 l 4.46093,7.72651 v 0 h 8.92178 v 0 l 4.46093,-7.72651 v 0 h -8.92181 v 0 l -4.4609,-7.72651 v 0 h 8.92178 v 0 h 8.92183 v 0 l 4.46089,7.72651 v 0 l -4.46089,7.72651 v 0 l 4.46089,7.7265 v 0 l 4.46093,7.72655 v 0 l 4.46088,-7.72655 v 0 l -4.46088,-7.7265 v 0 h 8.92182 v 0 l 4.4609,7.7265 v 0 l -4.4609,7.72655 v 0 l 4.4609,7.72651 v 0 l 4.46089,-7.72651 v 0 h 8.92181 v 0 l -4.46088,7.72651 v 0 l -4.46093,7.72651 v 0 h -8.92179 v 0 l -4.46094,7.72651 v 0 l 4.46094,7.72651 v 0 l 4.4609,7.72651 v 0 l 4.46089,-7.72651 v 0 l -4.46089,-7.72651 v 0 h 8.92182 v 0 l 4.46088,7.72651 v 0 h 8.92183 v 0 l 4.4609,-7.72651 v 0 l 4.46088,-7.72651 v 0 h -8.92178 v 0 l -4.46093,7.72651 v 0 l -4.4609,-7.72651 v 0 l 4.4609,-7.72651 v 0 h 8.92183 v 0 l 4.46088,-7.72651 v 0 h -8.92178 v 0 l -4.46093,-7.72655 v 0 h 8.92183 v 0 h 8.92181 v 0 l 4.46089,7.72655 v 0 l -4.46089,7.72651 v 0 l 4.46089,7.72651 v 0 l 4.4609,-7.72651 v 0 h 8.92182 v 0 l -4.46089,7.72651 v 0 l -4.46093,7.72651 v 0 H 344.313 v 0 l -4.46093,7.72651 v 0 l 4.46093,7.72651 v 0 l 4.46089,-7.72651 v 0 h 8.92183 v 0 l -4.46093,7.72651 v 0 l -4.4609,7.72653 v 0 h -8.92182 v 0 l -4.46088,-7.72653 v 0 h -8.92183 v 0 h -8.92178 v 0 l 4.46088,7.72653 v 0 h 8.92183 v 0 l -4.46093,7.72649 v 0 h -8.92178 v 0 l -4.46093,-7.72649 v 0 h -8.92179 v 0 l 4.4609,7.72649 v 0 l -4.4609,7.72652 v 0 l -4.46094,-7.72652 v 0 l -4.46088,-7.72649 v 0 l 4.46088,-7.72653 v 0 l -4.46088,-7.72651 v 0 h -8.92182 v 0 h -8.92183 v 0 l 4.46093,7.72651 v 0 h 8.92179 v 0 l -4.46089,7.72653 v 0 h -8.92183 v 0 l -4.46088,-7.72653 v 0 h -8.92183 v 0 h -8.92177 v 0 l 4.46088,7.72653 v 0 h 8.92182 v 0 l -4.46093,7.72649 v 0 h -8.92177 v 0 l -4.46093,7.72652 v 0 l 4.46093,7.72653 v 0 l 4.46088,7.72651 v 0 l 4.46089,-7.72651 v 0 l -4.46089,-7.72653 v 0 h 8.92182 v 0 l 4.4609,7.72653 v 0 h 8.92181 v 0 l 4.4609,-7.72653 v 0 h -8.92183 v 0 l -4.46088,-7.72652 v 0 h 8.92181 v 0 h 8.92179 v 0 l 4.46093,7.72652 v 0 l -4.46093,7.72653 v 0 l 4.46093,7.72651 v 0 l 4.46088,-7.72651 v 0 h 8.92184 v 0 l -4.4609,7.72651 v 0 l -4.46094,7.72653 v 0 h -8.92181 v 0 l -4.46089,-7.72653 v 0 h -8.92183 v 0 h -8.92178 v 0 l 4.4609,7.72653 v 0 h 8.92181 v 0 l -4.46093,7.7265 v 0 h -8.92178 v 0 l -4.46093,-7.7265 v 0 h -8.92177 v 0 l 4.46088,7.7265 v 0 l -4.46088,7.72652 v 0 l -4.46093,-7.72652 v 0 l -4.4609,-7.7265 v 0 l 4.4609,-7.72653 v 0 l -4.4609,-7.72651 v 0 h -8.92183 v 0 h -8.92183 v 0 l 4.46095,7.72651 v 0 h 8.92177 v 0 l -4.46089,7.72653 v 0 h -8.92183 v 0 l -4.46087,7.7265 v 0 l 4.46087,7.72652 v 0 l 4.46095,7.72653 v 0 l 4.46088,-7.72653 v 0 l -4.46088,-7.72652 v 0 h 8.92177 v 0 l 4.46094,7.72652 v 0 l -4.46094,7.72653 v 0 l 4.46094,7.72651 v 0 l 4.4609,-7.72651 v 0 h 8.92181 v 0 l -4.46088,7.72651 v 0 l -4.46093,7.72652 v 0 h -8.92184 v 0 l -4.46089,-7.72652 v 0 h -8.92183 v 0 l 4.46095,7.72652 v 0 l -4.46095,7.72652 v 0 l -4.46087,-7.72652 v 0 l -4.4609,-7.72652 v 0 l 4.4609,-7.72651 v 0 l -4.4609,-7.72653 v 0 h -8.92182 v 0 l 4.46088,7.72653 v 0 l -4.46088,7.72651 v 0 l -4.46089,-7.72651 v 0 l -4.46093,-7.72653 v 0 l 4.46093,-7.72652 v 0 h 8.92177 v 0 l 4.46094,-7.7265 v 0 l 4.4609,-7.72653 v 0 h -8.92184 v 0 l -4.46088,7.72653 v 0 l -4.46089,-7.72653 v 0 l 4.46089,-7.72651 v 0 l -4.46089,-7.72653 v 0 h -8.92183 v 0 l 4.4609,7.72653 v 0 l -4.4609,7.72651 v 0 l -4.46093,-7.72651 v 0 l -4.46089,-7.72653 v 0 l 4.46089,-7.72652 v 0 l -4.46089,-7.72649 v 0 h -8.92182 v 0 h -8.92177 v 0 l 4.46088,7.72649 v 0 h 8.92182 v 0 l -4.46093,7.72652 v 0 h -8.92177 v 0 l -4.46095,-7.72652 v 0 h -8.92178 v 0 h -8.92181 v 0 l 4.46088,7.72652 v 0 h 8.92183 v 0 l -4.4609,7.72653 v 0 h -8.92181 v 0 l -4.46095,7.72651 v 0 l 4.46095,7.72653 v 0 l 4.46088,7.7265 v 0 l 4.46093,-7.7265 v 0 l -4.46093,-7.72653 v 0 h 8.92183 v 0 l 4.46088,7.72653 v 0 h 8.92183 v 0 l 4.46089,-7.72653 v 0 h -8.92177 v 0 l -4.46095,-7.72651 v 0 h 8.92183 v 0 h 8.92182 v 0 l 4.46089,7.72651 v 0 l -4.46089,7.72653 v 0 l 4.46089,7.7265 v 0 l 4.46089,-7.7265 v 0 h 8.92183 v 0 l -4.4609,7.7265 v 0 l -4.46093,7.72652 v 0 h -8.92178 v 0 l -4.46093,-7.72652 v 0 h -8.92177 v 0 h -8.92183 v 0 l 4.46088,7.72652 v 0 h 8.92183 v 0 l -4.46088,7.72653 v 0 h -8.92183 v 0 l -4.4609,7.72651 v 0 l 4.4609,7.72652 v 0 l 4.46088,-7.72652 v 0 h 8.92183 v 0 l -4.46088,7.72652 v 0 l -4.46095,7.72652 v 0 h -8.92178 v 0 l -4.46093,7.72651 v 0 l 4.46093,7.72653 v 0 l 4.4609,7.7265 v 0 l 4.46088,-7.7265 v 0 l -4.46088,-7.72653 v 0 h 8.92183 v 0 l 4.46088,7.72653 v 0 l -4.46088,7.7265 v 0 l 4.46088,7.72653 v 0 l 4.46089,7.72647 v 0 l 4.46093,-7.72647 v 0 l -4.46093,-7.72653 v 0 h 8.92182 v 0 l 4.46089,7.72653 v 0 h 8.92183 v 0 l 4.46093,-7.72653 v 0 l 4.46089,-7.7265 v 0 h -8.92182 v 0 l -4.4609,7.7265 v 0 l -4.46093,-7.7265 v 0 l 4.46093,-7.72653 v 0 l -4.46093,-7.72651 v 0 h -8.92178 v 0 l 4.46089,7.72651 v 0 l -4.46089,7.72653 v 0 l -4.46093,-7.72653 v 0 l -4.46089,-7.72651 v 0 l 4.46089,-7.72652 v 0 h 8.92182 v 0 l 4.46089,-7.72652 v 0 h -8.92178 v 0 l -4.46093,-7.72651 v 0 h 8.92182 v 0 h 8.92182 v 0 l 4.4609,7.72651 v 0 l -4.4609,7.72652 v 0 l 4.4609,7.72652 v 0 l 4.46093,7.72651 v 0 l 4.46089,-7.72651 v 0 l -4.46089,-7.72652 v 0 h 8.92177 v 0 l 4.46094,7.72652 v 0 l -4.46094,7.72651 v 0 l 4.46094,7.72653 v 0 l 4.4609,-7.72653 v 0 h 8.92182 v 0 l -4.46095,7.72653 v 0 l -4.46087,7.7265 v 0 h -8.92184 v 0 l -4.46088,7.72653 v 0 l 4.46088,7.72647 v 0 l 4.46094,7.72653 v 0 l 4.4609,-7.72653 v 0 l -4.4609,-7.72647 v 0 h 8.92177 v 0 l 4.46095,7.72647 v 0 h 8.92177 v 0 l 4.46094,-7.72647 v 0 l 4.4609,-7.72653 v 0 h -8.92184 v 0 l -4.46089,7.72653 v 0 l -4.46088,-7.72653 v 0 l 4.46088,-7.7265 v 0 h 8.92183 v 0 l 4.4609,-7.72653 v 0 h -8.92184 v 0 l -4.46089,-7.72651 v 0 h 8.92183 v 0 h 8.92183 v 0 l 4.46088,7.72651 v 0 l -4.46088,7.72653 v 0 l 4.46088,7.7265 v 0 l 4.46089,-7.7265 v 0 h 8.92183 v 0 l -4.4609,7.7265 v 0 l -4.46093,7.72653 v 0 h -8.92177 v 0 l -4.46093,7.72647 v 0 l 4.46093,7.72653 v 0 l 4.46088,-7.72653 v 0 h 8.92182 v 0 l -4.46093,7.72653 v 0 l -4.46089,7.72651 v 0 h -8.92181 v 0 l -4.4609,-7.72651 v 0 h -8.92183 v 0 h -8.92183 v 0 l 4.46095,7.72651 v 0 h 8.92177 v 0 l -4.46089,7.72652 v 0 h -8.92183 v 0 l -4.46087,-7.72652 v 0 h -8.92184 v 0 l 4.46094,7.72652 v 0 l -4.46094,7.72651 v 0 l -4.46088,-7.72651 v 0 l -4.46089,-7.72652 v 0 l 4.46089,-7.72651 v 0 l -4.46089,-7.72653 v 0 h -8.92183 v 0 h -8.92182 v 0 l 4.46089,7.72653 v 0 h 8.92183 v 0 l -4.4609,7.72651 v 0 h -8.92182 v 0 l -4.46089,7.72652 v 0 l 4.46089,7.72651 v 0 l 4.46089,7.72652 v 0 l 4.46093,-7.72652 v 0 l -4.46093,-7.72651 v 0 h 8.92183 v 0 l 4.46093,7.72651 v 0 l -4.46093,7.72652 v 0 l 4.46093,7.72653 v 0 l 4.46089,-7.72653 v 0 h 8.92182 v 0 l -4.46094,7.72653 v 0 l -4.46088,7.7265 v 0 h -8.92182 v 0 l -4.4609,-7.7265 v 0 h -8.92182 v 0 l 4.46089,7.7265 v 0 l -4.46089,7.72653 v 0 l -4.46089,-7.72653 v 0 l -4.46093,-7.7265 v 0 l 4.46093,-7.72653 v 0 l -4.46093,-7.72652 v 0 h -8.92177 v 0 l 4.46088,7.72652 v 0 l -4.46088,7.72653 v 0 l -4.46095,-7.72653 v 0 l -4.46088,-7.72652 v 0 l 4.46088,-7.72651 v 0 h 8.92183 v 0 l 4.46089,-7.72652 v 0 l 4.46093,-7.72651 v 0 h -8.92182 v 0 l -4.46088,7.72651 v 0 l -4.46095,-7.72651 v 0 l 4.46095,-7.72653 v 0 l -4.46095,-7.72647 v 0 h -8.92178 v 0 l 4.4609,7.72647 v 0 l -4.4609,7.72653 v 0 l -4.46093,-7.72653 v 0 l -4.46088,-7.72647 v 0 l 4.46088,-7.72653 v 0 l -4.46088,-7.7265 v 0 h -8.92183 v 0 h -8.92183 v 0 l 4.46094,7.7265 v 0 h 8.92177 v 0 l -4.46088,7.72653 v 0 h -8.92183 v 0 l -4.4609,7.72647 v 0 l 4.4609,7.72653 v 0 l 4.46094,7.72651 v 0 l 4.46089,-7.72651 v 0 l -4.46089,-7.72653 v 0 h 8.92177 v 0 l 4.46095,7.72653 v 0 l -4.46095,7.72651 v 0 l 4.46095,7.72652 v 0 l 4.46088,-7.72652 v 0 h 8.92183 v 0 l -4.4609,7.72652 v 0 l -4.46093,7.72651 v 0 h -8.92183 v 0 l -4.46088,-7.72651 v 0 h -8.92183 v 0 l 4.46094,7.72651 v 0 l -4.46094,7.72652 v 0 l -4.4609,-7.72652 v 0 l -4.46087,-7.72651 v 0 l 4.46087,-7.72652 v 0 l -4.46087,-7.72651 v 0 h -8.92182 v 0 l 4.46089,7.72651 v 0 l -4.46089,7.72652 v 0 l -4.46089,-7.72652 v 0 l -4.46094,-7.72651 v 0 l 4.46094,-7.72653 v 0 h 8.92178 v 0 l 4.46093,-7.72647 v 0 l 4.46087,-7.72653 v 0 h -8.9218 v 0 l -4.46089,7.72653 v 0 l -4.46089,-7.72653 v 0 l 4.46089,-7.7265 v 0 h 8.92182 v 0 l 4.46087,-7.72653 v 0 h -8.9218 v 0 l -4.46089,-7.72651 v 0 h 8.92182 v 0 h 8.92177 v 0 l 4.46094,7.72651 v 0 h 8.92177 v 0 l 4.46095,-7.72651 v 0 l 4.46088,-7.72652 v 0 h -8.92183 v 0 l -4.46088,7.72652 v 0 l -4.46089,-7.72652 v 0 l 4.46089,-7.72652 v 0 h 8.92183 v 0 l 4.46088,-7.72651 v 0 l 4.46093,-7.72653 v 0 h -8.92181 v 0 l -4.46095,7.72653 v 0 l -4.46088,-7.72653 v 0 l 4.46088,-7.72652 v 0 l -4.46088,-7.7265 v 0 h -8.92183 v 0 h -8.92177 v 0 l 4.46087,7.7265 v 0 h 8.92184 v 0 l -4.46094,7.72652 v 0 h -8.92177 v 0 l -4.46093,7.72653 v 0 l 4.46093,7.72651 v 0 l 4.46087,-7.72651 v 0 h 8.92184 v 0 l -4.46094,7.72651 v 0 l -4.4609,7.72652 v 0 h -8.9218 v 0 l -4.46089,-7.72652 v 0 h -8.92183 v 0 l 4.46094,7.72652 v 0 l -4.46094,7.72652 v 0 l -4.460879,-7.72652 v 0 l -4.460929,-7.72652 v 0 l 4.460929,-7.72651 v 0 h 8.921819 v 0 l 4.46089,-7.72653 v 0 l 4.46089,-7.72652 v 0 h -8.92178 v 0 l -4.46094,7.72652 v 0 l -4.460879,-7.72652 v 0 l 4.460879,-7.7265 v 0 h 8.92183 v 0 l 4.46089,-7.72653 v 0 h -8.92178 v 0 l -4.46094,-7.72651 v 0 h 8.92183 v 0 h 8.92182 v 0 l 4.46087,7.72651 v 0 h 8.92184 v 0 l 4.46089,-7.72651 v 0 l 4.46088,-7.72653 v 0 h -8.92177 v 0 l -4.46094,7.72653 v 0 l -4.4609,-7.72653 v 0 l 4.4609,-7.72652 v 0 l -4.4609,-7.72649 v 0 h -8.9218 v 0 h -8.92178 v 0 l 4.46089,7.72649 v 0 h 8.92182 v 0 l -4.46093,7.72652 v 0 h -8.92178 v 0 l -4.46094,-7.72652 v 0 h -8.921808 v 0 l 4.460929,7.72652 v 0 l -4.460929,7.72653 v 0 l -4.460898,-7.72653 v 0 l -4.460897,-7.72652 v 0 l 4.460897,-7.72649 v 0 h 8.921827 v 0 l 4.460879,-7.72653 v 0 h -8.921808 v 0 l -4.460898,-7.72651 v 0 h 8.921827 v 0 h 8.921819 v 0 l 4.46089,7.72651 v 0 h 8.92182 v 0 l 4.46087,-7.72651 v 0 h -8.9218 v 0 l -4.46089,-7.72651 v 0 h 8.92182 v 0 h 8.92177 v 0 l 4.46094,7.72651 v 0 l -4.46094,7.72651 v 0 l 4.46094,7.72653 v 0 l 4.46089,7.72649 v 0 l 4.46088,-7.72649 v 0 l -4.46088,-7.72653 v 0 h 8.92183 v 0 l 4.46088,7.72653 v 0 h 8.92183 v 0 l 4.46088,-7.72653 v 0 h -8.92178 v 0 l -4.46093,-7.72651 v 0 h 8.92183 v 0 h 8.92183 v 0 l 4.46088,7.72651 v 0 h 8.92182 v 0 l 4.46089,-7.72651 v 0 l 4.46089,-7.72651 v 0 h -8.92178 v 0 l -4.46093,7.72651 v 0 l -4.46089,-7.72651 v 0 l 4.46089,-7.72651 v 0 h 8.92182 v 0 l 4.46089,-7.72651 v 0 l 4.46093,-7.72651 v 0 h -8.92182 v 0 l -4.46089,7.72651 v 0 l -4.46093,-7.72651 v 0 l 4.46093,-7.72655 v 0 l -4.46093,-7.7265 v 0 h -8.92177 v 0 h -8.92183 v 0 l 4.46088,7.7265 v 0 h 8.92183 v 0 l -4.46088,7.72655 v 0 h -8.92183 v 0 l -4.4609,7.72651 v 0 l 4.4609,7.72651 v 0 l 4.46088,-7.72651 v 0 h 8.92183 v 0 l -4.46088,7.72651 v 0 l -4.46095,7.72651 v 0 h -8.92178 v 0 l -4.46093,-7.72651 v 0 h -8.92183 v 0 l 4.46095,7.72651 v 0 l -4.46095,7.72651 v 0 l -4.46088,-7.72651 v 0 l -4.46089,-7.72651 v 0 l 4.46089,-7.72651 v 0 h 8.92183 v 0 l 4.46088,-7.72651 v 0 l 4.46093,-7.72655 v 0 h -8.92181 v 0 l -4.46095,7.72655 v 0 l -4.46088,-7.72655 v 0 l 4.46088,-7.7265 v 0 l -4.46088,-7.72651 v 0 h -8.92183 v 0 l 4.46094,7.72651 v 0 l -4.46094,7.7265 v 0 l -4.4609,-7.7265 v 0 l -4.46087,-7.72651 v 0 l 4.46087,-7.72651 v 0 l -4.46087,-7.72651 v 0 h -8.92182 v 0 h -8.92183 v 0 l 4.46094,7.72651 v 0 h 8.92178 v 0 l -4.46089,7.72651 v 0 h -8.92183 v 0 l -4.460879,-7.72651 v 0 h -8.921827 v 0 h -8.921827 v 0 l 4.46093,7.72651 v 0 h 8.921795 v 0 l -4.460898,7.72651 v 0 h -8.921827 v 0 l -4.460881,7.7265 v 0 l 4.460881,7.72655 v 0 l 4.46093,7.72651 v 0 l 4.460897,-7.72651 v 0 l -4.460897,-7.72655 v 0 h 8.921795 v 0 l 4.460929,7.72655 v 0 h 8.921819 v 0 l 4.46089,-7.72655 v 0 h -8.92183 v 0 l -4.460879,-7.7265 v 0 h 8.921819 v 0 h 8.92178 v 0 l 4.46093,7.7265 v 0 l -4.46093,7.72655 v 0 l 4.46093,7.72651 v 0 l 4.46087,-7.72651 v 0 h 8.92184 v 0 l -4.46094,7.72651 v 0 l -4.4609,7.72651 v 0 h -8.9218 v 0 l -4.46089,-7.72651 v 0 h -8.92183 v 0 h -8.921808 v 0 l 4.460929,7.72651 v 0 h 8.921819 v 0 l -4.46094,7.72651 v 0 h -8.921808 v 0 l -4.460898,-7.72651 v 0 h -8.921827 v 0 l 4.46093,7.72651 v 0 l -4.46093,7.72651 v 0 l -4.460881,-7.72651 v 0 l -4.460897,-7.72651 v 0 l 4.460897,-7.72651 v 0 l -4.460897,-7.72651 v 0 h -8.921828 v 0 h -8.92181 v 0 l 4.46093,7.72651 v 0 h 8.921778 v 0 l -4.460898,7.72651 v 0 h -8.92181 v 0 l -4.460898,7.72651 v 0 l 4.460898,7.72651 v 0 l 4.46093,7.72651 v 0 l 4.46088,-7.72651 v 0 l -4.46088,-7.72651 v 0 h 8.921778 v 0 l 4.46093,7.72651 v 0 l -4.46093,7.72651 v 0 l 4.46093,7.72653 v 0 l 4.460897,-7.72653 v 0 h 8.921811 v 0 l -4.46093,7.72653 v 0 l -4.460881,7.72649 v 0 h -8.921827 v 0 l -4.460898,-7.72649 v 0 h -8.92181 v 0 l 4.46093,7.72649 v 0 l -4.46093,7.72652 v 0 l -4.460898,-7.72652 v 0 l -4.46093,-7.72649 v 0 l 4.46093,-7.72653 v 0 l -4.46093,-7.72651 v 0 h -8.921778 v 0 l 4.460882,7.72651 v 0 l -4.460882,7.72653 v 0 l -4.46093,-7.72653 v 0 l -4.460897,-7.72651 v 0 l 4.460897,-7.72651 v 0 h 8.921812 v 0 l 4.460896,-7.72651 v 0 l 4.46093,-7.72651 v 0 h -8.921826 v 0 l -4.460882,7.72651 v 0 l -4.46093,-7.72651 v 0 l 4.46093,-7.72651 v 0 h 8.921778 v 0 l 4.46093,-7.72655 v 0 h -8.921826 v 0 l -4.460882,-7.7265 v 0 h 8.921778 v 0 h 8.921828 v 0 l 4.46093,7.7265 v 0 h 8.921778 v 0 l 4.46093,-7.7265 v 0 l 4.460897,-7.72651 v 0 h -8.921827 v 0 l -4.460898,7.72651 v 0 l -4.46088,-7.72651 v 0 l 4.46088,-7.72651 v 0 l -4.46088,-7.72651 v 0 h -8.921828 v 0 h -8.921826 v 0 l 4.460896,7.72651 v 0 h 8.921828 v 0 l -4.460898,7.72651 v 0 h -8.921826 v 0 l -4.460882,-7.72651 v 0 h -8.921827 v 0 l 4.460897,7.72651 v 0 l -4.460897,7.72651 v 0 l -4.460897,-7.72651 v 0 l -4.46093,-7.72651 v 0 l 4.46093,-7.72651 v 0 h 8.921794 v 0 l 4.46093,-7.72653 v 0 h -8.921827 v 0 l -4.460897,-7.72651 v 0 h 8.921794 v 0 h 8.921812 v 0 l 4.460896,7.72651 v 0 h 8.921828 v 0 l 4.46093,-7.72651 v 0 h -8.921828 v 0 l -4.46093,-7.72651 v 0 h 8.921828 v 0 h 8.92181 v 0 l 4.460898,7.72651 v 0 l -4.460898,7.72651 v 0 l 4.460898,7.72653 v 0 l 4.46093,7.72651 v 0 l 4.460897,-7.72651 v 0 l -4.460897,-7.72653 v 0 h 8.921778 v 0 l 4.46093,7.72653 v 0 h 8.921795 v 0 l 4.460929,-7.72653 v 0 h -8.921827 v 0 l -4.460897,-7.72651 v 0 h 8.921795 v 0 h 8.921808 v 0 l 4.46094,7.72651 v 0 h 8.92178 v 0 l 4.46093,-7.72651 v 0 l 4.46087,-7.72651 v 0 h -8.9218 v 0 l -4.46089,7.72651 v 0 l -4.46089,-7.72651 v 0 l 4.46089,-7.72653 v 0 l -4.46089,-7.72651 v 0 h -8.921819 v 0 h -8.921827 v 0 l 4.460898,7.72651 v 0 h 8.921808 v 0 l -4.460879,7.72653 v 0 h -8.921827 v 0 l -4.460897,-7.72653 v 0 h -8.921811 v 0 l 4.460881,7.72653 v 0 l -4.460881,7.72651 v 0 l -4.460897,-7.72651 v 0 l -4.46093,-7.72653 v 0 l 4.46093,-7.72651 v 0 h 8.921778 v 0 l 4.46093,-7.72651 v 0 h -8.921811 v 0 l -4.460897,-7.72651 v 0 h 8.921778 v 0 h 8.921827 v 0 l 4.460898,7.72651 v 0 h 8.921808 v 0 l 4.46094,-7.72651 v 0 h -8.921819 v 0 l -4.460929,-7.72653 v 0 h 8.921808 v 0 h 8.92183 v 0 l 4.46089,7.72653 v 0 l -4.46089,7.72651 v 0 l 4.46089,7.72651 v 0 l 4.46093,7.72651 v 0 l 4.46087,-7.72651 v 0 l -4.46087,-7.72651 v 0 h 8.92177 v 0 l 4.46094,7.72651 v 0 l -4.46094,7.72651 v 0 l 4.46094,7.72653 v 0 l 4.46089,-7.72653 v 0 h 8.92183 v 0 l -4.46095,7.72653 v 0 l -4.46088,7.72651 v 0 h -8.92183 v 0 l -4.4609,7.72651 v 0 l 4.4609,7.72653 v 0 l 4.46094,7.72651 v 0 l 4.46089,-7.72651 v 0 l -4.46089,-7.72653 v 0 h 8.92177 v 0 l 4.46095,7.72653 v 0 l -4.46095,7.72651 v 0 l 4.46095,7.72651 v 0 l 4.46088,7.72651 v 0 l 4.46093,-7.72651 v 0 l -4.46093,-7.72651 v 0 h 8.92183 v 0 l 4.46088,7.72651 v 0 h 8.92183 v 0 l 4.46089,-7.72651 v 0 l 4.46093,-7.72651 v 0 h -8.92182 v 0 l -4.46088,7.72651 v 0 l -4.46095,-7.72651 v 0 l 4.46095,-7.72653 v 0 l -4.46095,-7.72651 v 0 h -8.92178 v 0 l 4.4609,7.72651 v 0 l -4.4609,7.72653 v 0 l -4.46093,-7.72653 v 0 l -4.46088,-7.72651 v 0 l 4.46088,-7.72651 v 0 h 8.92183 v 0 l 4.46088,-7.72653 v 0 h -8.92178 v 0 l -4.46093,-7.72651 v 0 h 8.92183 v 0 h 8.92183 v 0 l 4.46088,7.72651 v 0 l -4.46088,7.72653 v 0 l 4.46088,7.72651 v 0 l 4.46089,7.72651 v 0 l 4.46093,-7.72651 v 0 l -4.46093,-7.72651 v 0 h 8.92182 v 0 l 4.46089,7.72651 v 0 h 8.92183 v 0 l 4.46093,-7.72651 v 0 h -8.92183 v 0 l -4.46093,-7.72653 v 0 h 8.92183 v 0 h 8.92182 v 0 l 4.46088,7.72653 v 0 h 8.92184 v 0 l 4.46087,-7.72653 v 0 l 4.46095,-7.72651 v 0 h -8.92182 v 0 l -4.4609,7.72651 v 0 l -4.46094,-7.72651 v 0 l 4.46094,-7.72651 v 0 l -4.46094,-7.72651 v 0 h -8.92177 v 0 h -8.92183 v 0 l 4.4609,7.72651 v 0 h 8.92182 v 0 l -4.46089,7.72651 v 0 h -8.92183 v 0 l -4.46093,-7.72651 v 0 h -8.92178 v 0 l 4.46089,7.72651 v 0 l -4.46089,7.72651 v 0 l -4.46093,-7.72651 v 0 l -4.46089,-7.72651 v 0 l 4.46089,-7.72651 v 0 h 8.92182 v 0 l 4.46089,-7.72653 v 0 h -8.92178 v 0 l -4.46093,-7.72651 v 0 h 8.92182 v 0 h 8.92182 v 0 l 4.4609,7.72651 v 0 h 8.92182 v 0 l 4.46088,-7.72651 v 0 h -8.92177 v 0 l -4.46093,-7.7265 v 0 h 8.92182 v 0 h 8.92182 v 0 l 4.4609,7.7265 v 0 l -4.4609,7.72651 v 0 l 4.4609,7.72653 v 0 l 4.46087,7.72651 v 0 l 4.46095,-7.72651 v 0 l -4.46095,-7.72653 v 0 h 8.92183 v 0 l 4.46089,7.72653 v 0 h 8.92184 v 0 l 4.46093,-7.72653 v 0 h -8.92183 v 0 l -4.46094,-7.72651 v 0 h 8.92184 v 0 h 8.92181 v 0 l 4.46089,7.72651 v 0 h 8.92183 v 0 l 4.46088,-7.72651 v 0 l 4.46093,-7.7265 v 0 h -8.92181 v 0 l -4.4609,7.7265 v 0 l -4.46093,-7.7265 v 0 l 4.46093,-7.72655 v 0 h 8.92178 v 0 l 4.46093,-7.72651 v 0 l 4.4609,-7.72651 v 0 h -8.92183 v 0 l -4.46088,7.72651 v 0 l -4.4609,-7.72651 v 0 l 4.4609,-7.72651 v 0 l -4.4609,-7.7265 v 0 h -8.92182 v 0 h -8.92181 v 0 l 4.46093,7.7265 v 0 h 8.92177 v 0 l -4.46089,7.72651 v 0 h -8.92181 v 0 l -4.4609,7.72651 v 0 l 4.4609,7.72651 v 0 l 4.46093,-7.72651 v 0 h 8.92177 v 0 l -4.46089,7.72651 v 0 l -4.46088,7.72655 v 0 h -8.92183 v 0 l -4.46094,-7.72655 v 0 h -8.92177 v 0 l 4.46088,7.72655 v 0 l -4.46088,7.7265 v 0 l -4.46095,-7.7265 v 0 l -4.46087,-7.72655 v 0 l 4.46087,-7.72651 v 0 h 8.92183 v 0 l 4.46089,-7.72651 v 0 l 4.46094,-7.72651 v 0 h -8.92183 v 0 l -4.46088,7.72651 v 0 l -4.46095,-7.72651 v 0 l 4.46095,-7.7265 v 0 l -4.46095,-7.72654 v 0 h -8.92177 v 0 l 4.4609,7.72654 v 0 l -4.4609,7.7265 v 0 l -4.46094,-7.7265 v 0 l -4.46088,-7.72654 v 0 l 4.46088,-7.72651 v 0 l -4.46088,-7.72651 v 0 h -8.92182 v 0 h -8.92183 v 0 l 4.46093,7.72651 v 0 h 8.92183 v 0 l -4.46093,7.72651 v 0 h -8.92183 v 0 l -4.46089,-7.72651 v 0 h -8.92182 v 0 h -8.92177 v 0 l 4.46088,7.72651 v 0 h 8.92182 v 0 l -4.46093,7.72654 v 0 h -8.92177 v 0 l -4.46095,7.7265 v 0 l 4.46095,7.72651 v 0 l 4.46088,7.72651 v 0 l 4.46089,-7.72651 v 0 l -4.46089,-7.72651 v 0 h 8.92182 v 0 l 4.46089,7.72651 v 0 h 8.92182 v 0 l 4.4609,-7.72651 v 0 h -8.92183 v 0 l -4.46089,-7.7265 v 0 h 8.92182 v 0 h 8.92183 v 0 l 4.46089,7.7265 v 0 l -4.46089,7.72651 v 0 l 4.46089,7.72651 v 0 l 4.46088,-7.72651 v 0 h 8.92184 v 0 l -4.4609,7.72651 v 0 l -4.46094,7.72651 v 0 h -8.92177 v 0 l -4.46093,-7.72651 v 0 h -8.92183 v 0 h -8.92178 v 0 l 4.46089,7.72651 v 0 h 8.92182 v 0 l -4.46093,7.72655 v 0 h -8.92178 v 0 l -4.46093,-7.72655 v 0 h -8.92177 v 0 l 4.46088,7.72655 v 0 l -4.46088,7.7265 v 0 l -4.46095,-7.7265 v 0 l -4.46088,-7.72655 v 0 l 4.46088,-7.72651 v 0 l -4.46088,-7.72651 v 0 h -8.92183 v 0 h -8.92183 v 0 l 4.46095,7.72651 v 0 h 8.92181 v 0 l -4.46093,7.72651 v 0 h -8.92183 v 0 l -4.46088,7.72655 v 0 l 4.46088,7.7265 v 0 l 4.46095,7.72651 v 0 l 4.46088,-7.72651 v 0 l -4.46088,-7.7265 v 0 h 8.92181 v 0 l 4.4609,7.7265 v 0 l -4.4609,7.72651 v 0 l 4.4609,7.72653 v 0 l 4.46088,-7.72653 v 0 h 8.92183 v 0 l -4.46088,7.72653 v 0 l -4.46095,7.72651 v 0 h -8.92178 v 0 l -4.46093,-7.72651 v 0 h -8.92183 v 0 l 4.46095,7.72651 v 0 l -4.46095,7.72651 v 0 l -4.46088,-7.72651 v 0 l -4.46089,-7.72651 v 0 l 4.46089,-7.72653 v 0 l -4.46089,-7.72651 v 0 h -8.92184 v 0 l 4.4609,7.72651 v 0 l -4.4609,7.72653 v 0 l -4.46087,-7.72653 v 0 l -4.46093,-7.72651 v 0 l 4.46093,-7.7265 v 0 h 8.92177 v 0 l 4.46094,-7.72655 v 0 l 4.46089,-7.72651 v 0 h -8.92183 v 0 l -4.4609,7.72651 v 0 l -4.46087,-7.72651 v 0 l 4.46087,-7.72651 v 0 h 8.92184 v 0 l 4.46089,-7.72651 v 0 h -8.92183 v 0 l -4.4609,-7.7265 v 0 h 8.92184 v 0 h 8.92177 v 0 l 4.46095,7.7265 v 0 h 8.92181 v 0 l 4.4609,-7.7265 v 0 l 4.46088,-7.72654 v 0 h -8.92178 v 0 l -4.46093,7.72654 v 0 l -4.46088,-7.72654 v 0 l 4.46088,-7.72651 v 0 l -4.46088,-7.72651 v 0 h -8.92183 v 0 h -8.92183 v 0 l 4.46094,7.72651 v 0 h 8.92177 v 0 l -4.46088,7.72651 v 0 h -8.92183 v 0 l -4.4609,-7.72651 v 0 h -8.9218 v 0 l 4.46093,7.72651 v 0 l -4.46093,7.72654 v 0 l -4.46089,-7.72654 v 0 l -4.46089,-7.72651 v 0 l 4.46089,-7.72651 v 0 h 8.92182 v 0 l 4.46087,-7.726504 v 0 h -8.9218 v 0 l -4.46089,-7.726508 v 0 h 8.92182 v 0 h 8.92177 v 0 l 4.46094,7.726508 v 0 h 8.92177 v 0 l 4.46095,-7.726508 v 0 h -8.92183 v 0 l -4.46089,-7.726541 v 0 h 8.92177 v 0 h 8.92183 v 0 l 4.46093,7.726541 v 0 l -4.46093,7.726508 v 0 l 4.46093,7.726504 v 0 l 4.4609,7.72651 v 0 l 4.46088,-7.72651 v 0 l -4.46088,-7.726504 v 0 h 8.92183 v 0 l 4.46088,7.726504 v 0 h 8.92182 v 0 l 4.46089,-7.726504 v 0 h -8.92182 v 0 l -4.46089,-7.726508 v 0 h 8.92182 v 0 h 8.92178 v 0 l 4.46093,7.726508 v 0 h 8.92183 v 0 l 4.46089,-7.726508 v 0 l 4.46088,-7.726541 v 0 h -8.92177 v 0 l -4.46093,7.726541 v 0 l -4.4609,-7.726541 v 0 l 4.4609,-7.726508 v 0 l -4.4609,-7.726508 v 0 h -8.92182 v 0 h -8.92182 v 0 l 4.46093,7.726508 v 0 h 8.92178 v 0 l -4.46089,7.726508 v 0 h -8.92182 v 0 l -4.46089,-7.726508 v 0 h -8.92183 v 0 l 4.46095,7.726508 v 0 l -4.46095,7.726541 v 0 l -4.46088,-7.726541 v 0 l -4.4609,-7.726508 v 0 l 4.4609,-7.726508 v 0 h 8.92183 v 0 l 4.46088,-7.726508 v 0 h -8.92183 v 0 l -4.46088,-7.72654 v 0 h 8.92183 v 0 h 8.92177 v 0 l 4.46093,7.72654 v 0 h 8.92178 v 0 l 4.46093,-7.72654 v 0 h -8.92182 v 0 l -4.46089,-7.726477 v 0 h 8.92178 v 0 h 8.92183 v 0 l 4.46093,7.726477 v 0 l -4.46093,7.72654 v 0 l 4.46093,7.726508 v 0 l 4.46089,7.726508 v 0 l 4.46088,-7.726508 v 0 l -4.46088,-7.726508 v 0 h 8.92182 v 0 l 4.4609,7.726508 v 0 l -4.4609,7.726508 v 0 l 4.4609,7.726508 v 0 l 4.46087,-7.726508 v 0 h 8.92183 v 0 l -4.46088,7.726508 v 0 l -4.46095,7.726541 v 0 h -8.92177 v 0 l -4.46094,7.726508 v 0 l 4.46094,7.726504 v 0 l 4.4609,7.72651 v 0 l 4.46087,-7.72651 v 0 l -4.46087,-7.726504 v 0 h 8.92182 v 0 l 4.46088,7.726504 v 0 l -4.46088,7.72651 v 0 l 4.46088,7.72651 v 0 l 4.46089,7.72654 v 0 l 4.46094,-7.72654 v 0 l -4.46094,-7.72651 v 0 h 8.92184 v 0 l 4.46093,7.72651 v 0 h 8.92177 v 0 l 4.46093,-7.72651 v 0 l 4.4609,-7.72651 v 0 h -8.92183 v 0 l -4.46089,7.72651 v 0 l -4.46088,-7.72651 v 0 l 4.46088,-7.726504 v 0 l -4.46088,-7.726508 v 0 h -8.92183 v 0 l 4.4609,7.726508 v 0 l -4.4609,7.726504 v 0 l -4.46094,-7.726504 v 0 l -4.46089,-7.726508 v 0 l 4.46089,-7.726541 v 0 h 8.92184 v 0 l 4.46093,-7.726508 v 0 h -8.92183 v 0 l -4.46094,-7.726508 v 0 h 8.92184 v 0 h 8.92181 v 0 l 4.46089,7.726508 v 0 l -4.46089,7.726508 v 0 l 4.46089,7.726541 v 0 l 4.46093,7.726508 v 0 l 4.4609,-7.726508 v 0 l -4.4609,-7.726541 v 0 h 8.92178 v 0 l 4.46093,7.726541 v 0 l -4.46093,7.726508 v 0 l 4.46093,7.726504 v 0 l 4.4609,-7.726504 v 0 h 8.92182 v 0 l -4.46093,7.726504 v 0 l -4.46089,7.72651 v 0 h -8.92183 v 0 l -4.46088,7.72651 v 0 l 4.46088,7.72654 v 0 l 4.46093,7.7265 v 0 l 4.4609,-7.7265 v 0 l -4.4609,-7.72654 v 0 h 8.92179 v 0 l 4.46093,7.72654 v 0 h 8.92182 v 0 l 4.4609,-7.72654 v 0 l 4.46089,-7.72651 v 0 h -8.92179 v 0 l -4.46094,7.72651 v 0 l -4.46088,-7.72651 v 0 l 4.46088,-7.72651 v 0 h 8.92184 v 0 l 4.46089,-7.726504 v 0 h -8.92179 v 0 l -4.46094,-7.726508 v 0 h 8.92184 v 0 h 8.92182 v 0 l 4.46088,7.726508 v 0 l -4.46088,7.726504 v 0 l 4.46088,7.72651 v 0 l 4.4609,-7.72651 v 0 h 8.92183 v 0 l -4.4609,7.72651 v 0 l -4.46093,7.72651 v 0 h -8.92178 v 0 l -4.46093,7.72654 v 0 l 4.46093,7.7265 v 0 l 4.46088,-7.7265 v 0 h 8.92183 v 0 l -4.46093,7.7265 v 0 l -4.4609,7.72651 v 0 h -8.92181 v 0 l -4.46089,-7.72651 v 0 h -8.92184 v 0 h -8.92181 v 0 l 4.46093,7.72651 v 0 h 8.92182 v 0 l -4.46094,7.72651 v 0 h -8.92181 v 0 l -4.46089,7.72651 v 0 l 4.46089,7.72655 v 0 l 4.46093,-7.72655 v 0 h 8.92182 v 0 l -4.46094,7.72655 v 0 l -4.46088,7.7265 v 0 h -8.92182 v 0 l -4.4609,7.72651 v 0 l 4.4609,7.72653 v 0 l 4.46089,7.72651 v 0 l 4.46093,-7.72651 v 0 l -4.46093,-7.72653 v 0 h 8.92181 v 0 l 4.46094,7.72653 v 0 l -4.46094,7.72651 v 0 l 4.46094,7.72651 v 0 l 4.4609,7.72651 v 0 l 4.46089,-7.72651 v 0 l -4.46089,-7.72651 v 0 h 8.92182 v 0 l 4.46088,7.72651 v 0 h 8.92183 v 0 l 4.4609,-7.72651 v 0 l 4.46088,-7.72651 v 0 h -8.92178 v 0 l -4.46093,7.72651 v 0 l -4.4609,-7.72651 v 0 l 4.4609,-7.72653 v 0 l -4.4609,-7.72651 v 0 h -8.92181 v 0 l 4.46093,7.72651 v 0 l -4.46093,7.72653 v 0 l -4.46089,-7.72653 v 0 l -4.4609,-7.72651 v 0 l 4.4609,-7.7265 v 0 h 8.92182 v 0 l 4.46088,-7.72655 v 0 h -8.92181 v 0 l -4.46089,-7.72651 v 0 h 8.92182 v 0 h 8.92178 v 0 l 4.46093,7.72651 v 0 l -4.46093,7.72655 v 0 l 4.46093,7.7265 v 0 l 4.4609,7.72651 v 0 l 4.46088,-7.72651 v 0 l -4.46088,-7.7265 v 0 h 8.92181 v 0 l 4.46089,7.7265 v 0 l -4.46089,7.72651 v 0 l 4.46089,7.72653 v 0 l 4.4609,-7.72653 v 0 h 8.92182 v 0 l -4.46089,7.72653 v 0 l -4.46093,7.72651 v 0 H 344.313 v 0 l -4.46093,7.72651 v 0 l 4.46093,7.72651 v 0 l 4.46089,7.72653 v 0 l 4.4609,-7.72653 v 0 l -4.4609,-7.72651 v 0 h 8.92183 v 0 l 4.46089,7.72651 v 0 l -4.46089,7.72653 v 0 l 4.46089,7.72651 v 0 l 4.46094,7.72651 v 0 l 4.46088,-7.72651 v 0 l -4.46088,-7.72651 v 0 h 8.92178 v 0 l 4.46092,7.72651 v 0 h 8.92179 v 0 l 4.46093,-7.72651 v 0 l 4.46089,-7.72653 v 0 h -8.92182 v 0 l -4.4609,7.72653 v 0 l -4.46089,-7.72653 v 0 l 4.46089,-7.72651 v 0 l -4.46089,-7.72651 v 0 h -8.92182 v 0 l 4.4609,7.72651 v 0 l -4.4609,7.72651 v 0 l -4.46088,-7.72651 v 0 l -4.46094,-7.72651 v 0 l 4.46094,-7.72651 v 0 h 8.92178 v 0 l 4.46092,-7.72653 v 0 h -8.92182 v 0 l -4.46088,-7.72651 v 0 h 8.92178 v 0 h 8.92181 v 0 l 4.4609,7.72651 v 0 l -4.4609,7.72653 v 0 l 4.4609,7.72651 v 0 l 4.46093,7.72651 v 0 l 4.46089,-7.72651 v 0 l -4.46089,-7.72651 v 0 h 8.92177 v 0 l 4.46095,7.72651 v 0 h 8.92181 v 0 l 4.4609,-7.72651 v 0 h -8.92183 v 0 l -4.46088,-7.72653 v 0 h 8.92181 v 0 h 8.92178 v 0 l 4.46094,7.72653 v 0 h 8.92178 v 0 l 4.46093,-7.72653 v 0 l 4.46089,-7.72651 v 0 H 437.992 v 0 l -4.4609,7.72651 v 0 l -4.46088,-7.72651 v 0 l 4.46088,-7.7265 v 0 h 8.92183 v 0 l 4.46089,-7.72655 v 0 l 4.46089,-7.72651 v 0 h -8.92178 v 0 l -4.46093,7.72651 v 0 l -4.4609,-7.72651 v 0 l 4.4609,-7.72651 v 0 l -4.4609,-7.72651 v 0 h -8.92182 v 0 h -8.92178 v 0 l 4.4609,7.72651 v 0 h 8.92182 v 0 l -4.46094,7.72651 v 0 h -8.92178 v 0 l -4.46093,7.72651 v 0 l 4.46093,7.72655 v 0 l 4.4609,-7.72655 v 0 h 8.92182 v 0 l -4.46094,7.72655 v 0 l -4.46088,7.7265 v 0 h -8.92183 v 0 l -4.46088,-7.7265 v 0 h -8.92183 v 0 l 4.46088,7.7265 v 0 l -4.46088,7.72651 v 0 l -4.46089,-7.72651 v 0 l -4.46093,-7.7265 v 0 l 4.46093,-7.72655 v 0 h 8.92177 v 0 l 4.46095,-7.72651 v 0 l 4.46088,-7.72651 v 0 h -8.92183 v 0 l -4.46088,7.72651 v 0 l -4.46089,-7.72651 v 0 l 4.46089,-7.72651 v 0 l -4.46089,-7.7265 v 0 h -8.92183 v 0 l 4.4609,7.7265 v 0 l -4.4609,7.72651 v 0 l -4.46089,-7.72651 v 0 l -4.46092,-7.7265 v 0 l 4.46092,-7.72654 v 0 l -4.46092,-7.72651 v 0 h -8.92178 v 0 h -8.92183 v 0 l 4.46089,7.72651 v 0 h 8.92182 v 0 l -4.46088,7.72654 v 0 h -8.92183 v 0 l -4.46093,7.7265 v 0 l 4.46093,7.72651 v 0 l 4.46089,7.72651 v 0 l 4.46094,-7.72651 v 0 l -4.46094,-7.72651 v 0 h 8.92182 v 0 l 4.4609,7.72651 v 0 l -4.4609,7.72651 v 0 l 4.4609,7.72651 v 0 l 4.46092,-7.72651 v 0 h 8.92179 v 0 l -4.4609,7.72651 v 0 l -4.46089,7.72655 v 0 h -8.92182 v 0 l -4.46088,-7.72655 v 0 h -8.92183 v 0 l 4.46089,7.72655 v 0 l -4.46089,7.7265 v 0 l -4.46093,-7.7265 v 0 l -4.4609,-7.72655 v 0 l 4.4609,-7.72651 v 0 l -4.4609,-7.72651 v 0 h -8.92182 v 0 l 4.46093,7.72651 v 0 l -4.46093,7.72651 v 0 l -4.46088,-7.72651 v 0 l -4.4609,-7.72651 v 0 l 4.4609,-7.72651 v 0 h 8.92181 v 0 l 4.46089,-7.7265 v 0 l 4.4609,-7.72654 v 0 H 344.313 v 0 l -4.46093,7.72654 v 0 l -4.46088,-7.72654 v 0 l 4.46088,-7.72651 v 0 h 8.92182 v 0 l 4.4609,-7.72651 v 0 H 344.313 v 0 l -4.46093,-7.726504 v 0 h 8.92182 v 0 h 8.92183 v 0 l 4.46089,7.726504 v 0 h 8.92182 v 0 l 4.4609,-7.726504 v 0 l 4.46092,-7.726508 v 0 h -8.92182 v 0 l -4.46088,7.726508 v 0 l -4.46094,-7.726508 v 0 l 4.46094,-7.726541 v 0 l -4.46094,-7.726508 v 0 h -8.92182 v 0 H 344.313 v 0 l 4.46089,7.726508 v 0 h 8.92183 v 0 l -4.46093,7.726541 v 0 H 344.313 v 0 l -4.46093,-7.726541 v 0 h -8.92178 v 0 l 4.4609,7.726541 v 0 l -4.4609,7.726508 v 0 l -4.46093,-7.726508 v 0 l -4.4609,-7.726541 v 0 l 4.4609,-7.726508 v 0 h 8.92183 v 0 l 4.46088,-7.726508 v 0 h -8.92178 v 0 l -4.46093,-7.726508 v 0 h 8.92183 v 0 h 8.92181 v 0 l 4.46089,7.726508 v 0 h 8.92183 v 0 l 4.46089,-7.726508 v 0 h -8.92182 v 0 l -4.4609,-7.72654 v 0 h 8.92183 v 0 h 8.92183 v 0 l 4.46088,7.72654 v 0 l -4.46088,7.726508 v 0 l 4.46088,7.726508 v 0 l 4.4609,7.726508 v 0 l 4.46092,-7.726508 v 0 l -4.46092,-7.726508 v 0 h 8.92181 v 0 l 4.4609,7.726508 v 0 l -4.4609,7.726508 v 0 l 4.4609,7.726541 v 0 l 4.46093,-7.726541 v 0 h 8.92177 v 0 l -4.46088,7.726541 v 0 l -4.46089,7.726508 v 0 h -8.92183 v 0 l -4.46089,7.726504 v 0 l 4.46089,7.72651 v 0 l 4.4609,7.72651 v 0 l 4.46093,-7.72651 v 0 l -4.46093,-7.72651 v 0 h 8.92182 v 0 l 4.46088,7.72651 v 0 l -4.46088,7.72651 v 0 l 4.46088,7.72654 v 0 l 4.46095,7.7265 v 0 l 4.46088,-7.7265 v 0 l -4.46088,-7.72654 v 0 h 8.92181 v 0 l 4.4609,7.72654 v 0 h 8.92182 v 0 l 4.46088,-7.72654 v 0 l 4.4609,-7.72651 v 0 h -8.92178 v 0 l -4.46094,7.72651 v 0 l -4.46088,-7.72651 v 0 l 4.46088,-7.72651 v 0 l -4.46088,-7.726504 v 0 h -8.92183 v 0 l 4.46093,7.726504 v 0 l -4.46093,7.72651 v 0 l -4.46088,-7.72651 v 0 l -4.46095,-7.726504 v 0 l 4.46095,-7.726508 v 0 h 8.92181 v 0 l 4.4609,-7.726541 v 0 h -8.92183 v 0 l -4.46088,-7.726508 v 0 h 8.92181 v 0 h 8.92178 v 0 l 4.46094,7.726508 v 0 l -4.46094,7.726541 v 0 l 4.46094,7.726508 v 0 l 4.46088,7.726504 v 0 l 4.4609,-7.726504 v 0 l -4.4609,-7.726508 v 0 h 8.92183 v 0 l 4.46089,7.726508"
       id="path1"
       style="vector-effect:non-scaling-stroke;fill:none;stroke:#000000;stroke-width:0.426027;stroke-opacity:1" />
  </g>
</svg>
