<?xml version="1.0" encoding="UTF-8" standalone="no"?>
<!-- Created with Inkscape (http://www.inkscape.org/) -->

<svg
   width="546mm"
   height="546mm"
   viewBox="0 0 546 546"
   version="1.1"
   id="svg1"
   inkscape:version="1.3.2 (091e20e, 2023-11-25, custom)"
   sodipodi:docname="hilbert_d5.svg"
   xmlns:inkscape="http://www.inkscape.org/namespaces/inkscape"
   xmlns:sodipodi="http://sodipodi.sourceforge.net/DTD/sodipodi-0.dtd"
   xmlns="http://www.w3.org/2000/svg"
   xmlns:svg="http://www.w3.org/2000/svg">
  <sodipodi:namedview
     id="namedview1"
     pagecolor="#ffffff"
     bordercolor="#000000"
     borderopacity="0.25"
     inkscape:showpageshadow="2"
     inkscape:pageopacity="0.0"
     inkscape:pagecheckerboard="0"
     inkscape:deskcolor="#d1d1d1"
     inkscape:document-units="mm"
     inkscape:zoom="0.41"
     inkscape:cx="774.39024"
     inkscape:cy="854.87805"
     inkscape:window-width="1920"
     inkscape:window-height="1001"
     inkscape:window-x="-9"
     inkscape:window-y="-9"
     inkscape:window-maximized="1"
     inkscape:current-layer="layer1" />
  <defs
     id="defs1" />
  <g
     inkscape:label="Layer 1"
     inkscape:groupmode="layer"
     id="layer1">
    <path
       inkscape:connector-curvature="0"
       id="path4427"
       d="m 140.34999,390.68166 v -8.51653 h 8.51653 v 8.51653 h 17.03307 v -8.51653 h -8.51653 v -8.51653 h 8.51653 v -8.51654 h -17.03307 v 8.51654 h -8.51653 v -17.03307 h 8.51653 V 348.099 h -8.51653 v -17.03307 h 8.51653 v 8.51652 h 8.51654 v -8.51652 h 8.51653 V 348.099 h -8.51653 v 8.51653 h 25.54961 V 348.099 h -8.51655 v -17.03307 h 8.51655 v 8.51652 h 8.51652 v -8.51652 h 8.51653 V 348.099 h -8.51653 v 8.51653 h 8.51653 v 17.03307 h -8.51653 v -8.51654 h -17.03307 v 8.51654 h 8.51655 v 8.51653 h -8.51655 v 8.51653 h 17.03307 v -8.51653 h 8.51653 v 8.51653 h 17.03308 v -8.51653 h -8.51653 v -17.03307 h 8.51653 v 8.51654 h 8.51652 v -8.51654 h 8.51655 v 17.03307 h -8.51655 v 8.51653 h 17.03308 v -8.51653 h 8.51653 v 8.51653 H 268.098 v -8.51653 h -8.51653 v -8.51653 h 8.51653 v -8.51654 h -17.03307 v 8.51654 H 242.5484 V 348.099 h 8.51653 v 8.51653 H 268.098 V 348.099 h -8.51653 v -8.51655 h 8.51653 v -8.51652 h -17.03307 v 8.51652 h -8.51653 v -8.51652 h -17.03308 v 8.51652 h 8.51655 v 17.03308 h -8.51655 V 348.099 h -8.51652 v 8.51653 h -8.51653 v -17.03308 h 8.51653 v -8.51652 h -8.51653 v -8.51653 h 8.51653 v -8.51655 h -8.51653 V 296.9998 h 8.51653 v 8.51652 h 8.51652 v -8.51652 h 8.51655 v 17.03305 h -8.51655 v 8.51655 h 17.03308 v -8.51655 h 8.51653 v 8.51655 H 268.098 v -8.51655 h -8.51653 v -8.51653 h 8.51653 v -8.51652 h -17.03307 v 8.51652 h -8.51653 v -25.5496 h 8.51653 v 8.51653 H 268.098 v -8.51653 h -8.51653 v -8.51653 h 8.51653 v -8.51654 h -17.03307 v 8.51654 h -8.51653 v -8.51654 h -17.03308 v 8.51654 h 8.51655 v 17.03306 h -8.51655 v -8.51653 h -8.51652 v 8.51653 h -8.51653 v -17.03306 h 8.51653 v -8.51654 h -17.03308 v 8.51654 h -8.51653 v -8.51654 h -17.03307 v 8.51654 h 8.51655 v 8.51653 h -8.51655 v 8.51653 h 17.03307 v -8.51653 h 8.51653 v 17.03308 h -8.51653 v 8.51652 h 8.51653 v 17.03308 h -8.51653 v -8.51655 h -8.51652 v 8.51655 h -8.51655 v -17.03308 h 8.51655 v -8.51652 h -25.54961 v 8.51652 h 8.51653 v 17.03308 h -8.51653 v -8.51655 h -8.51654 v 8.51655 h -8.51653 v -17.03308 h 8.51653 v -8.51652 h -8.51653 v -17.03308 h 8.51653 v 8.51653 h 17.03307 v -8.51653 h -8.51653 v -8.51653 h 8.51653 v -8.51654 h -17.03307 v 8.51654 h -8.51653 v -17.03307 h 8.51653 v -8.51653 h -8.51653 v -17.03307 h 8.51653 v 8.51653 h 8.51654 v -8.51653 h 8.51653 v 17.03307 h -8.51653 v 8.51653 h 17.03306 v -8.51653 h 8.51655 v 8.51653 h 17.03305 v -8.51653 h -8.51653 v -8.51654 h 8.51653 v -8.51653 h -17.03305 v 8.51653 h -8.51655 v -25.54961 h 8.51655 v 8.51655 h 17.03305 v -8.51655 h -8.51653 v -8.51652 h 8.51653 v -8.51653 h -17.03305 v 8.51653 h -8.51655 v -8.51653 h -17.03306 v 8.51653 h 8.51653 v 17.03307 h -8.51653 v -8.51655 h -8.51654 v 8.51655 h -8.51653 v -17.03307 h 8.51653 v -8.51653 h -8.51653 v -17.03308 h 8.51653 v 8.51653 h 17.03307 v -8.51653 h -8.51653 v -8.51652 h 8.51653 v -8.51655 h -17.03307 v 8.51655 h -8.51653 v -17.03308 h 8.51653 v -8.51653 h -8.51653 v -17.03307 h 8.51653 v 8.51653 h 8.51654 v -8.51653 h 8.51653 v 17.03307 h -8.51653 v 8.51653 h 25.54961 v -8.51653 h -8.51655 v -17.03307 h 8.51655 v 8.51653 h 8.51652 v -8.51653 h 8.51653 v 17.03307 h -8.51653 v 8.51653 h 8.51653 v 17.03308 h -8.51653 v -8.51655 h -17.03307 v 8.51655 h 8.51655 v 8.51652 h -8.51655 v 8.51653 h 17.03307 v -8.51653 h 8.51653 v 8.51653 h 8.51655 v -8.51653 h 8.51653 v 8.51653 h 17.03307 v -8.51653 h -8.51655 v -8.51652 h 8.51655 v -8.51655 H 216.9988 v 8.51655 h -8.51653 v -17.03308 h 8.51653 v -8.51653 h -8.51653 v -17.03307 h 8.51653 v 8.51653 h 8.51652 v -8.51653 h 8.51655 v 17.03307 h -8.51655 v 8.51653 h 25.54961 v -8.51653 h -8.51653 v -17.03307 h 8.51653 v 8.51653 h 8.51654 v -8.51653 h 8.51653 v 17.03307 h -8.51653 v 8.51653 h 8.51653 v 17.03308 h -8.51653 v -8.51655 H 242.5484 v 8.51655 h 8.51653 v 8.51652 h -8.51653 v 8.51653 h 17.03307 v -8.51653 h 8.51653 v 17.03308 h -8.51653 v 8.51653 h 8.51653 v 17.03307 h -8.51653 v -8.51655 h -8.51654 v 8.51655 h -8.51653 v -17.03307 h 8.51653 v -8.51653 h -17.03306 v 8.51653 h -8.51655 v -8.51653 h -17.03305 v 8.51653 h 8.51653 v 8.51652 h -8.51653 v 8.51655 h 17.03305 v -8.51655 h 8.51655 v 25.54961 h -8.51655 v -8.51653 h -17.03305 v 8.51653 h 8.51653 v 8.51654 h -8.51653 v 8.51653 h 17.03305 v -8.51653 h 8.51655 v 8.51653 h 17.03306 v -8.51653 h -8.51653 v -17.03307 h 8.51653 v 8.51653 h 8.51654 v -8.51653 h 8.51653 v 17.03307 h -8.51653 v 8.51653 h 25.5496 v -8.51653 h -8.51654 v -17.03307 h 8.51654 v 8.51653 h 8.51653 v -8.51653 h 8.51653 v 17.03307 h -8.51653 v 8.51653 h 17.03308 v -8.51653 h 8.51652 v 8.51653 h 17.03306 v -8.51653 h -8.51653 v -8.51654 h 8.51653 v -8.51653 H 319.1972 v 8.51653 h -8.51652 v -25.54961 h 8.51652 v 8.51655 h 17.03306 v -8.51655 h -8.51653 v -8.51652 h 8.51653 v -8.51653 H 319.1972 v 8.51653 h -8.51652 v -8.51653 H 293.6476 v 8.51653 h 8.51653 v 17.03307 h -8.51653 v -8.51655 h -8.51653 v 8.51655 h -8.51654 v -17.03307 h 8.51654 v -8.51653 h -8.51654 v -17.03308 h 8.51654 v 8.51653 h 17.03306 v -8.51653 h -8.51653 v -8.51652 h 8.51653 v -8.51655 h -17.03306 v 8.51655 h -8.51654 v -17.03308 h 8.51654 v -8.51653 h -8.51654 v -17.03307 h 8.51654 v 8.51653 h 8.51653 v -8.51653 h 8.51653 v 17.03307 h -8.51653 v 8.51653 h 25.5496 v -8.51653 h -8.51652 v -17.03307 h 8.51652 v 8.51653 h 8.51653 v -8.51653 h 8.51653 v 17.03307 h -8.51653 v 8.51653 h 8.51653 v 17.03308 h -8.51653 v -8.51655 h -17.03305 v 8.51655 h 8.51652 v 8.51652 h -8.51652 v 8.51653 h 17.03305 v -8.51653 h 8.51653 v 8.51653 h 8.51655 v -8.51653 h 8.51652 v 8.51653 h 17.03308 v -8.51653 h -8.51655 v -8.51652 h 8.51655 v -8.51655 h -17.03308 v 8.51655 h -8.51652 v -17.03308 h 8.51652 v -8.51653 h -8.51652 v -17.03307 h 8.51652 v 8.51653 h 8.51653 v -8.51653 h 8.51655 v 17.03307 h -8.51655 v 8.51653 h 25.5496 v -8.51653 h -8.51652 v -17.03307 h 8.51652 v 8.51653 h 8.51655 v -8.51653 h 8.51653 v 17.03307 h -8.51653 v 8.51653 h 8.51653 v 17.03308 h -8.51653 v -8.51655 h -17.03307 v 8.51655 h 8.51652 v 8.51652 h -8.51652 v 8.51653 h 17.03307 v -8.51653 h 8.51653 v 17.03308 h -8.51653 v 8.51653 h 8.51653 v 17.03307 h -8.51653 v -8.51655 h -8.51655 v 8.51655 h -8.51652 v -17.03307 h 8.51652 v -8.51653 h -17.03305 v 8.51653 h -8.51655 v -8.51653 h -17.03305 v 8.51653 h 8.51652 v 8.51652 h -8.51652 v 8.51655 h 17.03305 v -8.51655 h 8.51655 v 25.54961 h -8.51655 v -8.51653 h -17.03305 v 8.51653 h 8.51652 v 8.51654 h -8.51652 v 8.51653 h 17.03305 v -8.51653 h 8.51655 v 8.51653 h 17.03305 v -8.51653 h -8.51652 v -17.03307 h 8.51652 v 8.51653 h 8.51655 v -8.51653 h 8.51653 v 17.03307 h -8.51653 v 8.51653 h 8.51653 v 17.03307 h -8.51653 v -8.51654 h -17.03307 v 8.51654 h 8.51652 v 8.51653 h -8.51652 v 8.51653 h 17.03307 v -8.51653 h 8.51653 v 17.03308 h -8.51653 v 8.51652 h 8.51653 v 17.03308 h -8.51653 v -8.51655 h -8.51655 v 8.51655 h -8.51652 v -17.03308 h 8.51652 v -8.51652 h -25.5496 v 8.51652 h 8.51655 v 17.03308 h -8.51655 v -8.51655 h -8.51653 v 8.51655 h -8.51652 v -17.03308 h 8.51652 v -8.51652 h -8.51652 v -17.03308 h 8.51652 v 8.51653 h 17.03308 v -8.51653 h -8.51655 v -8.51653 h 8.51655 v -8.51654 h -17.03308 v 8.51654 h -8.51652 v -8.51654 h -17.03308 v 8.51654 h 8.51653 v 17.03306 h -8.51653 v -8.51653 h -8.51653 v 8.51653 h -8.51652 v -17.03306 h 8.51652 v -8.51654 h -17.03307 v 8.51654 h -8.51653 v -8.51654 h -17.03307 v 8.51654 h 8.51654 v 8.51653 h -8.51654 v 8.51653 h 17.03307 v -8.51653 h 8.51653 v 25.5496 h -8.51653 v -8.51652 h -17.03307 v 8.51652 h 8.51654 v 8.51653 h -8.51654 v 8.51655 h 17.03307 v -8.51655 h 8.51653 v 8.51655 h 17.03307 v -8.51655 h -8.51652 V 296.9998 h 8.51652 v 8.51652 h 8.51653 v -8.51652 h 8.51653 v 17.03305 h -8.51653 v 8.51655 h 8.51653 v 8.51653 h -8.51653 v 8.51652 h 8.51653 v 17.03308 h -8.51653 V 348.099 h -8.51653 v 8.51653 h -8.51652 v -17.03308 h 8.51652 v -8.51652 h -17.03307 v 8.51652 h -8.51653 v -8.51652 h -17.03307 v 8.51652 h 8.51654 v 8.51655 h -8.51654 v 8.51653 H 293.6476 V 348.099 h 8.51653 v 25.5496 h -8.51653 v -8.51654 h -17.03307 v 8.51654 h 8.51654 v 8.51653 h -8.51654 v 8.51653 h 17.03307 v -8.51653 h 8.51653 v 8.51653 h 17.03307 v -8.51653 h -8.51652 v -17.03307 h 8.51652 v 8.51654 h 8.51653 v -8.51654 h 8.51653 v 17.03307 h -8.51653 v 8.51653 h 17.03308 v -8.51653 h 8.51652 v 8.51653 h 17.03308 v -8.51653 h -8.51655 v -8.51653 h 8.51655 v -8.51654 h -17.03308 v 8.51654 h -8.51652 v -17.03307 h 8.51652 V 348.099 h -8.51652 v -17.03307 h 8.51652 v 8.51652 h 8.51653 v -8.51652 h 8.51655 V 348.099 h -8.51655 v 8.51653 h 25.5496 V 348.099 h -8.51652 v -17.03307 h 8.51652 v 8.51652 h 8.51655 v -8.51652 h 8.51653 V 348.099 h -8.51653 v 8.51653 h 8.51653 v 17.03307 h -8.51653 v -8.51654 h -17.03307 v 8.51654 h 8.51652 v 8.51653 h -8.51652 v 8.51653 h 17.03307 v -8.51653 h 8.51653 v 8.51653"
       style="display:inline;fill:none;stroke:#ff0000;stroke-width:1.59685;stroke-linecap:round;stroke-miterlimit:4;stroke-dasharray:none" />
  </g>
</svg>
