<?xml version="1.0" encoding="UTF-8" standalone="no"?>
<!-- Created with Inkscape (http://www.inkscape.org/) -->

<svg
   width="546mm"
   height="546mm"
   viewBox="0 0 546 546"
   version="1.1"
   id="svg1"
   inkscape:version="1.3.2 (091e20e, 2023-11-25, custom)"
   sodipodi:docname="square_fractal.svg"
   xmlns:inkscape="http://www.inkscape.org/namespaces/inkscape"
   xmlns:sodipodi="http://sodipodi.sourceforge.net/DTD/sodipodi-0.dtd"
   xmlns="http://www.w3.org/2000/svg"
   xmlns:svg="http://www.w3.org/2000/svg">
  <sodipodi:namedview
     id="namedview1"
     pagecolor="#ffffff"
     bordercolor="#000000"
     borderopacity="0.25"
     inkscape:showpageshadow="2"
     inkscape:pageopacity="0.0"
     inkscape:pagecheckerboard="0"
     inkscape:deskcolor="#d1d1d1"
     inkscape:document-units="mm"
     inkscape:zoom="0.41"
     inkscape:cx="774.39024"
     inkscape:cy="854.87805"
     inkscape:window-width="1920"
     inkscape:window-height="1001"
     inkscape:window-x="-9"
     inkscape:window-y="-9"
     inkscape:window-maximized="1"
     inkscape:current-layer="svg1" />
  <defs
     id="defs1" />
   <g
     inkscape:label="Layer 1"
     inkscape:groupmode="layer"
     id="layer1">
      <path
         d="m 345.23629,54.562246 h 17.89699 v 0 l 5.53046,17.02105 v 0 l -14.47895,10.51959 v 0 l -14.47898,-10.51959 v 0 l 5.53048,-17.02105"
         id="path1"
         style="vector-effect:non-scaling-stroke;stroke-width:0.264583;stroke:#000000;stroke-opacity:1;fill:none" />
      <path
         d="m 354.18479,82.102886 -5.53048,17.02105 v 0 h -17.897 v 0 l -5.53048,-17.02105 v 0 h -17.897 v 0 l -5.53045,17.02105 v 0 l 14.47895,10.519594 v 0 l 14.47898,-10.519594 v 0 l 14.47898,10.519594 v 0 l -5.53048,17.02105 v 0 h -17.897 v 0 l -5.53048,17.02106 v 0 l 14.47898,10.51959 v 0 l -5.53048,17.02105 v 0 h -17.897 v 0 l -5.53045,-17.02105 v 0 h -17.897 v 0 l -5.53048,17.02105 v 0 l 14.47898,10.51959 v 0 l -5.53048,17.02104 v 0 h -17.897 v 0 l -5.53048,-17.02104 v 0 l 14.47898,-10.51959 v 0 l -5.53048,-17.02105 v 0 h -17.897 v 0 l -5.53045,17.02105 v 0 h -17.897 v 0 l -5.53048,-17.02105 v 0 h -17.897 v 0 l -5.53048,-17.02106 v 0 l 14.47898,-10.51959 v 0 l 14.47898,10.51959 v 0 l 14.47895,-10.51959 v 0 l -5.53045,-17.02105 v 0 h -17.897 v 0 l -5.53048,17.02105 v 0 h -17.897 v 0 l -5.53048,-17.02105 v 0 l 14.47898,-10.519594 v 0 l -5.53048,-17.02105 v 0 h -17.89697 v 0 l -5.53048,17.02105 v 0 l 14.47895,10.519594 v 0 l -5.53045,17.02105 v 0 h -17.897 v 0 l -5.53048,-17.02105 v 0 h -17.897 v 0 l -5.53045,17.02105 v 0 l 14.47895,10.51959 v 0 l 14.47898,-10.51959 v 0 l 14.47898,10.51959 v 0 l -5.53048,17.02106 v 0 h -17.897 v 0 l -5.53048,17.02105 v 0 l 14.47898,10.51959 v 0 l 14.47898,-10.51959 v 0 l -5.53048,-17.02105 v 0 l 14.47895,-10.51959 v 0 l 14.47898,10.51959 v 0 l -5.53048,17.02105 v 0 l 14.47898,10.51959 v 0 l 14.47898,-10.51959 v 0 l 14.47895,10.51959 v 0 l -5.53045,17.02104 v 0 h -17.897 v 0 l -5.53048,17.02106 v 0 l 14.47898,10.51958 v 0 l 14.47895,-10.51958 v 0 l 14.47898,10.51958 v 0 l -5.53048,17.02106 v 0 h -17.897 v 0 l -5.53045,-17.02106 v 0 h -17.897 v 0 l -5.53048,17.02106 v 0 l 14.47898,10.51959 v 0 l -5.53048,17.02104 v 0 h -17.897 v 0 l -5.53048,17.02106 v 0 h -17.89697 v 0 l -5.53048,-17.02106 v 0 l 14.47898,-10.51958 v 0 l -5.53048,-17.02105 v 0 h -17.897 v 0 l -5.53048,17.02105 v 0 l 14.47898,10.51958 v 0 l -5.53048,17.02106 v 0 h -17.897 v 0 l -5.53045,-17.02106 v 0 h -17.897 v 0 l -5.53048,17.02106 v 0 l 14.47898,10.51959 v 0 l 14.47895,-10.51959 v 0 l 14.47898,10.51959 v 0 l -5.53048,17.02104 v 0 h -17.897 v 0 l -5.53045,17.02105 v 0 l 14.47895,10.51959 v 0 l 14.47898,-10.51959 v 0 l -5.53048,-17.02105 v 0 l 14.47898,-10.51959 v 0 l 14.47898,10.51959 v 0 l -5.53048,17.02105 v 0 l 14.47895,10.51959 v 0 l 14.47898,-10.51959 v 0 l -5.53048,-17.02105 v 0 h -17.89697 v 0 l -5.53048,-17.02104 v 0 l 14.47895,-10.51959 v 0 l 14.47898,10.51959 v 0 l 14.47898,-10.51959 v 0 l -5.53048,-17.02106 v 0 l 14.47898,-10.51958 v 0 l 14.47895,10.51958 v 0 l -5.53045,17.02106 v 0 l 14.47895,10.51959 v 0 L 269.4234,287.8903 v 0 l -5.53048,-17.02106 v 0 l 14.47898,-10.51958 v 0 l 14.47898,10.51958 v 0 l -5.53048,17.02106 v 0 h -17.897 v 0 l -5.53048,17.02104 v 0 l 14.47898,10.51959 v 0 l 14.47898,-10.51959 v 0 l 14.47895,10.51959 v 0 l -5.53045,17.02105 v 0 l 14.47895,10.51959 v 0 l -5.53048,17.02107 v 0 h -17.89697 v 0 l -5.53048,-17.02107 v 0 h -17.897 v 0 l -5.53048,17.02107 v 0 l 14.47898,10.5196 v 0 l 14.47898,-10.5196 v 0 l 14.47895,10.5196 v 0 l -5.53045,17.02104 v 0 h -17.897 v 0 l -5.53048,17.02104 v 0 l 14.47898,10.51957 v 0 l 14.47895,-10.51957 v 0 l -5.53045,-17.02104 v 0 l 14.47895,-10.5196 v 0 l 14.47898,10.5196 v 0 l -5.53048,17.02104 v 0 l 14.47898,10.51957 v 0 l 14.47898,-10.51957 v 0 l -5.53048,-17.02104 v 0 h -17.897 v 0 l -5.53048,-17.02104 v 0 l 14.47898,-10.5196 v 0 l 14.47898,10.5196 v 0 l 14.47895,-10.5196 v 0 l -5.53046,-17.02107 v 0 h -17.89699 v 0 l -5.53048,17.02107 v 0 h -17.897 v 0 l -5.53048,-17.02107 v 0 l 14.47898,-10.51959 v 0 l -5.53048,-17.02105 v 0 h -17.897 v 0 l -5.53045,-17.02104 v 0 l 14.47895,-10.51959 v 0 l 14.47898,10.51959 v 0 l 14.47898,-10.51959 v 0 l -5.53048,-17.02106 v 0 h -17.897 v 0 l -5.53048,-17.02104 v 0 l 14.47898,-10.51959 v 0 l 14.47898,10.51959 v 0 l -5.53048,17.02104 v 0 l 14.47898,10.51958 v 0 l 14.47895,-10.51958 v 0 l -5.53046,-17.02104 v 0 l 14.47896,-10.51959 v 0 l 14.47898,10.51959 v 0 l 14.47897,-10.51959 v 0 l 14.47896,10.51959 v 0 l -5.53046,17.02104 v 0 H 397.6217 v 0 l -5.53048,17.02106 v 0 l 14.47897,10.51959 v 0 l 14.47896,-10.51959 v 0 l -5.53046,-17.02106 v 0 l 14.47896,-10.51958 v 0 l 14.47897,10.51958 v 0 l -5.53047,17.02106 v 0 l 14.47897,10.51959 v 0 L 467.9041,287.8903 v 0 l -5.53048,-17.02106 v 0 h -17.897 v 0 l -5.53047,-17.02104 v 0 l 14.47897,-10.51959 v 0 l 14.47898,10.51959 v 0 l 14.47896,-10.51959 v 0 l -5.53046,-17.02106 v 0 h -17.897 v 0 l -5.53048,17.02106 v 0 h -17.89699 v 0 l -5.53048,-17.02106 v 0 l 14.47897,-10.51958 v 0 l -5.53047,-17.02106 v 0 h -17.897 v 0 l -5.53046,17.02106 v 0 l 14.47896,10.51958 v 0 l -5.53046,17.02106 v 0 h -17.897 v 0 l -5.53048,-17.02106 v 0 h -17.89699 v 0 l -5.53048,17.02106 v 0 h -17.897 v 0 l -5.53045,-17.02106 v 0 l 14.47895,-10.51958 v 0 l -5.53046,-17.02106 v 0 h -17.89699 v 0 l -5.53048,17.02106 v 0 h -17.897 v 0 l -5.53048,-17.02106 v 0 l 14.47898,-10.51959 v 0 l 14.47898,10.51959 v 0 l 14.47895,-10.51959 v 0 l -5.53045,-17.02104 v 0 h -17.897 v 0 l -5.53048,-17.02105 v 0 l 14.47898,-10.51959 v 0 l -5.53048,-17.02106 v 0 L 354.18479,116.145 v 0 l 14.47895,10.51958 v 0 l -5.53046,17.02106 v 0 l 14.47896,10.51959 v 0 l 14.47898,-10.51959 v 0 l -5.53048,-17.02106 v 0 h -17.897 v 0 l -5.53046,-17.02105 v 0 l 14.47896,-10.519594 v 0 l 14.47898,10.519594 v 0 l 14.47897,-10.519594 v 0 l -5.53048,-17.02105 v 0 h -17.89699 v 0 l -5.53048,17.02105 v 0 h -17.897 v 0 l -5.53045,-17.02105"
         id="path2"
         style="vector-effect:non-scaling-stroke;stroke-width:0.264583;stroke:#000000;stroke-opacity:1;fill:none" />
   </g>
</svg>
