<?xml version="1.0" standalone="no"?>
<!DOCTYPE svg PUBLIC "-//W3C//DTD SVG 20010904//EN"
 "http://www.w3.org/TR/2001/REC-SVG-20010904/DTD/svg10.dtd">
<svg version="1.0" xmlns="http://www.w3.org/2000/svg"
 width="500.000000pt" height="500.000000pt" viewBox="0 0 500.000000 500.000000"
 preserveAspectRatio="xMidYMid meet">
<metadata>
Created by potrace 1.10, written by Peter Selinger 2001-2011
</metadata>
<g transform="translate(0.000000,500.000000) scale(0.100000,-0.100000)"
fill="#000000" stroke="none">
<path d="M2642 4267 c-576 -222 -601 -233 -582 -249 19 -15 20 -28 20 -251 l0
-235 -77 -30 c-43 -16 -142 -53 -220 -82 l-143 -53 0 -43 c0 -41 1 -42 50 -60
l50 -18 -2 -240 -3 -239 -97 -41 -98 -41 0 -56 c0 -50 3 -57 32 -79 17 -12 38
-23 47 -24 9 -1 40 -16 69 -35 l52 -33 0 -227 c0 -210 1 -229 19 -245 26 -23
72 -35 99 -25 l23 9 -3 200 c-2 110 -1 199 2 198 5 -3 304 -199 306 -202 3 -2
74 -561 74 -578 0 -11 -19 -18 -70 -27 l-70 -13 -26 31 c-59 71 -254 156 -427
187 -103 18 -357 41 -547 50 -320 14 -588 -46 -746 -168 l-55 -43 6 -48 c9
-76 51 -196 91 -262 28 -47 50 -69 102 -102 73 -45 133 -64 288 -88 127 -20
184 -22 369 -12 l150 8 83 -49 c199 -121 387 -169 547 -142 41 7 75 17 75 22
0 5 -16 6 -37 1 -21 -4 -87 -8 -148 -7 -97 0 -121 4 -205 33 -89 30 -250 108
-277 134 -9 9 8 12 70 13 104 1 195 18 327 61 97 32 110 39 168 96 63 62 131
155 170 233 19 37 25 42 69 48 26 3 59 9 73 12 l26 5 22 -178 c23 -185 31
-207 72 -196 22 6 26 18 10 28 -5 3 -9 19 -7 35 1 16 -2 30 -8 32 -5 2 -11
-12 -13 -29 -7 -68 -19 -29 -36 110 -9 78 -19 156 -22 172 -5 30 -4 31 53 49
84 26 149 61 198 107 46 43 105 126 105 149 0 8 -14 -8 -31 -36 -62 -99 -136
-157 -255 -198 l-69 -25 -7 22 c-4 12 -19 119 -33 237 -15 118 -30 237 -35
263 -5 34 -4 47 4 44 6 -3 104 -66 218 -140 229 -150 223 -144 223 -255 0 -34
3 -62 7 -62 11 0 14 150 3 162 -6 7 -2 6 12 -1 28 -14 44 -37 19 -28 -11 4
-15 3 -11 -4 4 -5 14 -9 24 -7 9 1 56 -22 103 -52 64 -41 87 -61 88 -76 0 -17
8 -23 38 -29 20 -4 56 -19 79 -33 l43 -27 2 -210 3 -210 40 -19 c29 -13 46
-16 65 -9 l25 8 3 198 c1 120 6 197 12 197 6 0 10 23 10 50 0 28 -5 50 -11 50
-6 0 -9 19 -7 47 l3 46 499 214 c275 117 502 211 505 208 5 -6 70 -213 71
-227 0 -3 -19 -17 -43 -31 -48 -29 -89 -81 -111 -144 -20 -56 -31 -176 -18
-198 7 -13 11 6 14 73 5 118 39 188 113 240 l50 34 14 -34 c9 -19 17 -76 19
-138 4 -108 11 -130 43 -130 13 0 22 -14 34 -52 20 -69 20 -71 -16 -64 -57 11
-97 44 -125 103 -35 71 -44 52 -11 -21 30 -64 61 -87 126 -94 45 -4 48 -6 63
-48 13 -37 13 -45 2 -55 -8 -6 -14 -17 -14 -23 0 -6 7 -3 14 7 13 17 16 13 31
-40 9 -32 18 -64 20 -70 5 -15 51 -18 59 -4 3 5 -1 14 -9 21 -11 9 -12 17 -4
32 12 22 4 52 -11 43 -5 -3 -10 -19 -10 -36 0 -44 -14 -35 -32 21 l-16 50 44
0 c25 0 44 5 44 11 0 7 -17 10 -45 7 l-46 -3 -24 80 c-39 130 -40 135 -19 135
9 0 25 7 35 16 16 14 17 31 12 161 l-6 146 47 -7 c34 -5 46 -4 41 3 -3 6 -18
11 -33 11 -46 0 -50 9 -54 126 l-3 110 59 -37 60 -38 27 22 c18 14 28 32 28
49 1 14 3 32 6 40 3 8 -18 26 -55 48 -33 19 -60 38 -60 41 0 3 28 17 63 31
l62 26 3 50 3 50 -36 4 c-25 3 -57 -5 -101 -23 l-64 -27 0 206 c0 114 -3 223
-6 243 l-6 35 108 40 c94 34 109 42 115 66 6 25 2 31 -57 70 -41 28 -62 48
-59 58 3 11 -24 30 -90 65 -87 46 -112 65 -85 65 6 0 10 4 10 9 0 4 -19 12
-42 17 l-43 9 -3 225 c-2 197 0 226 14 237 14 10 14 12 -4 22 -86 46 -363 253
-590 442 l-273 226 -87 27 c-48 14 -91 26 -97 26 -5 -1 -281 -106 -613 -233z
m675 195 c26 -11 57 -22 68 -26 15 -5 -4 -15 -75 -40 -52 -19 -107 -39 -121
-44 -25 -10 -39 -7 -39 8 0 4 19 13 43 20 23 7 37 15 30 17 -6 2 -28 -3 -49
-12 -33 -14 -40 -14 -60 0 -33 21 -44 18 -14 -4 l25 -19 -30 -8 c-17 -4 -61
-20 -98 -35 -53 -22 -73 -26 -88 -18 -11 5 -17 14 -14 19 3 6 -2 7 -12 5 -13
-4 -13 -3 2 4 25 13 367 149 377 150 4 1 29 -7 55 -17z m351 -233 c125 -100
232 -186 237 -191 6 -6 -54 22 -132 61 -79 39 -146 71 -151 71 -8 0 -72 -306
-72 -342 0 -9 -8 -19 -17 -23 -19 -7 -571 -213 -665 -248 -32 -11 -59 -19 -62
-16 -10 10 -216 572 -212 577 3 2 178 65 388 139 211 73 392 138 403 143 11 5
28 9 38 9 9 1 119 -81 245 -180z m-518 112 c-1 -10 -192 -71 -203 -64 -5 3 30
21 78 39 48 18 89 35 92 38 6 6 33 -4 33 -13z m-254 -47 c25 -15 43 -28 42
-30 -2 -2 -85 -32 -183 -67 -135 -48 -227 -74 -364 -101 -101 -20 -186 -34
-189 -31 -3 3 1 5 9 5 8 0 154 56 324 125 171 68 311 124 313 125 2 0 24 -12
48 -26z m744 -154 c0 -5 8 -9 18 -8 30 4 263 -122 382 -207 63 -45 133 -94
155 -109 31 -22 35 -27 15 -22 -14 3 -54 13 -90 21 -59 15 -80 28 -244 156
-166 130 -216 166 -216 156 0 -3 83 -73 185 -156 118 -97 183 -157 178 -164
-12 -22 -156 -207 -160 -207 -4 0 -281 187 -296 200 -9 8 54 350 65 350 5 0 8
-4 8 -10z m-967 -310 c52 -140 98 -264 102 -275 8 -20 8 -19 -16 1 -13 11
-166 119 -339 239 -361 250 -324 224 -319 229 2 2 108 21 234 43 154 26 232
36 237 28 3 -5 49 -125 101 -265z m-229 -80 c290 -201 325 -228 325 -252 1
-25 -23 -10 -328 208 -201 143 -331 242 -334 255 -3 11 -1 19 4 17 5 -2 155
-104 333 -228z m-7 -56 c291 -209 328 -239 331 -265 3 -29 0 -27 -125 64 -70
51 -168 121 -218 154 -199 134 -310 223 -316 254 -4 16 -5 29 -4 29 2 0 151
-106 332 -236z m-257 115 c54 -39 70 -57 70 -76 0 -28 1 -28 -84 34 -44 31
-60 49 -61 68 0 14 1 25 2 25 1 0 34 -23 73 -51z m1982 -22 l98 -22 -185 -87
c-102 -47 -185 -84 -185 -82 0 8 162 214 168 214 4 -1 51 -11 104 -23z m-1982
-44 c58 -40 69 -53 70 -76 0 -32 3 -33 -88 32 -48 34 -61 49 -60 67 1 13 4 24
6 24 2 0 35 -21 72 -47z m1358 -24 l-3 -61 -350 -118 c-192 -64 -360 -120
-373 -124 -22 -7 -23 -6 -20 44 l3 52 365 133 c201 73 369 134 373 134 4 1 7
-27 5 -60z m193 -63 c111 -76 126 -90 122 -110 -5 -24 -6 -24 -62 18 -95 72
-225 161 -218 149 4 -6 67 -54 141 -107 113 -80 134 -100 138 -125 5 -35 15
-40 -122 59 -124 90 -160 114 -160 107 0 -3 62 -51 139 -106 102 -74 140 -107
143 -126 3 -14 3 -25 1 -25 -3 0 -67 45 -144 100 -76 55 -139 96 -139 92 0 -4
64 -53 143 -109 118 -85 142 -107 142 -128 0 -14 -1 -25 -3 -25 -2 0 -68 46
-147 102 l-145 102 0 130 0 129 23 -20 c12 -11 79 -59 148 -107z m539 50 c0
-38 -7 -42 -245 -136 -71 -28 -136 -54 -142 -57 -9 -3 -13 4 -13 20 0 22 18
33 198 115 108 50 198 91 200 91 1 1 2 -14 2 -33z m-2020 -108 l0 -28 -75 52
c-63 44 -75 57 -75 80 l0 28 75 -52 c63 -44 75 -57 75 -80z m260 -151 c0 -60
-4 -107 -9 -105 -4 2 -58 37 -119 78 l-111 75 -1 113 0 113 120 -83 120 -82 0
-109z m-260 77 l0 -34 -75 52 c-68 47 -75 55 -75 86 l0 33 75 -52 c68 -47 75
-55 75 -85z m2008 75 c-22 -14 -28 -10 -28 20 0 20 6 31 18 33 21 4 30 -41 10
-53z m-718 23 c0 -26 -5 -29 -97 -60 -54 -17 -99 -28 -101 -23 -4 13 -304 -88
-320 -107 -7 -9 -62 -33 -122 -53 l-110 -38 0 27 c0 27 6 29 373 153 204 69
373 127 375 127 1 1 2 -11 2 -26z m670 -116 l0 -114 -107 -47 c-60 -26 -112
-49 -118 -51 -6 -3 -10 38 -10 110 l0 115 115 49 c63 28 116 50 118 51 1 1 2
-50 2 -113z m60 59 c0 -14 -8 -29 -20 -35 -18 -10 -20 -8 -20 19 0 26 9 38 33
40 4 1 7 -10 7 -24z m-1955 -135 c116 -82 263 -187 327 -232 91 -64 117 -88
117 -106 1 -22 -3 -20 -67 25 -37 26 -186 131 -330 233 -208 147 -261 190
-262 208 0 12 1 22 3 22 1 0 97 -68 212 -150z m1225 87 l0 -63 -87 -28 c-49
-16 -94 -31 -100 -33 -9 -4 -13 5 -13 24 0 27 5 30 88 57 48 16 91 33 97 38
16 14 -7 9 -94 -22 -46 -17 -85 -30 -87 -30 -2 0 -4 12 -4 28 0 25 7 29 93 58
50 18 95 32 100 33 4 1 7 -27 7 -62z m-770 -153 c0 -29 9 -34 -133 66 -91 64
-107 79 -107 102 0 27 4 25 120 -58 97 -70 120 -91 120 -110z m1184 139 c0
-22 -9 -30 -42 -44 l-42 -18 0 28 c0 23 7 31 38 44 50 20 48 21 46 -10z m304
-34 c-21 -14 -28 -10 -28 16 0 13 8 28 18 34 14 8 18 5 20 -16 2 -14 -2 -30
-10 -34z m-1808 -194 c246 -175 309 -225 310 -242 0 -13 -2 -23 -5 -23 -2 0
-149 104 -327 231 -267 190 -324 235 -326 256 -3 25 -2 26 17 12 12 -8 161
-113 331 -234z m875 49 c8 -198 6 -213 -27 -214 -4 0 -9 83 -10 183 l-3 184
-100 -37 -100 -38 -2 -183 c-2 -176 -3 -183 -23 -191 -20 -7 -20 -7 -18 199
l3 206 125 43 c69 23 130 43 136 43 8 1 14 -58 19 -195z m429 48 c79 -57 100
-77 101 -97 0 -14 -2 -24 -5 -23 -3 2 -70 48 -148 103 -125 88 -142 103 -142
128 l0 29 48 -35 c26 -19 92 -66 146 -105z m-1676 81 l-3 -47 -150 -56 -150
-57 -50 17 c-74 25 -70 43 17 74 40 14 127 46 193 70 66 25 126 45 133 45 9 1
12 -12 10 -46z m582 -53 c58 -41 106 -74 107 -74 1 -1 -1 -13 -4 -27 l-5 -27
-62 47 c-34 25 -85 62 -114 81 -42 28 -52 40 -52 64 0 21 3 26 13 19 6 -5 59
-43 117 -83z m-175 -215 c253 -181 270 -195 270 -224 0 -17 -1 -31 -2 -31 0 0
-57 42 -126 93 -68 50 -215 157 -325 237 -179 129 -201 148 -202 173 l0 28 58
-41 c31 -23 179 -129 327 -235z m1473 251 c0 -19 -9 -28 -39 -40 -50 -20 -49
-20 -49 8 0 18 9 28 38 39 49 21 50 21 50 -7z m312 -4 c0 -16 -8 -32 -20 -40
-19 -11 -20 -10 -20 22 0 24 5 36 18 39 9 3 18 5 20 6 1 0 2 -11 2 -27z
m-1000 -157 c0 -96 0 -178 0 -182 0 -5 -38 -22 -85 -39 l-85 -32 0 183 0 183
78 31 c42 16 80 30 85 30 4 1 7 -78 7 -174z m270 106 l0 -59 -82 -28 c-46 -15
-88 -29 -95 -31 -8 -3 -13 13 -15 54 l-3 58 90 32 c50 17 93 32 98 32 4 1 7
-26 7 -58z m175 -49 c115 -82 131 -97 136 -128 3 -19 4 -34 2 -34 -2 0 -36 24
-76 53 -140 103 -207 148 -207 140 1 -4 63 -52 139 -107 99 -70 140 -105 144
-122 2 -13 3 -24 1 -24 -2 0 -52 35 -111 78 -159 115 -177 127 -169 114 4 -7
68 -55 142 -108 74 -53 134 -100 134 -105 0 -11 27 -12 32 -1 2 4 73 36 158
71 85 36 170 71 189 78 18 8 31 16 28 19 -2 3 -87 -29 -188 -71 -101 -41 -186
-75 -189 -75 -3 0 -6 11 -6 24 -2 24 47 47 388 184 4 2 8 -23 8 -56 l0 -59
-152 -61 c-84 -33 -163 -63 -174 -67 -22 -6 -111 -13 -244 -19 -41 -2 -95 -9
-120 -16 -58 -16 -190 -82 -260 -131 -39 -27 -113 -58 -258 -108 l-203 -69
-63 61 -62 62 255 87 c141 48 333 112 427 144 l170 57 55 -40 c47 -35 90 -51
89 -34 0 3 -39 33 -85 66 l-85 60 0 123 c0 96 3 122 13 116 6 -5 71 -50 142
-102z m-1057 -1 c83 -59 102 -78 102 -98 0 -13 -3 -23 -8 -21 -4 2 -55 37
-114 78 -93 65 -107 79 -107 104 -1 21 2 26 12 19 6 -5 58 -42 115 -82z m362
50 c0 -28 -3 -30 -112 -67 -62 -20 -108 -39 -103 -41 6 -2 57 12 113 31 l102
35 0 -28 c0 -27 -5 -30 -117 -69 -65 -22 -119 -39 -121 -37 -2 2 0 30 4 63 l6
61 112 39 c61 22 112 40 114 41 1 0 2 -12 2 -28z m940 -9 c0 -23 -7 -31 -37
-42 -21 -8 -41 -16 -45 -18 -5 -2 -8 8 -8 23 0 21 8 29 43 45 23 10 43 19 45
19 1 1 2 -12 2 -27z m-1802 -37 c39 -27 71 -52 72 -55 0 -3 -62 -29 -138 -57
l-137 -53 -77 53 c-43 28 -77 54 -78 57 0 5 271 108 280 106 3 0 38 -23 78
-51z m2110 0 c-2 -2 -92 -39 -200 -83 l-198 -81 0 27 c0 29 -25 17 280 142
l115 48 3 -25 c2 -14 2 -26 0 -28z m-1616 -65 c98 -69 107 -78 107 -107 1 -18
-2 -33 -5 -33 -3 0 -22 13 -42 29 -20 15 -71 53 -113 84 -68 49 -76 58 -72 82
3 14 8 25 12 23 3 -2 54 -37 113 -78z m1308 32 c0 -23 -7 -31 -37 -42 -21 -8
-41 -16 -45 -18 -5 -2 -8 10 -8 26 0 24 6 32 38 45 51 21 52 21 52 -11z
m-2245 -11 c27 -10 51 -24 53 -31 3 -7 1 -11 -4 -9 -5 2 -30 12 -57 23 -26 10
-47 23 -47 27 0 11 -3 12 55 -10z m1825 -8 c-1 -26 -6 -30 -95 -58 l-95 -31 0
26 c0 24 8 28 93 57 50 17 93 32 95 32 1 1 2 -11 2 -26z m798 -13 c21 0 5 -15
-25 -25 -19 -5 -23 -3 -23 15 0 16 4 20 16 16 9 -3 23 -6 32 -6z m-1948 -106
c13 -12 13 -14 0 -14 -8 0 -72 -23 -142 -51 l-127 -51 -75 28 c-67 25 -76 31
-76 54 0 23 12 30 138 81 l137 55 65 -44 c36 -25 72 -51 80 -58z m630 77 c0
-28 -3 -30 -120 -69 l-120 -41 0 29 c0 27 5 30 118 68 64 22 118 41 120 41 1
1 2 -12 2 -28z m-1142 -46 c39 -27 72 -56 72 -63 0 -16 -152 88 -158 107 -6
18 3 14 86 -44z m1660 24 c-2 -18 -22 -29 -96 -55 l-93 -34 3 27 c3 25 11 30
88 55 104 33 102 33 98 7z m895 -29 c48 -24 87 -47 87 -50 0 -6 -521 -192
-525 -188 -1 2 -5 13 -9 24 -6 18 1 25 46 44 29 12 99 43 156 67 l102 45 0 43
c0 34 4 44 23 53 12 6 24 10 27 9 3 -1 44 -22 93 -47z m-2628 -300 c0 -171 -2
-310 -5 -310 -3 1 -13 7 -22 14 -17 12 -18 40 -18 325 l0 312 23 -16 22 -16 0
-309z m1215 282 c0 -27 -5 -30 -87 -56 -49 -15 -101 -33 -118 -41 l-30 -14 30
6 c17 3 68 19 114 35 47 15 86 28 88 28 2 0 3 -11 3 -24 0 -22 -11 -28 -120
-64 l-120 -41 0 59 0 58 118 40 c64 22 118 41 120 41 1 1 2 -12 2 -27z m-1160
-319 c0 -166 -4 -303 -8 -303 -29 0 -32 29 -32 334 0 308 0 309 20 291 19 -17
20 -31 20 -322z m2410 319 c0 -14 -36 -34 -150 -84 -139 -61 -150 -64 -156
-46 -3 11 -4 21 -2 22 1 1 57 24 123 51 66 26 131 54 145 61 34 18 40 17 40
-4z m-710 -9 c0 -8 -28 -18 -538 -192 l-304 -104 -36 22 c-21 12 -70 38 -111
58 l-73 36 47 19 47 18 84 -59 83 -60 168 56 c92 30 197 64 233 75 36 11 84
29 106 39 47 22 262 97 282 98 6 1 12 -2 12 -6z m-1620 -77 c4 -13 35 -34 78
-55 69 -34 70 -35 74 -77 l3 -43 -95 -37 c-52 -20 -99 -41 -104 -45 -6 -5 -12
-9 -15 -9 -4 0 -6 74 -6 164 l0 164 28 -20 c16 -11 32 -30 37 -42z m560 3 l73
-53 -34 -14 c-19 -8 -45 -18 -58 -23 -22 -9 -17 -13 58 -49 44 -22 107 -57
139 -78 62 -43 176 -159 205 -210 22 -39 6 -43 -18 -4 -82 125 -275 276 -400
312 -36 10 -46 9 -97 -14 l-57 -25 -61 36 c-33 19 -59 37 -58 38 4 3 149 -12
190 -19 25 -5 28 -4 13 3 -19 9 -18 10 5 11 l25 2 -25 8 c-14 4 -34 8 -45 8
-16 0 -15 -2 5 -8 l25 -8 -24 -1 c-13 -1 -29 6 -35 14 -8 11 -34 17 -86 20
l-75 4 74 -9 c111 -14 99 -22 -22 -14 -88 6 -107 4 -107 -7 -1 -10 -4 -9 -14
3 -7 10 -15 15 -18 12 -8 -7 -118 48 -118 59 0 5 6 7 13 4 6 -3 32 -13 57 -22
25 -10 49 -22 55 -27 11 -10 49 -11 59 -1 13 13 261 111 272 108 6 -2 44 -27
84 -56z m2070 -11 c27 -18 49 -35 49 -38 1 -5 -567 -220 -581 -220 -8 0 -39
103 -32 109 7 7 487 179 502 180 7 1 34 -14 62 -31z m-1545 -34 c-2 -25 -10
-30 -125 -70 -69 -24 -125 -42 -126 -41 -1 1 0 14 3 29 5 25 16 31 122 67 64
22 118 40 121 40 3 1 5 -11 5 -25z m824 9 c-1 -5 -1 -10 1 -13 4 -13 8 -60 4
-60 -2 0 -24 15 -49 34 l-45 35 42 4 c24 2 44 4 46 5 1 1 1 -1 1 -5z m51 -3
c-20 -13 -33 -13 -25 0 3 6 14 10 23 10 15 0 15 -2 2 -10z m58 -34 c-23 -12
-80 -36 -83 -36 -3 0 -4 10 -2 23 1 14 14 27 37 38 33 15 35 15 43 -4 4 -11 6
-21 5 -21z m-228 17 c-90 -36 -308 -108 -304 -102 13 22 -17 4 -81 -46 -67
-53 -154 -145 -176 -186 -5 -10 -14 -19 -20 -19 -17 0 23 59 89 131 70 75 166
144 266 189 98 45 103 36 7 -10 -46 -22 -81 -43 -78 -46 3 -4 23 4 43 17 51
31 191 78 234 78 19 0 28 -3 20 -6z m76 -49 l53 -37 52 22 c29 11 53 20 54 19
2 -2 6 -13 9 -25 5 -17 2 -23 -16 -29 -13 -4 -194 -68 -404 -144 -422 -151
-418 -150 -330 -41 90 112 122 132 331 204 105 36 192 66 194 66 3 1 28 -15
57 -35z m826 5 c-13 -11 -568 -219 -584 -219 -4 0 -8 6 -8 13 0 18 582 237
592 223 4 -6 4 -14 0 -17z m-2409 -29 c42 -25 77 -51 77 -57 0 -7 -3 -13 -7
-13 -16 0 -163 100 -163 110 0 14 0 15 93 -40z m-74 -4 c11 -13 9 -17 -14 -26
-36 -14 -35 -14 -35 25 0 32 2 35 18 26 10 -5 24 -17 31 -25z m387 -31 c38
-19 82 -45 97 -57 l28 -23 -100 -33 -101 -33 -76 67 -75 68 58 22 c79 30 90
29 169 -11z m-333 -7 c15 -11 10 -16 -38 -35 l-55 -21 0 22 c0 15 9 26 28 33
37 15 46 15 65 1z m1800 -50 c10 -32 13 -54 7 -58 -6 -3 -237 -91 -515 -194
l-505 -188 -66 28 c-67 28 -88 49 -64 64 9 6 18 2 26 -8 19 -25 38 -1 37 45
-1 37 -1 37 12 13 10 -18 10 -27 2 -32 -16 -10 -1 -22 19 -14 9 3 14 12 11 20
-4 9 12 20 50 35 65 25 64 25 57 6 -4 -10 0 -15 15 -15 12 0 21 5 21 11 0 5
-4 7 -10 4 -14 -9 -12 1 6 36 8 17 18 29 21 26 2 -3 0 -14 -6 -25 -12 -22 1
-72 18 -72 18 0 32 29 26 53 -6 22 -2 27 37 41 152 57 765 275 774 275 5 1 18
-22 27 -51z m-1903 10 c0 -19 -15 -29 -93 -60 -134 -55 -127 -53 -127 -31 0
18 38 37 218 112 1 1 2 -9 2 -21z m181 -9 c16 -18 27 -34 24 -37 -3 -3 -43
-22 -90 -43 l-84 -38 -6 37 c-4 20 -8 41 -9 47 -2 8 103 61 127 64 5 1 22 -13
38 -30z m107 -48 c36 -32 62 -62 62 -73 0 -15 -16 -5 -70 44 -41 37 -69 71
-69 83 -1 11 3 15 7 10 4 -6 35 -35 70 -64z m2042 -176 c0 -157 -4 -245 -10
-245 -6 0 -10 88 -10 245 0 157 4 245 10 245 6 0 10 -88 10 -245z m-57 -262
c-9 -7 -20 -13 -25 -13 -4 0 -8 110 -8 243 0 243 0 244 23 254 l22 10 3 -241
c2 -218 1 -242 -15 -253z m-1165 420 c-24 -27 -53 -63 -63 -81 -12 -20 -25
-30 -33 -27 -11 4 -13 -1 -9 -17 9 -35 -13 -55 -87 -81 -66 -24 -67 -25 -77
-5 -8 14 -8 23 0 31 17 17 13 29 -6 23 -13 -4 -25 5 -41 30 -13 20 -22 37 -20
39 2 2 82 31 177 64 96 33 176 63 179 66 3 3 10 5 15 5 5 0 -10 -21 -35 -47z
m1114 -165 c2 -117 2 -215 1 -217 -1 -2 -49 28 -105 66 l-103 70 -31 94 c-17
52 -29 96 -27 99 4 4 242 97 255 99 4 1 9 -95 10 -211z m-2212 142 l0 -36
-115 -51 -116 -51 3 55 3 55 105 43 c114 46 120 46 120 -15z m633 -1 c31 -28
57 -54 57 -58 0 -5 -32 -20 -71 -34 l-70 -25 -80 57 -79 56 77 27 c43 14 85
27 94 27 8 1 41 -22 72 -50z m-353 -14 c30 -31 62 -54 70 -53 8 1 52 -22 98
-52 73 -49 82 -58 80 -83 -3 -27 2 -30 95 -70 80 -35 97 -45 93 -60 -4 -15 11
-26 77 -57 76 -35 83 -36 114 -24 18 8 35 14 38 14 3 0 4 -122 3 -272 l-3
-272 -31 -9 c-29 -8 -55 7 -430 247 -219 140 -402 257 -406 258 -6 3 -61 400
-55 403 8 5 193 85 197 85 3 0 30 -25 60 -55z m1640 11 c0 -15 -26 -26 -515
-206 -484 -179 -517 -191 -522 -186 -2 2 2 9 9 16 11 10 999 387 1021 389 4 1
7 -5 7 -13z m-1540 -33 c0 -14 2 -15 9 -4 7 10 23 3 74 -35 37 -27 66 -57 67
-66 0 -13 -20 -3 -76 37 -42 30 -80 55 -85 55 -5 0 -9 7 -9 15 0 8 5 15 10 15
6 0 10 -8 10 -17z m-750 -11 c0 -13 -17 -26 -57 -43 -53 -23 -93 -27 -93 -11
0 5 95 51 148 71 1 1 2 -7 2 -17z m2324 -66 c14 -46 26 -86 26 -89 0 -3 -40
22 -90 56 -49 33 -89 62 -87 63 1 1 29 13 62 27 33 14 61 26 61 26 1 1 13 -37
28 -83z m-1921 -148 c13 -93 22 -168 20 -168 -4 0 -268 171 -275 178 -3 4 -8
27 -9 52 l-4 44 120 52 c114 49 120 50 123 30 2 -11 13 -96 25 -188z m722 103
c39 -88 9 -102 -110 -52 -73 31 -89 41 -87 57 5 24 -2 20 78 48 l69 25 18 -22
c10 -12 24 -37 32 -56z m-1123 19 l3 -50 -50 -21 c-54 -24 -49 -39 6 -17 l32
14 221 -148 c218 -146 221 -149 227 -188 3 -22 4 -40 3 -40 -2 0 -423 272
-516 334 -25 16 -28 25 -28 72 0 53 0 53 43 73 23 11 45 20 49 20 3 1 8 -21
10 -49z m2255 -26 c62 -42 113 -81 113 -86 0 -11 -5 -8 -148 87 -82 54 -105
75 -85 75 4 0 58 -34 120 -76z m-847 -2 l-5 -47 -3 40 c-2 22 -8 44 -13 50
-16 16 -10 26 9 14 13 -8 16 -20 12 -57z m-1532 -15 c2 -31 0 -57 -4 -57 -4 0
-18 10 -31 22 -17 16 -23 32 -23 64 0 41 1 42 28 35 25 -7 27 -12 30 -64z
m2365 -16 c120 -80 134 -93 145 -129 17 -54 15 -58 -10 -35 -13 11 -92 69
-177 128 -125 88 -151 110 -135 116 35 14 44 10 177 -80z m-12 -78 c160 -115
185 -136 195 -168 10 -31 9 -37 -5 -43 -9 -3 -223 -91 -476 -195 -253 -104
-467 -191 -475 -194 -13 -4 -15 30 -12 264 l3 268 267 99 c147 54 274 102 282
107 18 9 0 20 221 -138z m-1055 106 c-9 -14 -12 -33 -9 -55 4 -22 2 -34 -6
-34 -15 0 -14 83 1 98 20 20 30 13 14 -9z m-170 -55 c61 -26 84 -41 84 -54 0
-16 -11 -13 -87 20 -49 22 -89 46 -91 55 -5 21 -2 20 94 -21z m-790 -95 c103
-66 193 -123 201 -126 7 -3 13 -13 13 -23 0 -13 -53 17 -202 118 -218 144
-228 152 -211 152 6 0 95 -54 199 -121z m2374 -79 c0 -6 -47 21 -105 60 -58
39 -105 75 -105 80 0 6 47 -21 105 -60 58 -39 105 -75 105 -80z m-21 -22 c1
-3 -13 -11 -31 -17 -29 -10 -36 -9 -73 18 -27 19 -46 44 -57 74 l-17 46 89
-57 c49 -31 89 -60 89 -64z m-1387 81 c40 -16 58 -30 58 -41 0 -23 1 -23 -75
14 -36 18 -65 39 -65 46 0 8 6 12 13 9 6 -3 38 -15 69 -28z m1678 2 c0 -5 -10
-11 -23 -15 -17 -4 -280 -111 -374 -153 -7 -3 -13 -1 -13 5 0 6 48 30 108 55
295 124 302 126 302 108z m-2799 -22 l29 -20 0 -210 c0 -179 -2 -209 -15 -209
-8 0 -24 9 -35 20 -19 19 -20 33 -20 230 0 116 3 210 6 210 3 0 19 -9 35 -21z
m2831 -10 c5 -30 2 -33 -61 -62 -154 -70 -346 -146 -352 -139 -4 4 -10 16 -13
28 -6 19 12 28 196 104 112 46 207 87 213 92 13 11 12 12 17 -23z m-1462 -523
c-7 -7 -10 77 -10 260 0 149 3 274 8 278 4 4 8 -113 10 -260 1 -172 -1 -271
-8 -278z m-28 255 l-3 -268 -26 -12 c-14 -6 -27 -10 -28 -9 -2 2 -5 123 -7
271 l-3 267 25 9 c14 5 30 10 35 10 7 1 9 -93 7 -268z m-1282 38 c0 -126 -4
-199 -10 -199 -6 0 -10 75 -10 206 0 134 3 203 10 199 6 -4 10 -83 10 -206z
m2360 140 c0 -5 -9 -9 -20 -9 -11 0 -20 4 -20 9 0 5 -3 17 -7 26 -6 16 -4 16
20 0 15 -9 27 -21 27 -26z m-1773 -174 c222 -141 248 -161 227 -168 -20 -7
-57 14 -252 145 -126 84 -232 161 -235 171 -3 10 -2 17 2 15 4 -2 121 -75 258
-163z m2096 118 c23 -15 44 -28 46 -30 2 -2 2 -6 -2 -9 -3 -3 -33 7 -66 24
-55 28 -67 42 -34 42 7 0 32 -12 56 -27z m-363 10 c0 -11 -1206 -506 -1220
-501 -6 2 87 44 207 93 120 49 394 162 608 251 215 90 393 163 398 163 4 1 7
-2 7 -6z m263 -315 c7 -312 6 -327 -25 -328 -10 0 -11 624 -1 633 3 4 9 7 13
7 4 0 10 -140 13 -312z m-1807 -30 l0 -35 -100 67 c-77 50 -325 211 -332 214
-1 1 -4 20 -8 44 l-6 42 222 -148 c218 -146 223 -150 224 -184z m1874 307 c47
-24 50 -27 50 -65 l0 -40 -55 36 c-45 30 -55 42 -55 65 0 16 2 29 5 29 3 0 28
-11 55 -25z m-312 -14 l10 -29 -131 -55 c-95 -40 -921 -393 -1084 -463 -8 -4
-10 7 -6 38 3 24 7 45 9 47 3 4 1176 489 1186 490 3 1 11 -12 16 -28z m197
-285 c0 -173 -3 -312 -7 -309 -5 2 -8 12 -8 22 0 10 -9 44 -21 77 -18 54 -20
78 -17 281 3 211 4 223 23 232 11 5 22 10 25 10 3 1 5 -140 5 -313z m-72 147
c-3 -180 -16 -184 -64 -24 l-36 120 46 20 c25 10 48 20 51 20 3 1 4 -61 3
-136z m290 103 c-3 -14 -14 -33 -26 -43 -20 -17 -20 -17 -14 0 4 10 7 30 7 43
0 17 6 24 19 24 14 0 17 -6 14 -24z m-1761 -298 c65 -40 117 -76 118 -79 0 -3
-10 -10 -22 -16 -18 -8 -38 2 -127 62 -110 75 -151 99 -151 91 0 -3 53 -41
118 -84 107 -72 117 -82 117 -110 l0 -31 -26 17 c-14 9 -72 46 -127 82 -94 60
-102 67 -102 97 0 17 6 34 13 36 40 17 77 4 189 -65z m1474 -6 l2 -37 -13 30
c-13 29 -11 45 3 45 4 0 8 -17 8 -38z m-2906 -107 c206 -20 311 -39 423 -75
100 -32 212 -93 236 -130 13 -19 6 -17 -34 12 -95 68 -206 112 -357 142 -205
42 -663 59 -890 35 -169 -18 -333 -68 -409 -123 -8 -6 -2 1 15 16 58 53 238
113 411 137 91 13 408 5 605 -14z m1548 -63 c3 -40 2 -43 -20 -40 -20 3 -23 9
-24 46 -1 39 1 43 20 40 17 -2 22 -11 24 -46z m-1563 28 c295 -22 477 -71 620
-165 66 -44 65 -61 -2 -30 -64 30 -180 69 -278 95 -400 103 -946 105 -1265 4
-41 -13 -76 -21 -79 -19 -8 9 133 67 208 86 42 10 108 23 146 28 100 12 485
13 650 1z m1775 -40 c0 -28 -2 -30 -20 -20 -31 17 -24 45 13 49 4 1 7 -13 7
-29z m1185 -40 c7 -31 6 -33 -9 -21 -9 8 -16 28 -16 50 1 42 13 27 25 -29z
m-2900 21 c77 -11 193 -33 257 -50 124 -31 315 -97 324 -112 8 -14 -8 -11
-103 20 -48 16 -133 38 -188 50 -55 12 -108 27 -117 32 -10 5 -35 9 -55 9 -21
0 -78 7 -128 14 -160 26 -373 39 -515 32 -133 -7 -222 -15 -227 -20 -2 -2 100
-1 226 2 277 6 494 -11 489 -37 -2 -9 -12 -15 -23 -14 -11 2 -104 8 -207 15
-104 7 -188 15 -188 18 0 3 -37 7 -83 9 l-82 2 -15 -42 -15 -43 -125 -22 c-69
-12 -153 -29 -188 -39 -46 -13 -66 -15 -74 -7 -13 13 -19 10 91 47 40 13 124
32 187 42 63 10 114 21 114 26 0 5 -8 6 -17 3 -10 -2 -43 -8 -73 -11 -66 -8
-194 -39 -270 -66 l-55 -19 -30 30 c-36 37 -34 39 80 74 137 42 230 58 450 80
93 9 427 -5 560 -23z m1680 -10 c26 -16 40 -31 33 -33 -16 -6 -100 46 -91 56
9 9 7 9 58 -23z m-43 -22 c39 -26 48 -36 48 -60 l0 -30 -57 37 c-32 20 -66 42
-75 48 -16 10 -16 12 5 23 29 16 23 17 79 -18z m-2117 -36 c-4 -10 -29 -79
-57 -153 -27 -74 -52 -137 -54 -139 -5 -6 -124 21 -124 28 0 3 23 68 52 143
l53 138 69 0 c61 0 67 -2 61 -17z m576 2 l56 -6 -48 -132 c-53 -149 -40 -137
-175 -152 l-64 -7 9 24 c26 66 98 255 104 271 5 14 14 17 34 13 16 -2 53 -8
84 -11z m1627 -56 c-23 -15 -28 -10 -28 25 0 25 5 36 18 38 21 4 31 -50 10
-63z m-1805 34 c33 -7 36 -10 25 -25 -12 -15 -25 -16 -123 -8 -60 5 -152 9
-202 9 -51 1 -93 4 -93 7 0 3 4 13 9 22 8 15 25 16 178 10 92 -4 185 -11 206
-15z m344 -9 c116 -26 278 -76 284 -86 4 -6 13 -7 20 -3 8 4 3 -3 -11 -14 -84
-70 -288 -137 -550 -182 -425 -74 -736 -39 -968 107 -60 38 -142 112 -142 128
0 5 27 -17 60 -48 97 -92 248 -155 450 -186 140 -21 533 -2 718 36 147 30 474
153 402 152 -14 0 -59 9 -100 20 -41 11 -119 30 -172 42 -75 16 -96 25 -91 36
7 18 16 18 100 -2z m1379 -22 c21 -16 22 -27 26 -209 l4 -192 -28 15 -28 15 0
178 c0 99 -3 186 -6 195 -8 21 6 20 32 -2z m-1381 -27 c39 -8 108 -25 154 -37
74 -19 81 -23 58 -31 -18 -6 -61 -1 -144 17 -65 14 -134 28 -154 31 -30 6 -36
10 -32 26 4 13 12 17 27 14 11 -3 53 -12 91 -20z m-366 -1 c33 -7 36 -11 23
-32 -7 -10 -48 -10 -208 -1 -109 7 -200 13 -202 14 -1 1 1 10 4 20 7 17 20 18
179 12 95 -4 186 -10 204 -13z m-559 -4 c0 -5 -21 -10 -46 -10 -27 0 -43 4
-39 10 3 6 24 10 46 10 21 0 39 -4 39 -10z m2380 -177 c0 -118 -4 -184 -11
-188 -6 -4 -12 -5 -14 -4 -1 2 -5 87 -7 189 -4 173 -3 186 14 186 17 0 18 -14
18 -183z m-2414 157 c20 0 22 -3 15 -22 -8 -21 -12 -22 -157 -21 -123 1 -136
-1 -74 -7 41 -4 108 -8 147 -9 71 -1 72 -1 62 -23 -10 -22 -13 -23 -112 -18
-85 4 -109 9 -140 29 -28 17 -36 26 -27 35 21 21 143 46 204 41 32 -3 69 -5
82 -5z m1310 -19 c-11 -20 -39 -40 -102 -70 -248 -119 -527 -180 -879 -194
-53 -2 -45 -4 31 -5 267 -5 586 63 829 177 47 22 85 37 85 33 -1 -22 -37 -45
-130 -85 -314 -133 -615 -182 -965 -156 -256 19 -348 44 -477 127 -58 38 -67
50 -92 134 l-14 48 61 -56 c90 -81 221 -140 407 -183 l45 -10 -51 4 c-122 12
-300 76 -392 141 l-37 26 35 -32 c47 -43 157 -95 255 -121 256 -66 798 -18
1145 103 91 32 203 92 234 127 26 29 29 26 12 -8z m-848 -7 c78 -4 142 -9 142
-11 0 -2 -4 -12 -9 -21 -8 -15 -22 -16 -123 -10 -62 3 -152 7 -200 9 -89 2
-93 4 -82 34 6 14 17 16 68 11 34 -3 125 -8 204 -12z m492 -5 c25 -5 72 -14
105 -21 l60 -11 -35 -15 c-35 -15 -154 -18 -236 -6 -33 5 -41 9 -37 23 4 15
15 17 86 14 95 -3 92 3 -5 12 -38 4 -68 11 -68 16 0 9 40 5 130 -12z m-463
-55 l92 -6 -11 -24 c-7 -15 -17 -23 -27 -20 -9 3 -98 8 -198 12 -101 4 -183
10 -183 15 0 4 3 15 7 24 6 18 22 18 320 -1z m499 -21 c-11 -11 -146 -42 -183
-43 -31 0 -32 1 -21 25 11 24 14 25 111 25 55 0 97 -3 93 -7z m-1068 -9 c53
-7 58 -10 44 -32 -7 -10 -24 -7 -83 12 -79 26 -67 32 39 20z m525 -30 c59 -4
107 -9 107 -13 0 -4 -6 -14 -12 -23 -10 -12 -38 -17 -109 -21 -113 -6 -299 2
-299 14 0 4 5 20 10 35 l10 26 93 -6 c50 -3 140 -8 200 -12z m760 -28 c-47
-56 -313 -146 -538 -182 -155 -24 -478 -30 -597 -10 -108 18 -238 56 -313 93
-29 14 -42 17 -30 7 25 -20 88 -48 169 -74 112 -37 221 -50 431 -52 l200 -1
-155 -10 c-128 -7 -177 -6 -280 8 -240 31 -331 68 -406 164 -24 30 -42 57 -40
59 2 2 24 -12 48 -30 101 -77 219 -110 468 -129 353 -27 694 26 970 151 47 21
89 38 93 39 5 1 -4 -14 -20 -33z m-67 -75 c-46 -51 -307 -129 -470 -140 -111
-8 -167 2 -64 12 140 13 423 86 505 131 39 21 49 20 29 -3z"/>
<path d="M3225 4415 c42 -25 60 -31 51 -16 -3 5 1 12 10 15 9 4 14 9 11 13 -4
3 -13 0 -22 -7 -12 -10 -20 -9 -40 4 -13 9 -30 16 -37 16 -7 0 5 -11 27 -25z"/>
<path d="M3255 4305 c-141 -57 -183 -71 -194 -62 -11 10 -13 9 -9 -3 6 -20
-310 -151 -329 -137 -9 7 -13 5 -13 -6 0 -8 -11 -18 -25 -21 -14 -4 -23 -11
-20 -16 4 -6 15 -4 28 5 21 15 23 14 49 -42 20 -46 23 -59 12 -61 -8 -2 -14
-8 -14 -13 0 -6 8 -8 18 -5 14 5 24 -8 49 -66 17 -40 36 -74 42 -76 6 -2 -5
31 -25 74 -19 42 -32 79 -29 82 2 3 23 13 45 23 l41 18 66 -139 c36 -77 70
-140 74 -140 4 0 -21 61 -57 135 -35 75 -64 139 -64 143 0 4 52 28 115 53
l116 46 36 -66 c43 -78 42 -76 48 -69 3 3 -10 33 -30 66 -19 33 -35 64 -35 69
0 5 23 17 50 27 28 10 50 22 50 27 0 5 -23 0 -50 -11 -28 -11 -54 -20 -59 -20
-4 0 -20 22 -35 50 l-27 49 34 14 c76 32 76 32 98 -17 11 -25 24 -46 29 -46 4
0 -2 21 -15 48 l-23 47 40 18 c78 34 79 33 131 -40 26 -38 43 -69 37 -71 -5
-2 -10 -9 -10 -15 0 -8 3 -8 12 1 8 8 20 -2 50 -43 21 -29 38 -57 38 -62 0 -5
-22 -19 -50 -30 l-50 -21 -37 66 c-43 79 -42 77 -48 70 -3 -3 13 -36 34 -73
l40 -69 -156 -68 c-86 -37 -157 -68 -158 -68 -1 0 -12 23 -25 50 -13 28 -27
50 -32 50 -12 0 -11 -2 19 -56 15 -27 22 -49 16 -51 -5 -2 -19 -11 -29 -19
-19 -15 -12 -15 28 1 13 5 22 -3 37 -34 26 -49 26 -57 4 -64 -10 -2 -67 -25
-126 -51 l-109 -46 -11 30 c-9 25 -27 42 -27 26 0 -12 40 -96 46 -96 3 0 4 6
1 14 -7 18 247 128 263 112 7 -7 10 -5 10 7 0 9 4 17 9 17 18 0 104 41 98 46
-3 3 -31 -5 -61 -19 l-56 -26 -25 48 -24 49 152 66 c84 37 155 66 159 66 4 0
21 -27 40 -60 18 -33 36 -60 41 -60 4 0 -9 29 -29 66 -20 36 -35 66 -33 68 2
1 24 11 49 21 25 10 49 22 54 27 5 4 -9 33 -33 67 l-42 60 37 16 c57 23 81 28
88 16 4 -6 12 -11 19 -11 8 0 8 3 0 11 -6 6 -9 18 -5 27 4 11 1 14 -10 10 -10
-4 -36 15 -77 56 -48 48 -59 64 -49 74 20 20 1 14 -187 -63z m235 -25 l50 -57
-57 -22 c-32 -12 -59 -18 -61 -13 -1 5 -23 36 -47 70 l-45 61 43 19 c49 22 47
23 117 -58z m-394 -121 c14 -28 24 -52 22 -53 -14 -9 -229 -88 -232 -85 -2 2
-8 13 -14 24 -8 15 -11 16 -12 5 0 -9 5 -21 12 -28 8 -8 4 -14 -18 -23 -16 -6
-38 -15 -50 -19 -18 -7 -24 -1 -48 47 -24 50 -25 55 -9 60 10 2 81 31 158 63
77 32 146 58 152 59 7 1 24 -22 39 -50z"/>
<path d="M3301 3925 c14 -37 61 -115 69 -115 5 0 -4 24 -21 53 -29 49 -56 85
-48 62z"/>
<path d="M2820 3619 c0 -5 5 -7 10 -4 6 3 10 8 10 11 0 2 -4 4 -10 4 -5 0 -10
-5 -10 -11z"/>
<path d="M2668 4237 c-98 -39 -176 -72 -174 -74 2 -2 29 6 60 17 37 14 67 19
89 15 27 -5 29 -4 13 6 -17 10 -8 16 75 48 91 36 144 61 124 60 -5 -1 -90 -33
-187 -72z"/>
<path d="M2888 4273 c7 -3 16 -2 19 1 4 3 -2 6 -13 5 -11 0 -14 -3 -6 -6z"/>
<path d="M2455 4152 c-11 -2 -24 -7 -28 -11 -7 -7 92 -4 118 3 16 5 -69 12
-90 8z"/>
<path d="M3645 4061 c7 -18 -35 -172 -45 -166 -4 2 -5 -7 -2 -22 6 -34 14 -18
42 84 l23 82 38 -30 c38 -30 39 -31 24 -60 -9 -16 -12 -29 -7 -29 5 0 14 12
21 26 9 21 14 24 26 14 11 -9 15 -9 15 -1 0 6 -5 11 -11 11 -6 0 -8 7 -5 16 4
11 2 15 -8 11 -18 -7 -89 52 -82 69 3 8 -2 12 -15 11 -13 -1 -18 -6 -14 -16z"/>
<path d="M3835 4028 c19 -11 164 -128 193 -155 8 -8 24 -10 40 -7 39 10 40 14
3 14 -25 0 -53 17 -130 80 -54 44 -104 80 -112 80 -9 0 -7 -5 6 -12z"/>
<path d="M3790 3904 c0 -4 7 -12 15 -18 13 -9 10 -18 -16 -58 -32 -49 -33 -49
-78 -19 -12 8 -12 12 -2 25 15 18 1 22 -15 6 -7 -7 -19 -4 -38 11 -15 12 -29
19 -32 16 -3 -3 9 -15 26 -27 29 -20 30 -24 16 -39 -9 -10 -16 -22 -16 -27 1
-5 9 2 20 14 l20 24 29 -22 c21 -14 28 -26 24 -38 -6 -14 -4 -15 8 -5 12 10
22 8 53 -13 21 -14 40 -24 42 -21 2 2 -14 17 -36 32 -45 31 -45 21 6 100 l16
24 39 -32 c21 -17 39 -36 39 -40 0 -4 -18 -32 -40 -62 -22 -30 -37 -55 -33
-55 12 0 35 17 33 24 -3 14 58 87 65 77 3 -6 11 -11 17 -11 7 0 6 5 -1 14 -9
11 -10 20 -1 35 13 25 -4 29 -18 4 -8 -14 -15 -12 -51 18 -22 19 -39 40 -36
47 3 8 0 12 -7 9 -7 -2 -21 0 -30 5 -10 5 -18 6 -18 2z"/>
<path d="M2480 4073 c0 -6 9 -17 20 -24 19 -14 18 -16 -21 -79 -21 -36 -45
-65 -52 -64 -23 2 -117 76 -111 86 4 6 1 8 -7 6 -8 -3 -29 3 -46 14 -18 11
-33 15 -33 9 0 -6 3 -11 8 -11 4 0 18 -9 32 -19 24 -19 24 -20 6 -40 -11 -12
-14 -21 -8 -21 6 0 16 9 22 20 11 20 13 19 73 -22 34 -23 64 -44 66 -45 2 -1
-2 -9 -9 -18 -7 -9 -8 -15 -2 -15 6 0 12 5 14 12 5 14 78 -27 78 -44 0 -6 3
-9 6 -5 4 3 29 -9 57 -28 28 -19 53 -32 56 -30 5 6 8 4 -52 44 l-47 32 18 27
c29 42 34 52 24 52 -5 0 -17 -16 -28 -35 -10 -19 -20 -35 -23 -35 -8 0 -71 42
-71 48 0 3 18 37 41 75 l41 69 29 -28 c16 -15 31 -25 35 -22 3 4 -8 17 -25 29
-24 17 -30 28 -25 43 6 19 5 19 -10 7 -14 -12 -19 -11 -36 4 -11 10 -20 13
-20 8z"/>
<path d="M2380 4025 c-12 -20 -20 -38 -17 -41 2 -3 15 11 27 31 12 20 20 38
17 41 -2 3 -15 -11 -27 -31z"/>
<path d="M2520 3780 c0 -5 4 -10 9 -10 5 0 43 -28 85 -61 42 -34 79 -59 81
-57 5 5 -158 138 -169 138 -3 0 -6 -4 -6 -10z"/>
<path d="M4040 3775 c0 -3 7 -19 15 -35 l15 -30 -51 -25 c-28 -15 -49 -29 -46
-31 3 -3 27 6 55 20 27 14 52 22 56 19 3 -4 6 -2 6 4 0 6 10 14 23 18 14 4 17
8 9 12 -7 3 -19 0 -26 -6 -11 -9 -16 -5 -26 19 -12 28 -30 49 -30 35z"/>
<path d="M4142 3755 c6 -14 15 -25 20 -25 12 0 9 12 -6 33 -19 25 -27 21 -14
-8z"/>
<path d="M3400 3681 c-58 -20 -217 -74 -353 -120 -137 -46 -246 -85 -243 -88
6 -6 707 226 721 238 16 16 -17 7 -125 -30z"/>
<path d="M2298 3596 l3 -84 90 -66 89 -66 0 89 0 88 -87 59 c-49 32 -90 60
-93 62 -3 1 -4 -36 -2 -82z m90 -7 c57 -40 57 -40 62 -100 3 -32 3 -59 0 -59
-3 1 -32 20 -65 43 l-60 43 -3 57 c-2 31 0 57 3 57 4 0 32 -18 63 -41z"/>
<path d="M4094 3539 l-81 -37 -6 -83 c-4 -45 -5 -84 -4 -86 4 -3 160 57 170
66 4 4 7 46 5 93 l-3 84 -81 -37z m66 -59 l0 -61 -47 -19 c-27 -11 -56 -25
-66 -31 -11 -6 -20 -9 -21 -7 -1 2 0 32 3 66 l6 64 55 24 c30 13 58 23 63 24
4 0 7 -27 7 -60z"/>
<path d="M3432 3353 c-40 -14 -71 -27 -68 -30 5 -5 166 46 166 53 0 8 -26 2
-98 -23z"/>
<path d="M3576 3232 c37 -33 226 -163 230 -159 6 5 -219 167 -232 167 -4 0 -4
-4 2 -8z"/>
<path d="M411 1584 c-18 -8 -31 -17 -28 -20 5 -6 67 23 67 31 0 6 3 7 -39 -11z"/>
<path d="M1557 2256 c-103 -43 -132 -85 -125 -181 3 -34 11 -72 18 -84 20 -38
22 -16 4 39 -14 42 -15 58 -5 90 14 46 86 114 139 131 21 6 41 15 47 20 17 16
-19 9 -78 -15z"/>
<path d="M1894 2161 c3 -4 18 -11 33 -14 42 -8 96 -49 116 -87 24 -45 11 -82
-38 -111 -20 -12 -34 -24 -31 -26 8 -8 64 26 85 53 44 57 15 115 -81 163 -60
30 -94 39 -84 22z"/>
<path d="M1685 2118 c-40 -21 -75 -62 -75 -87 0 -17 16 -40 51 -73 49 -46 69
-57 69 -40 0 5 -12 15 -26 23 -37 19 -74 67 -74 94 0 22 42 67 72 78 7 2 11 7
8 10 -3 3 -14 1 -25 -5z"/>
<path d="M373 1845 c-37 -19 -62 -41 -89 -80 -20 -30 -35 -57 -32 -60 3 -3 17
12 31 34 56 84 96 107 215 121 l67 7 -71 2 c-57 1 -80 -4 -121 -24z"/>
<path d="M4490 1791 c0 -6 13 -11 28 -11 17 0 38 -10 51 -24 25 -26 44 -91 35
-118 -3 -10 -1 -18 5 -18 7 0 11 24 11 59 0 76 -25 110 -88 118 -28 4 -42 2
-42 -6z"/>
<path d="M4470 1504 c-23 -8 -28 -13 -15 -13 30 -1 65 10 65 20 0 11 -5 10
-50 -7z"/>
<path d="M4663 1409 c84 -63 73 -179 -24 -263 -26 -22 -36 -36 -27 -36 9 0 37
23 62 51 56 62 73 116 56 173 -12 39 -61 96 -84 96 -6 0 2 -10 17 -21z"/>
<path d="M2375 1370 c3 -5 26 -10 50 -10 66 0 108 -40 111 -104 3 -67 14 -70
14 -4 0 67 -24 102 -78 118 -48 13 -105 13 -97 0z"/>
<path d="M2984 1360 c-12 -5 -29 -19 -38 -32 -18 -25 -22 -88 -6 -88 6 0 10
15 10 33 0 38 27 68 75 85 28 10 29 10 5 11 -14 0 -35 -4 -46 -9z"/>
<path d="M4375 1270 c10 -33 23 -48 54 -65 38 -19 117 -29 125 -16 5 7 -7 11
-34 11 -51 0 -90 20 -125 62 -24 30 -26 31 -20 8z"/>
<path d="M285 1271 c-3 -6 8 -8 28 -4 23 3 50 -2 81 -15 54 -24 60 -20 14 8
-34 21 -112 27 -123 11z"/>
<path d="M2221 1229 c-10 -34 -10 -44 4 -65 8 -13 23 -24 32 -24 14 0 13 4 -6
21 -23 21 -24 44 -6 92 4 9 3 17 -2 17 -6 0 -15 -18 -22 -41z"/>
<path d="M3380 1216 c-5 -15 -10 -30 -10 -33 0 -14 -47 -68 -83 -94 -127 -92
-312 -65 -374 55 -10 18 -18 26 -21 18 -8 -25 46 -89 95 -113 38 -19 64 -24
128 -24 71 0 89 4 148 33 73 36 112 78 128 137 12 44 4 59 -11 21z"/>
<path d="M525 894 c35 -27 129 -72 189 -89 85 -25 306 -22 306 4 0 5 -24 4
-52 -1 -121 -23 -287 8 -391 72 -50 31 -87 41 -52 14z"/>
</g>
</svg>
