<?xml version="1.0" encoding="UTF-8" standalone="no"?>
<!-- Created with Inkscape (http://www.inkscape.org/) -->

<svg
   width="546mm"
   height="546mm"
   viewBox="0 0 546 546"
   version="1.1"
   id="svg1"
   inkscape:version="1.3.2 (091e20e, 2023-11-25, custom)"
   sodipodi:docname="hex_gosper_d3.svg"
   xmlns:inkscape="http://www.inkscape.org/namespaces/inkscape"
   xmlns:sodipodi="http://sodipodi.sourceforge.net/DTD/sodipodi-0.dtd"
   xmlns="http://www.w3.org/2000/svg"
   xmlns:svg="http://www.w3.org/2000/svg">
  <sodipodi:namedview
     id="namedview1"
     pagecolor="#ffffff"
     bordercolor="#000000"
     borderopacity="0.25"
     inkscape:showpageshadow="2"
     inkscape:pageopacity="0.0"
     inkscape:pagecheckerboard="0"
     inkscape:deskcolor="#d1d1d1"
     inkscape:document-units="mm"
     inkscape:zoom="0.28991378"
     inkscape:cx="177.63902"
     inkscape:cy="1190.009"
     inkscape:window-width="1920"
     inkscape:window-height="992"
     inkscape:window-x="-8"
     inkscape:window-y="-8"
     inkscape:window-maximized="1"
     inkscape:current-layer="layer1" />
  <defs
     id="defs1" />
  <g
     inkscape:label="Layer 1"
     inkscape:groupmode="layer"
     id="layer1">
    <path
       d="m 2046.7083,1318.7122 26.6404,-46.1425 v 0 h -53.2807 v 0 l -26.6404,-46.1425 v 0 h 53.2807 v 0 h 53.2808 v 0 l 26.6403,46.1425 v 0 h 53.2808 v 0 l 26.6403,-46.1425 v 0 l 26.6404,-46.1425 v 0 h -53.2807 v 0 l -26.6404,46.1425 v 0 l -26.6404,-46.1425 v 0 l 26.6404,-46.1424 v 0 l -26.6404,-46.1425 v 0 h -53.2807 v 0 h -53.2807 v 0 l 26.6403,46.1425 v 0 h 53.2808 v 0 l -26.6404,46.1424 v 0 h -53.2807 v 0 l -26.6404,-46.1424 v 0 h -53.2807 v 0 l 26.6403,46.1424 v 0 l -26.6403,46.1425 v 0 l -26.6404,-46.1425 v 0 l -26.6404,-46.1424 v 0 l 26.6404,-46.1425 v 0 h 53.2807 v 0 l 26.6404,-46.1425 v 0 h -53.2807 v 0 l -26.6404,-46.14243 v 0 h 53.2807 v 0 h 53.2808 v 0 l 26.6403,46.14243 v 0 h 53.2808 v 0 l 26.6403,-46.14243 v 0 h -53.2807 v 0 l -26.6404,-46.1425 v 0 h 53.2808 v 0 h 53.2807 v 0 l 26.6404,46.1425 v 0 l -26.6404,46.14243 v 0 l 26.6404,46.1425 v 0 l 26.6403,46.1425 v 0 l 26.6404,-46.1425 v 0 l -26.6404,-46.1425 v 0 h 53.2808 v 0 l 26.6403,46.1425 v 0 h 53.2808 v 0 l 26.6404,-46.1425 v 0 h -53.2808 v 0 l -26.6404,-46.14243 v 0 h 53.2808 v 0 h 53.2807 v 0 l 26.6404,46.14243 v 0 h 53.2807 v 0 l 26.6404,-46.14243 v 0 l 26.6404,-46.1425 v 0 h -53.2808 v 0 l -26.6403,46.1425 v 0 l -26.6404,-46.1425 v 0 l 26.6404,-46.14244 v 0 h 53.2807 v 0 l 26.6404,-46.14247 v 0 l 26.6403,-46.14248 v 0 h -53.2807 v 0 l -26.6404,46.14248 v 0 l -26.6403,-46.14248 v 0 l 26.6403,-46.14248 v 0 l -26.6403,-46.14248 v 0 h -53.2808 v 0 h -53.2807 v 0 l 26.6404,46.14248 v 0 h 53.2807 v 0 l -26.6404,46.14248 v 0 h -53.2807 v 0 l -26.6404,46.14248 v 0 l 26.6404,46.14247 v 0 l 26.6404,-46.14247 v 0 h 53.2807 v 0 l -26.6404,46.14247 v 0 l -26.6403,46.14244 v 0 h -53.2808 v 0 l -26.6404,-46.14244 v 0 h -53.2807 v 0 l 26.6404,46.14244 v 0 l -26.6404,46.1425 v 0 l -26.6404,-46.1425 v 0 l -26.6403,-46.14244 v 0 l 26.6403,-46.14247 v 0 h 53.2808 v 0 l 26.6403,-46.14248 v 0 l 26.6404,-46.14248 v 0 h -53.2807 v 0 l -26.6404,46.14248 v 0 l -26.6404,-46.14248 v 0 l 26.6404,-46.14248 v 0 l -26.6404,-46.14244 v 0 h -53.2807 v 0 l 26.6404,46.14244 v 0 l -26.6404,46.14248 v 0 l -26.6404,-46.14248 v 0 l -26.6403,-46.14244 v 0 l 26.6403,-46.14248 v 0 l -26.6403,-46.14252 v 0 h -53.2808 v 0 h -53.2807 v 0 l 26.6404,46.14252 v 0 h 53.2807 v 0 l -26.6404,46.14248 v 0 h -53.2807 v 0 l -26.6404,-46.14248 v 0 h -53.2807 v 0 h -53.2807 v 0 l 26.6403,46.14248 v 0 h 53.2808 v 0 l -26.6404,46.14244 v 0 h -53.2807 v 0 l -26.6404,46.14248 v 0 l 26.6404,46.14248 v 0 l 26.6403,46.14248 v 0 l 26.6404,-46.14248 v 0 l -26.6404,-46.14248 v 0 h 53.2808 v 0 l 26.6403,46.14248 v 0 h 53.2808 v 0 l 26.6403,-46.14248 v 0 h -53.2807 v 0 l -26.6404,-46.14248 v 0 h 53.2808 v 0 h 53.2807 v 0 l 26.6404,46.14248 v 0 l -26.6404,46.14248 v 0 l 26.6404,46.14248 v 0 l 26.6403,-46.14248 v 0 h 53.2808 v 0 l -26.6404,46.14248 v 0 l -26.6404,46.14247 v 0 h -53.2807 v 0 l -26.6404,-46.14247 v 0 h -53.2807 v 0 h -53.2807 v 0 l 26.6403,46.14247 v 0 h 53.2808 v 0 l -26.6404,46.14244 v 0 h -53.2807 v 0 l -26.6404,-46.14244 v 0 h -53.2807 v 0 l 26.6403,46.14244 v 0 l -26.6403,46.1425 v 0 l -26.6404,-46.1425 v 0 l -26.6404,-46.14244 v 0 l 26.6404,-46.14247 v 0 l -26.6404,-46.14248 v 0 h -53.2807 v 0 h -53.2808 v 0 l 26.6404,46.14248 v 0 h 53.2807 v 0 l -26.6403,46.14247 v 0 h -53.2808 v 0 l -26.6403,46.14244 v 0 l 26.6403,46.1425 v 0 l 26.6404,46.14243 v 0 l 26.6404,-46.14243 v 0 l -26.6404,-46.1425 v 0 h 53.2807 v 0 l 26.6404,46.1425 v 0 l -26.6404,46.14243 v 0 l 26.6404,46.1425 v 0 l 26.6404,-46.1425 v 0 h 53.2807 v 0 l -26.6403,46.1425 v 0 l -26.6404,46.1425 v 0 h -53.2808 v 0 l -26.6403,-46.1425 v 0 h -53.2808 v 0 l 26.6404,46.1425 v 0 l -26.6404,46.1424 v 0 l -26.6403,-46.1424 v 0 l -26.6404,-46.1425 v 0 l 26.6404,-46.1425 v 0 l -26.6404,-46.14243 v 0 h -53.2807 v 0 l 26.6403,46.14243 v 0 l -26.6403,46.1425 v 0 l -26.6404,-46.1425 v 0 l -26.6404,-46.14243 v 0 l 26.6404,-46.1425 v 0 h 53.2807 v 0 l 26.6404,-46.14244 v 0 l 26.6404,-46.14247 v 0 h -53.2808 v 0 l -26.6403,46.14247 v 0 l -26.6404,-46.14247 v 0 l 26.6404,-46.14248 v 0 h 53.2807 v 0 l 26.6404,-46.14248 v 0 h -53.2808 v 0 l -26.6403,-46.14248 v 0 h 53.2807 v 0 h 53.2807 v 0 l 26.6404,46.14248 v 0 h 53.2807 v 0 l 26.6404,-46.14248 v 0 l 26.6404,-46.14244 v 0 h -53.2808 v 0 l -26.6403,46.14244 v 0 l -26.6404,-46.14244 v 0 l 26.6404,-46.14248 v 0 l -26.6404,-46.14252 v 0 h -53.2807 v 0 h -53.2808 v 0 l 26.6404,46.14252 v 0 h 53.2807 v 0 l -26.6403,46.14248 v 0 h -53.2808 v 0 l -26.6403,-46.14248 v 0 h -53.2808 v 0 l 26.6404,46.14248 v 0 l -26.6404,46.14244 v 0 l -26.6403,-46.14244 v 0 l -26.6404,-46.14248 v 0 l 26.6404,-46.14252 v 0 h 53.2807 v 0 l 26.6404,-46.14244 v 0 h -53.2808 v 0 L 1513.901,488.1477 v 0 h 53.2807 v 0 h 53.2807 v 0 l 26.6404,46.14244 v 0 h 53.2807 v 0 l 26.6404,-46.14244 v 0 h -53.2807 v 0 l -26.6404,-46.14252 v 0 h 53.2807 v 0 h 53.2808 v 0 l 26.6403,46.14252 v 0 l -26.6403,46.14244 v 0 l 26.6403,46.14244 v 0 l 26.6404,46.14252 v 0 l 26.6404,-46.14252 v 0 l -26.6404,-46.14244 v 0 h 53.2808 v 0 l 26.6403,46.14244 v 0 h 53.2808 v 0 l 26.6403,-46.14244 v 0 h -53.2807 v 0 l -26.6404,-46.14244 v 0 h 53.2808 v 0 h 53.2807 v 0 l 26.6404,46.14244 v 0 h 53.2807 v 0 l 26.6404,-46.14244 v 0 l 26.6403,-46.14252 v 0 h -53.2807 v 0 l -26.6404,46.14252 v 0 l -26.6403,-46.14252 v 0 l 26.6403,-46.14244 v 0 l -26.6403,-46.14252 v 0 h -53.2808 v 0 h -53.2807 v 0 l 26.6404,46.14252 v 0 h 53.2807 v 0 l -26.6404,46.14244 v 0 h -53.2807 v 0 l -26.6404,-46.14244 v 0 h -53.2807 v 0 l 26.6404,46.14244 v 0 l -26.6404,46.14252 v 0 l -26.6404,-46.14252 v 0 l -26.6404,-46.14244 v 0 l 26.6404,-46.14252 v 0 h 53.2808 v 0 l 26.6403,-46.14244 v 0 h -53.2807 v 0 l -26.6404,-46.14243 v 0 h 53.2808 v 0 h 53.2807 v 0 l 26.6404,46.14243 v 0 h 53.2807 v 0 l 26.6404,-46.14243 v 0 h -53.2808 v 0 l -26.6403,-46.14252 v 0 h 53.2807 v 0 h 53.2807 v 0 l 26.6404,46.14252 v 0 l -26.6404,46.14243 v 0 l 26.6404,46.14244 v 0 l 26.6404,46.14252 v 0 l 26.6403,-46.14252 v 0 l -26.6403,-46.14244 v 0 h 53.2807 v 0 l 26.6404,46.14244 v 0 l -26.6404,46.14252 v 0 l 26.6404,46.14244 v 0 l 26.6403,-46.14244 v 0 h 53.2808 v 0 l -26.6404,46.14244 v 0 l -26.6404,46.14252 v 0 h -53.2807 v 0 l -26.6404,46.14244 v 0 l 26.6404,46.14244 v 0 l 26.6404,46.14252 v 0 l 26.6403,-46.14252 v 0 l -26.6403,-46.14244 v 0 h 53.2807 v 0 l 26.6404,46.14244 v 0 l -26.6404,46.14252 v 0 l 26.6404,46.14248 v 0 l 26.6403,46.14244 v 0 l 26.6404,-46.14244 v 0 l -26.6404,-46.14248 v 0 h 53.2808 v 0 l 26.6404,46.14248 v 0 h 53.2807 v 0 l 26.6404,-46.14248 v 0 l 26.6403,-46.14252 v 0 h -53.2807 v 0 l -26.6404,46.14252 v 0 l -26.6403,-46.14252 v 0 l 26.6403,-46.14244 v 0 l -26.6403,-46.14244 v 0 h -53.2808 v 0 l 26.6404,46.14244 v 0 l -26.6404,46.14244 v 0 l -26.6404,-46.14244 v 0 l -26.6403,-46.14244 v 0 l 26.6403,-46.14252 v 0 h 53.2808 v 0 l 26.6404,-46.14244 v 0 h -53.2808 v 0 l -26.6404,-46.14252 v 0 h 53.2808 v 0 h 53.2807 v 0 l 26.6404,46.14252 v 0 l -26.6404,46.14244 v 0 l 26.6404,46.14252 v 0 l 26.6404,46.14244 v 0 l 26.6403,-46.14244 v 0 l -26.6403,-46.14252 v 0 h 53.2807 v 0 l 26.6404,46.14252"
       id="path1-4"
       style="fill:none;fill-opacity:1;stroke:#000000;stroke-opacity:1;vector-effect:non-scaling-stroke"
       transform="matrix(0.43556478,0,0,0.43556478,-612.39651,-52.863575)" />
    <!-- <circle
       style="display:inline;fill:none;stroke:#000000;stroke-width:0.284607;stroke-opacity:1"
       id="path1"
       cx="273"
       cy="273"
       r="273" /> -->
  </g>
</svg>
