<?xml version="1.0" encoding="UTF-8" standalone="no"?>
<!-- Created with Inkscape (http://www.inkscape.org/) -->

<svg
   width="546mm"
   height="546mm"
   viewBox="0 0 546 546"
   version="1.1"
   id="svg1"
   inkscape:version="1.3.2 (091e20e, 2023-11-25, custom)"
   sodipodi:docname="inkscape_hi.svg"
   xmlns:inkscape="http://www.inkscape.org/namespaces/inkscape"
   xmlns:sodipodi="http://sodipodi.sourceforge.net/DTD/sodipodi-0.dtd"
   xmlns="http://www.w3.org/2000/svg"
   xmlns:svg="http://www.w3.org/2000/svg">
  <sodipodi:namedview
     id="namedview1"
     pagecolor="#ffffff"
     bordercolor="#000000"
     borderopacity="0.25"
     inkscape:showpageshadow="2"
     inkscape:pageopacity="0.0"
     inkscape:pagecheckerboard="0"
     inkscape:deskcolor="#d1d1d1"
     inkscape:document-units="mm"
     inkscape:zoom="0.41"
     inkscape:cx="326.82927"
     inkscape:cy="1142.6829"
     inkscape:window-width="1920"
     inkscape:window-height="1001"
     inkscape:window-x="-9"
     inkscape:window-y="-9"
     inkscape:window-maximized="1"
     inkscape:current-layer="layer1" />
  <defs
     id="defs1" />
  <g
     inkscape:label="Layer 1"
     inkscape:groupmode="layer"
     id="layer1">
    <!-- <circle
       style="display:none;fill:none;stroke:#000000;stroke-width:0.284607;stroke-opacity:1"
       id="path1"
       cx="273"
       cy="273"
       r="273" /> -->
    <path
       style="fill:none;stroke:#000000;stroke-width:1;stroke-dasharray:none;stroke-opacity:1"
       d="m 85.072018,154.9279 -3.458213,216.48407 6.224783,-121.72906 h 90.605152 l 5.53314,-103.05472 -4.84149,219.9423 c 0,0 98.0601,61.64954 130.02878,-0.69164 4.72971,-9.22328 5.53312,-126.57057 5.53312,-126.57057 0,0 -12.44954,-3.45822 -10.37463,-11.06628 2.07494,-7.60807 20.05764,-11.75792 20.05764,-0.69164 0,11.06628 -6.91642,13.1412 -6.91642,13.1412"
       id="path2"
       sodipodi:nodetypes="ccccccscssc" />
    <path
       style="fill:none;stroke:#000000;stroke-width:1;stroke-dasharray:none;stroke-opacity:1"
       d="m 405.90954,174.2378 -3.22662,172.94715 c 0,0 -14.19715,-3.87194 -13.55183,9.67989 0.64532,13.55182 9.67989,12.26118 14.19715,12.26118 4.51728,0 10.3252,-4.51728 10.3252,-10.97055 0,-6.45324 -9.67986,-12.26116 -9.67986,-12.26116"
       id="path3" />
  </g>
</svg>
