<?xml version="1.0" encoding="UTF-8" standalone="no"?>
<!-- Created with Inkscape (http://www.inkscape.org/) -->

<svg
   width="546mm"
   height="546mm"
   viewBox="0 0 546 546"
   version="1.1"
   id="svg1"
   inkscape:version="1.3.2 (091e20e, 2023-11-25, custom)"
   sodipodi:docname="space_filling_path.svg"
   xmlns:inkscape="http://www.inkscape.org/namespaces/inkscape"
   xmlns:sodipodi="http://sodipodi.sourceforge.net/DTD/sodipodi-0.dtd"
   xmlns="http://www.w3.org/2000/svg"
   xmlns:svg="http://www.w3.org/2000/svg">
  <sodipodi:namedview
     id="namedview1"
     pagecolor="#ffffff"
     bordercolor="#000000"
     borderopacity="0.25"
     inkscape:showpageshadow="2"
     inkscape:pageopacity="0.0"
     inkscape:pagecheckerboard="0"
     inkscape:deskcolor="#d1d1d1"
     inkscape:document-units="mm"
     inkscape:zoom="0.41"
     inkscape:cx="769.5122"
     inkscape:cy="854.87805"
     inkscape:window-width="1920"
     inkscape:window-height="1001"
     inkscape:window-x="-9"
     inkscape:window-y="-9"
     inkscape:window-maximized="1"
     inkscape:current-layer="layer1" />
  <defs
     id="defs1" />
  <g
     inkscape:label="Layer 1"
     inkscape:groupmode="layer"
     id="layer1">
    <circle
       style="display:inline;fill:none;stroke:#000000;stroke-width:0.284607;stroke-opacity:1"
       id="path1"
       cx="273"
       cy="273"
       r="273" />
    <path
       style="fill:none;stroke:#000000;stroke-width:1"
       d="m 272.97255,260.06605 c 0,0 2.5813,-50.98069 24.52235,-43.88211 21.94108,7.09858 -2.5813,37.42886 5.16261,50.98069 7.7439,13.55183 39.36484,1.93598 41.30082,-21.94106 1.93598,-23.87703 2.5813,-42.59146 -13.55183,-50.33536 -16.13312,-7.7439 -40.65547,-7.7439 -42.59146,-26.45833 -1.93598,-18.71443 14.84247,-43.23679 38.07418,-46.46342 23.23171,-3.22662 -2.5813,34.84756 15.48781,43.88212 18.06911,9.03455 34.84755,-2.58131 34.84755,-18.71444 0,-16.13313 4.51729,-42.59146 -22.58636,-50.980687 -27.10368,-8.389226 -50.98071,-15.487803 -67.11384,5.807927 -16.13313,21.29573 -43.23678,47.75407 -34.84755,66.4685 8.38922,18.71443 33.55691,31.62093 17.42378,40.65548 -16.13313,9.03455 -35.49289,12.90651 -45.17277,-9.67987 -9.67987,-22.58639 -16.77845,-47.10874 -6.45325,-60.66057 10.3252,-13.55183 5.80793,-32.91159 -12.9065,-31.62094 -18.71443,1.29065 -25.16769,23.87703 -23.87704,41.94614 1.29066,18.06911 18.71444,40.65549 1.29066,54.85264 -17.42379,14.19715 -48.39939,-6.45325 -49.04472,-29.68496 -0.64533,-23.2317 9.03455,-53.56199 24.52236,-70.98577 15.4878,-17.42378 42.59146,-39.364837 55.49796,-28.394307 12.90651,10.970527 29.68496,23.231707 42.59147,14.842479 12.90649,-8.389228 27.10366,-27.748984 14.84247,-36.138212 -12.26117,-8.389226 -36.78353,-15.487803 -64.53251,-6.453251 -27.74899,9.034552 -52.91667,-3.226625 -66.4685,25.167682 -13.55183,28.394309 -18.71443,78.084349 -40.010159,84.537599 -21.295733,6.45325 3.226629,-32.26626 -15.487806,-30.97561 -18.714431,1.29065 -37.42886,23.87704 -38.719511,45.81809 -1.29065,21.94106 5.807927,25.81301 21.295731,23.87703 15.487805,-1.93597 23.877031,-24.52235 35.492885,-17.42378 11.61585,7.09858 11.61585,27.74899 28.39431,36.13822 16.77845,8.38922 48.39939,20.6504 66.46849,9.03455 18.06911,-11.61586 37.42886,10.3252 32.26626,24.52236 -5.1626,14.19715 -27.10366,28.39429 -38.71951,18.06909 -11.61585,-10.32519 -37.42886,-29.68495 -46.46341,-16.77845 -9.03455,12.90651 10.3252,52.91667 40.65549,52.27135 30.33028,-0.64532 23.87703,-30.3303 53.56199,-25.81302 29.68495,4.51729 34.84755,37.42886 20.00508,44.52745 -14.84248,7.09858 -22.58638,-17.42379 -33.55691,-7.09859 -10.97053,10.32521 -37.42886,30.97562 -63.8872,20.00509 -26.45833,-10.97052 -37.42886,-28.39431 -41.30081,-49.69004 -3.87195,-21.29573 18.71443,-29.03963 4.51728,-42.59146 -14.19716,-13.55183 -39.364838,3.22662 -37.428863,29.03963 1.935974,25.81302 7.743901,49.0447 21.295733,60.01525 13.55183,10.97053 -11.615857,52.27133 -23.231708,31.62094 -11.615854,-20.65041 -2.581302,-35.4929 -24.522358,-43.23681 -21.941057,-7.7439 -20.650407,-39.36484 -5.807927,-37.42885 14.842479,1.93598 36.138209,-43.23679 10.325203,-32.26626 -25.813009,10.97053 -45.818089,6.45325 -42.591463,-5.80793 3.226626,-12.26117 52.271339,-22.58638 52.271339,-22.58638"
       id="path2" />
  </g>
</svg>
