<?xml version="1.0" encoding="UTF-8" standalone="no"?>
<!-- Created with Inkscape (http://www.inkscape.org/) -->

<svg
   width="546mm"
   height="546mm"
   viewBox="0 0 546 546"
   version="1.1"
   id="svg1"
   inkscape:version="1.3.2 (091e20e, 2023-11-25, custom)"
   sodipodi:docname="youre_hot.svg"
   xmlns:inkscape="http://www.inkscape.org/namespaces/inkscape"
   xmlns:sodipodi="http://sodipodi.sourceforge.net/DTD/sodipodi-0.dtd"
   xmlns="http://www.w3.org/2000/svg"
   xmlns:svg="http://www.w3.org/2000/svg">
  <sodipodi:namedview
     id="namedview1"
     pagecolor="#ffffff"
     bordercolor="#000000"
     borderopacity="0.25"
     inkscape:showpageshadow="2"
     inkscape:pageopacity="0.0"
     inkscape:pagecheckerboard="0"
     inkscape:deskcolor="#d1d1d1"
     inkscape:document-units="mm"
     inkscape:zoom="0.4665165"
     inkscape:cx="1027.8308"
     inkscape:cy="982.81627"
     inkscape:window-width="1920"
     inkscape:window-height="1001"
     inkscape:window-x="-9"
     inkscape:window-y="-9"
     inkscape:window-maximized="1"
     inkscape:current-layer="layer1" />
  <defs
     id="defs1" />
  <circle
     style="display:inline;fill:none;stroke:#000000;stroke-width:0.284607;stroke-opacity:1;opacity:0"
     id="path1"
     cx="273"
     cy="273"
     r="273" />
  <g
     inkscape:label="Layer 1"
     inkscape:groupmode="layer"
     id="layer1">
    <path
       id="path9"
       style="fill:none;stroke:#000000;stroke-width:0.0194212in;stroke-linecap:round;stroke-linejoin:round"
       d="m 327.33889,315.02236 -0.52471,7.05182 -11.87156,0.70518 11.87156,-1.05777 21.77544,-0.35259 -21.77544,0.35259 -3.09907,20.33274 -3.09907,13.63352 -3.09906,8.20361 -3.62378,9.99596 11.88795,-7.03419 14.93783,-11.87057 10.82214,-10.69525 M 302.93028,319.4097 h -2.30273 l -10.39875,3.52468 -9.68602,7.44718 -8.77226,11.01536 -4.56887,11.31375 1.09654,10.94079 5.29988,5.84335 4.02062,5.47039 17.25208,-5.47039 10.92878,-9.6975 7.4838,-11.0651 1.15137,-9.6975 -2.30272,-9.83426 -3.44494,-4.69956 -5.75678,-5.09119 m -56.65904,-34.35757 h -10.82213 l -9.83831,3.29085 -10.90412,10.34267 -2.57436,11.51797 -3.09906,14.10363 -3.09907,17.0419 -2.59075,13.63351 -4.11569,16.67756 8.25597,-13.7393 11.87976,-14.80882 11.82236,-12.22315 9.34639,-6.93429 4.09929,-0.82271 1.63972,6.34664 -4.75518,14.80882 -4.09929,13.63351 -2.62355,8.19187 -1.47575,8.14485 14.92143,-9.26139 15.0854,-12.59925 7.21476,-8.10959 m 87.18795,-146.16544 11.5889,-5.84096 14.28769,-11.28369 5.18034,-5.84096 1.50396,-6.37196 -3.00793,-2.52224 -6.85141,-0.39824 -11.11265,5.84096 -8.43893,9.69069 -4.72914,14.20417 -2.10555,11.28368 2.63194,9.18624 5.79028,6.69056 5.26388,4.18824 17.8805,-14.62232 11.53042,-10.48719 8.02116,-9.1597 m -94.81679,-17.52289 9.475,-6.37196 5.26388,-2.92048 -5.26388,22.56736 -4.21111,20.57613 -0.53475,9.99601 v 4.1816 l 4.74586,-13.38112 7.36944,-13.00942 6.31666,-13.27492 7.82063,-10.48719 4.3448,-4.24797 5.68165,-1.99124 6.85141,0.39825 m -113.16519,6.63746 11.0458,-6.23921 3.15833,-1.72574 -4.73749,16.72639 -2.10556,15.92991 -1.57916,9.55794 v 12.18638 4.59312 l 8.95696,-6.69056 12.03174,-12.61117 8.02116,-11.68193 8.35537,-13.27492 7.35273,-13.40767 -5.18033,16.7264 -4.3448,17.12464 -2.50661,14.19089 -1.16975,10.04248 12.70017,-8.35656 12.03174,-11.76158 12.19884,-12.47843 m -89.12364,-25.01028 c 0,0 -1.55705,-0.12909 -2.31929,0 -3.64547,0.61739 -10.4736,3.65233 -10.4736,3.65233 l -9.75573,7.71687 -8.83538,11.41428 -4.60177,11.72348 1.10443,11.33697 5.33804,6.05499 4.04955,5.66848 17.37625,-5.66848 11.0074,-10.04869 7.53769,-11.46581 1.15965,-10.04869 -2.3193,-10.19041 -3.46972,-4.86975 -5.79822,-5.27557 m -85.73764,6.1599 1.58752,-0.39825 7.88748,-4.64622 5.26388,-2.92048 -5.26388,23.4966 -3.15833,21.23988 1.57916,12.99614 13.15972,-11.2704 11.09593,-13.80592 7.85406,-11.68193 10.52777,-18.85039 -5.34744,19.64688 -4.67901,28.02336 -4.17769,18.39904 -4.67901,8.40302 -6.35008,4.51348 -9.50842,2.52223 -17.37918,-1.19474" />
  </g>
</svg>
