<?xml version="1.0" encoding="UTF-8" standalone="no"?>
<!-- Created with Inkscape (http://www.inkscape.org/) -->

<svg
   width="546mm"
   height="546mm"
   viewBox="0 0 546 546"
   version="1.1"
   id="svg1"
   inkscape:version="1.3.2 (091e20e, 2023-11-25, custom)"
   sodipodi:docname="hilbert_d6.svg"
   xmlns:inkscape="http://www.inkscape.org/namespaces/inkscape"
   xmlns:sodipodi="http://sodipodi.sourceforge.net/DTD/sodipodi-0.dtd"
   xmlns="http://www.w3.org/2000/svg"
   xmlns:svg="http://www.w3.org/2000/svg">
  <sodipodi:namedview
     id="namedview1"
     pagecolor="#ffffff"
     bordercolor="#000000"
     borderopacity="0.25"
     inkscape:showpageshadow="2"
     inkscape:pageopacity="0.0"
     inkscape:pagecheckerboard="0"
     inkscape:deskcolor="#d1d1d1"
     inkscape:document-units="mm"
     inkscape:zoom="0.38"
     inkscape:cx="772.36842"
     inkscape:cy="1046.0526"
     inkscape:window-width="1920"
     inkscape:window-height="1001"
     inkscape:window-x="-9"
     inkscape:window-y="-9"
     inkscape:window-maximized="1"
     inkscape:current-layer="layer1" />
  <defs
     id="defs1" />
  <g
     inkscape:label="Layer 1"
     inkscape:groupmode="layer"
     id="layer1">
    <!-- <circle
       style="display:inline;fill:none;stroke:#000000;stroke-width:0.284607;stroke-opacity:1"
       id="path1"
       cx="273"
       cy="273"
       r="273" /> -->
    <path
       inkscape:connector-curvature="0"
       id="path4429"
       d="m 463.41718,461.87563 h -5.99606 v -5.99603 h 5.99606 v -11.99211 h -5.99606 v 5.99605 h -5.99605 v -5.99605 h -5.99604 v 11.99211 h 5.99604 v 5.99603 h -11.99209 v -5.99603 h -5.99607 v 5.99603 h -11.9921 v -5.99603 h 5.99607 v -5.99606 h -5.99607 v -5.99605 h 11.9921 v 5.99605 h 5.99607 v -17.98816 h -5.99607 v 5.99607 h -11.9921 v -5.99607 h 5.99607 v -5.99605 h -5.99607 v -5.99603 h 11.9921 v 5.99603 h 5.99607 v -5.99603 h 11.99209 v 5.99603 h -5.99604 v 11.99212 h 5.99604 v -5.99607 h 5.99605 v 5.99607 h 5.99606 v -11.99212 h -5.99606 v -5.99603 h 5.99606 v -11.99214 h -5.99606 v 5.99608 h -11.99209 v -5.99608 h 5.99604 v -5.99602 h -5.99604 v -5.99605 h 11.99209 v 5.99605 h 5.99606 v -11.99212 h -5.99606 v -5.99605 h 5.99606 v -11.99211 h -5.99606 v 5.99606 h -5.99605 v -5.99606 h -5.99604 v 11.99211 h 5.99604 v 5.99605 h -17.98816 v -5.99605 h 5.99607 v -11.99211 h -5.99607 v 5.99606 h -5.99603 v -5.99606 h -5.99607 v 11.99211 h 5.99607 v 5.99605 h -5.99607 v 11.99212 h 5.99607 v -5.99605 h 11.9921 v 5.99605 h -5.99607 v 5.99602 h 5.99607 v 5.99608 h -11.9921 v -5.99608 h -5.99607 v 5.99608 h -5.99606 v -5.99608 h -5.99604 v 5.99608 h -11.99212 v -5.99608 h 5.99607 v -5.99602 h -5.99607 v -5.99605 h 11.99212 v 5.99605 h 5.99604 v -11.99212 h -5.99604 v -5.99605 h 5.99604 v -11.99211 h -5.99604 v 5.99606 h -5.99605 v -5.99606 h -5.99607 v 11.99211 h 5.99607 v 5.99605 H 385.4685 v -5.99605 h 5.99607 v -11.99211 h -5.99607 v 5.99606 h -5.99606 v -5.99606 h -5.99603 v 11.99211 h 5.99603 v 5.99605 h -5.99603 v 11.99212 h 5.99603 v -5.99605 h 11.99213 v 5.99605 h -5.99607 v 5.99602 h 5.99607 v 5.99608 h -11.99213 v -5.99608 h -5.99603 v 11.99214 h 5.99603 v 5.99603 h -5.99603 v 11.99212 h 5.99603 v -5.99607 h 5.99606 v 5.99607 h 5.99607 v -11.99212 h -5.99607 v -5.99603 h 11.99209 v 5.99603 h 5.99607 v -5.99603 h 11.99209 v 5.99603 h -5.99604 v 5.99605 h 5.99604 v 5.99607 h -11.99209 v -5.99607 h -5.99607 v 17.98816 h 5.99607 v -5.99605 h 11.99209 v 5.99605 h -5.99604 v 5.99606 h 5.99604 v 5.99603 h -11.99209 v -5.99603 h -5.99607 v 5.99603 H 385.4685 v -5.99603 h 5.99607 v -11.99211 h -5.99607 v 5.99605 h -5.99606 v -5.99605 h -5.99603 v 11.99211 h 5.99603 v 5.99603 h -11.9921 v -5.99603 h -5.99605 v 5.99603 H 349.4922 v -5.99603 h 5.99607 v -5.99606 h -5.99607 v -5.99605 h 11.99209 v 5.99605 h 5.99605 v -11.99209 h -5.99605 v -5.99607 h 5.99605 V 419.9033 h -5.99605 v 5.99603 h -5.99602 v -5.99603 h -5.99607 v 11.99208 h 5.99607 v 5.99607 H 337.5001 v -5.99607 h 5.99604 V 419.9033 h -5.99604 v 5.99603 h -5.99605 v -5.99603 h -5.99607 v 11.99208 h 5.99607 v 5.99607 h -5.99607 v 11.99209 h 5.99607 v -5.99605 h 11.99209 v 5.99605 h -5.99604 v 5.99606 h 5.99604 v 5.99603 h -11.99209 v -5.99603 h -5.99607 v 5.99603 h -11.99209 v -5.99603 h 5.99605 v -11.99211 h -5.99605 v 5.99605 h -5.99606 v -5.99605 h -5.99603 v 11.99211 h 5.99603 v 5.99603 h -11.99211 v -5.99603 h -5.99605 v 5.99603 h -11.99209 v -5.99603 h 5.99606 v -5.99606 h -5.99606 v -5.99605 h 11.99209 v 5.99605 h 5.99605 v -17.98816 h -5.99605 v 5.99607 h -11.99209 v -5.99607 h 5.99606 v -5.99605 h -5.99606 v -5.99603 h 11.99209 v 5.99603 h 5.99605 v -5.99603 h 11.99211 v 5.99603 h -5.99603 v 11.99212 h 5.99603 v -5.99607 h 5.99606 v 5.99607 h 5.99605 v -11.99212 h -5.99605 v -5.99603 h 5.99605 v -5.99606 h -5.99605 v -5.99608 h 5.99605 v -11.99207 h -5.99605 v 5.99605 h -5.99606 v -5.99605 h -5.99603 v 11.99207 h 5.99603 v 5.99608 h -11.99211 v -5.99608 h -5.99605 v 5.99608 h -11.99209 v -5.99608 h 5.99606 v -5.99602 h -5.99606 v -5.99605 h 11.99209 v 5.99605 h 5.99605 v -17.98817 h -5.99605 v 5.99605 h -11.99209 v -5.99605 h 5.99606 v -5.99605 h -5.99606 v -5.99606 h 11.99209 v 5.99606 h 5.99605 v -5.99606 h 11.99211 v 5.99606 h -5.99603 v 11.9921 h 5.99603 v -5.99605 h 5.99606 v 5.99605 h 5.99605 v -11.9921 h -5.99605 v -5.99606 h 11.99209 v 5.99606 h 5.99607 v -5.99606 h 11.99209 v 5.99606 h -5.99604 v 5.99605 h 5.99604 v 5.99605 h -11.99209 v -5.99605 h -5.99607 v 11.99212 h 5.99607 v 5.99605 h -5.99607 v 11.9921 h 5.99607 v -5.99608 h 5.99605 v 5.99608 h 5.99604 v -11.9921 h -5.99604 v -5.99605 h 17.98817 v 5.99605 h -5.99607 v 11.9921 h 5.99607 v -5.99608 h 5.99602 v 5.99608 h 5.99605 v -11.9921 h -5.99605 v -5.99605 h 5.99605 v -11.99212 h -5.99605 v 5.99605 H 349.4922 v -5.99605 h 5.99607 v -5.99605 h -5.99607 v -5.99606 h 11.99209 v 5.99606 h 5.99605 v -17.98816 h -5.99605 v 5.99607 H 349.4922 v -5.99607 h 5.99607 v -5.99605 h -5.99607 v -5.99603 h 11.99209 v 5.99603 h 5.99605 v -11.99209 h -5.99605 v -5.99607 h 5.99605 v -11.99208 h -5.99605 v 5.99604 h -5.99602 v -5.99604 h -5.99607 v 11.99208 h 5.99607 v 5.99607 H 337.5001 v -5.99607 h 5.99604 v -11.99208 h -5.99604 v 5.99604 h -5.99605 v -5.99604 h -5.99607 v 11.99208 h 5.99607 v 5.99607 h -5.99607 v 11.99209 h 5.99607 v -5.99603 h 11.99209 v 5.99603 h -5.99604 v 5.99605 h 5.99604 v 5.99607 h -11.99209 v -5.99607 h -5.99607 v 5.99607 h -11.99209 v -5.99607 h 5.99605 v -11.99208 h -5.99605 v 5.99603 h -5.99606 v -5.99603 h -5.99603 v 11.99208 h 5.99603 v 5.99607 h -11.99211 v -5.99607 h -5.99605 v 5.99607 h -11.99209 v -5.99607 h 5.99606 v -5.99605 h -5.99606 v -5.99603 h 11.99209 v 5.99603 h 5.99605 v -17.98816 h -5.99605 v 5.99607 h -11.99209 v -5.99607 h 5.99606 v -5.99604 h -5.99606 v -5.99604 h 11.99209 v 5.99604 h 5.99605 v -5.99604 h 11.99211 v 5.99604 h -5.99603 v 11.99211 h 5.99603 v -5.99607 h 5.99606 v 5.99607 h 5.99605 v -11.99211 h -5.99605 v -5.99604 h 5.99605 v -5.99608 h -5.99605 v -5.99603 h 5.99605 v -11.99212 h -5.99605 v 5.99606 h -5.99606 v -5.99606 h -5.99603 v 11.99212 h 5.99603 v 5.99603 h -11.99211 v -5.99603 h -5.99605 v 5.99603 h -11.99209 v -5.99603 h 5.99606 v -5.99606 h -5.99606 v -5.99606 h 11.99209 v 5.99606 h 5.99605 v -17.98815 h -5.99605 v 5.99605 h -11.99209 v -5.99605 h 5.99606 v -5.99607 h -5.99606 v -5.99604 h 11.99209 v 5.99604 h 5.99605 v -5.99604 h 11.99211 v 5.99604 h -5.99603 v 11.99212 h 5.99603 v -5.99605 h 5.99606 v 5.99605 h 5.99605 v -11.99212 h -5.99605 v -5.99604 h 11.99209 v 5.99604 h 5.99607 v -5.99604 h 11.99209 v 5.99604 h -5.99604 v 5.99607 h 5.99604 v 5.99605 h -11.99209 v -5.99605 h -5.99607 v 11.99209 h 5.99607 v 5.99606 h -5.99607 v 11.99209 h 5.99607 v -5.99603 h 5.99605 v 5.99603 h 5.99604 V 305.9783 h -5.99604 v -5.99606 h 17.98817 v 5.99606 h -5.99607 v 11.99209 h 5.99607 v -5.99603 h 5.99602 v 5.99603 h 5.99605 V 305.9783 h -5.99605 v -5.99606 h 5.99605 v -11.99209 h -5.99605 v 5.99605 H 349.4922 v -5.99605 h 5.99607 v -5.99607 h -5.99607 v -5.99604 h 11.99209 v 5.99604 h 5.99605 v -5.99604 h 11.9921 v 5.99604 h -5.99603 v 11.99212 h 5.99603 v -5.99605 h 5.99606 v 5.99605 h 5.99607 v -11.99212 h -5.99607 v -5.99604 h 11.99209 v 5.99604 h 5.99607 v -5.99604 h 11.99209 v 5.99604 h -5.99604 v 5.99607 h 5.99604 v 5.99605 h -11.99209 v -5.99605 h -5.99607 v 17.98815 h 5.99607 v -5.99606 h 11.99209 v 5.99606 h -5.99604 v 5.99606 h 5.99604 v 5.99603 h -11.99209 v -5.99603 h -5.99607 v 5.99603 H 385.4685 v -5.99603 h 5.99607 v -11.99212 h -5.99607 v 5.99606 h -5.99606 v -5.99606 h -5.99603 v 11.99212 h 5.99603 v 5.99603 h -5.99603 v 11.99212 h 5.99603 v -5.99604 h 11.99213 v 5.99604 h -5.99607 v 5.99604 h 5.99607 v 5.99607 h -11.99213 v -5.99607 h -5.99603 v 11.99213 h 5.99603 v 5.99603 h -5.99603 v 11.99212 h 5.99603 v -5.99607 h 5.99606 v 5.99607 h 5.99607 v -11.99212 h -5.99607 v -5.99603 h 17.98816 v 5.99603 h -5.99607 v 11.99212 h 5.99607 v -5.99607 h 5.99605 v 5.99607 h 5.99604 v -11.99212 h -5.99604 v -5.99603 h 5.99604 v -11.99213 h -5.99604 v 5.99607 h -11.99212 v -5.99607 h 5.99607 v -5.99604 h -5.99607 v -5.99604 h 11.99212 v 5.99604 h 5.99604 v -5.99604 h 5.99606 v 5.99604 h 5.99607 v -5.99604 h 11.9921 v 5.99604 h -5.99607 v 5.99604 h 5.99607 v 5.99607 h -11.9921 v -5.99607 h -5.99607 v 11.99213 h 5.99607 v 5.99603 h -5.99607 v 11.99212 h 5.99607 v -5.99607 h 5.99603 v 5.99607 h 5.99607 v -11.99212 h -5.99607 v -5.99603 h 17.98816 v 5.99603 h -5.99604 v 11.99212 h 5.99604 v -5.99607 h 5.99605 v 5.99607 h 5.99606 v -11.99212 h -5.99606 v -5.99603 h 5.99606 v -11.99213 h -5.99606 v 5.99607 h -11.99209 v -5.99607 h 5.99604 v -5.99604 h -5.99604 v -5.99604 h 11.99209 v 5.99604 h 5.99606 v -11.99212 h -5.99606 v -5.99603 h 5.99606 v -11.99212 h -5.99606 v 5.99606 h -5.99605 v -5.99606 h -5.99604 v 11.99212 h 5.99604 v 5.99603 h -11.99209 v -5.99603 h -5.99607 v 5.99603 h -11.9921 v -5.99603 h 5.99607 v -5.99606 h -5.99607 v -5.99606 h 11.9921 v 5.99606 h 5.99607 v -17.98815 h -5.99607 v 5.99605 h -11.9921 v -5.99605 h 5.99607 v -5.99607 h -5.99607 v -5.99604 h 11.9921 v 5.99604 h 5.99607 v -5.99604 h 11.99209 v 5.99604 h -5.99604 v 11.99212 h 5.99604 v -5.99605 h 5.99605 v 5.99605 h 5.99606 v -11.99212 h -5.99606 v -5.99604 h 5.99606 v -11.99211 h -5.99606 v 5.99606 h -11.99209 v -5.99606 h 5.99604 v -5.99603 h -5.99604 v -5.99607 h 11.99209 v 5.99607 h 5.99606 v -11.99212 h -5.99606 v -5.99604 h 5.99606 v -11.99212 h -5.99606 v 5.99606 h -5.99605 v -5.99606 h -5.99604 v 11.99212 h 5.99604 v 5.99604 h -17.98816 v -5.99604 h 5.99607 v -11.99212 h -5.99607 v 5.99606 h -5.99603 v -5.99606 h -5.99607 v 11.99212 h 5.99607 v 5.99604 h -5.99607 v 11.99212 h 5.99607 v -5.99607 h 11.9921 v 5.99607 h -5.99607 v 5.99603 h 5.99607 v 5.99606 h -11.9921 v -5.99606 h -5.99607 v 5.99606 h -11.9921 v -5.99606 h 5.99604 v -11.9921 h -5.99604 v 5.99607 h -5.99605 v -5.99607 h -5.99607 v 11.9921 h 5.99607 v 5.99606 h -11.99209 v -5.99606 h -5.99607 v 5.99606 h -11.99209 v -5.99606 h 5.99603 v -5.99603 h -5.99603 v -5.99607 h 11.99209 v 5.99607 h 5.99607 v -17.98816 h -5.99607 v 5.99604 h -11.99209 v -5.99604 h 5.99603 v -5.99606 h -5.99603 v -5.99606 h 11.99209 v 5.99606 h 5.99607 v -5.99606 h 11.99209 v 5.99606 h -5.99607 v 11.9921 h 5.99607 v -5.99604 h 5.99605 v 5.99604 h 5.99604 v -11.9921 h -5.99604 v -5.99606 h 5.99604 v -5.99605 h -5.99604 v -5.99604 h 5.99604 v -11.9921 h -5.99604 v 5.99603 h -5.99605 v -5.99603 h -5.99607 v 11.9921 h 5.99607 v 5.99604 h -11.99209 v -5.99604 h -5.99607 v 5.99604 h -11.99209 v -5.99604 h 5.99603 v -5.99607 h -5.99603 v -5.99603 h 11.99209 v 5.99603 h 5.99607 v -17.98815 h -5.99607 v 5.99605 h -11.99209 v -5.99605 h 5.99603 v -5.99604 h -5.99603 v -5.99607 h 11.99209 v 5.99607 h 5.99607 v -5.99607 h 11.99209 v 5.99607 h -5.99607 v 11.99209 h 5.99607 v -5.99605 h 5.99605 v 5.99605 h 5.99604 v -11.99209 h -5.99604 v -5.99607 h 11.9921 v 5.99607 h 5.99607 v -5.99607 h 11.9921 v 5.99607 h -5.99607 v 5.99604 h 5.99607 v 5.99605 h -11.9921 v -5.99605 h -5.99607 v 11.99212 h 5.99607 v 5.99603 h -5.99607 v 11.99211 h 5.99607 v -5.99604 h 5.99603 v 5.99604 h 5.99607 v -11.99211 h -5.99607 v -5.99603 h 17.98816 v 5.99603 h -5.99604 v 11.99211 h 5.99604 v -5.99604 h 5.99605 v 5.99604 h 5.99606 v -11.99211 h -5.99606 v -5.99603 h 5.99606 v -11.99212 h -5.99606 v 5.99605 h -11.99209 v -5.99605 h 5.99604 v -5.99604 h -5.99604 v -5.99607 h 11.99209 v 5.99607 h 5.99606 v -11.99212 h -5.99606 v -5.99602 h 5.99606 v -11.99214 h -5.99606 v 5.99607 h -5.99605 v -5.99607 h -5.99604 v 11.99214 h 5.99604 v 5.99602 h -11.99209 v -5.99602 h -5.99607 v 5.99602 h -11.9921 v -5.99602 h 5.99607 v -5.99607 h -5.99607 v -5.99607 h 11.9921 v 5.99607 h 5.99607 v -17.98817 h -5.99607 v 5.99607 h -11.9921 v -5.99607 h 5.99607 v -5.99604 h -5.99607 v -5.99605 h 11.9921 v 5.99605 h 5.99607 v -5.99605 h 11.99209 v 5.99605 h -5.99604 v 11.99211 h 5.99604 v -5.99607 h 5.99605 v 5.99607 h 5.99606 v -11.99211 h -5.99606 v -5.99605 h 5.99606 v -11.99212 h -5.99606 v 5.99607 h -11.99209 v -5.99607 h 5.99604 v -5.99602 h -5.99604 v -5.99607 h 11.99209 v 5.99607 h 5.99606 v -11.99214 h -5.99606 v -5.996028 h 5.99606 V 84.124366 h -5.99606 v 5.996065 h -5.99605 v -5.996065 h -5.99604 v 11.992125 h 5.99604 v 5.996029 h -17.98816 v -5.996029 h 5.99607 V 84.124366 h -5.99607 v 5.996065 h -5.99603 v -5.996065 h -5.99607 v 11.992125 h 5.99607 v 5.996029 h -5.99607 v 11.99214 h 5.99607 v -5.99607 h 11.9921 v 5.99607 h -5.99607 v 5.99602 h 5.99607 v 5.99607 h -11.9921 v -5.99607 h -5.99607 v 5.99607 h -5.99606 v -5.99607 h -5.99604 v 5.99607 h -11.99212 v -5.99607 h 5.99607 v -5.99602 h -5.99607 v -5.99607 h 11.99212 v 5.99607 h 5.99604 v -11.99214 h -5.99604 v -5.996029 h 5.99604 V 84.124366 h -5.99604 v 5.996065 h -5.99605 v -5.996065 h -5.99607 v 11.992125 h 5.99607 v 5.996029 H 385.4685 v -5.996029 h 5.99607 V 84.124366 h -5.99607 v 5.996065 h -5.99606 v -5.996065 h -5.99603 v 11.992125 h 5.99603 v 5.996029 h -5.99603 v 11.99214 h 5.99603 v -5.99607 h 11.99213 v 5.99607 h -5.99607 v 5.99602 h 5.99607 v 5.99607 h -11.99213 v -5.99607 h -5.99603 v 11.99212 h 5.99603 v 5.99605 h -5.99603 v 11.99211 h 5.99603 v -5.99607 h 5.99606 v 5.99607 h 5.99607 v -11.99211 h -5.99607 v -5.99605 h 11.99209 v 5.99605 h 5.99607 v -5.99605 h 11.99209 v 5.99605 h -5.99604 v 5.99604 h 5.99604 v 5.99607 h -11.99209 v -5.99607 h -5.99607 v 17.98817 h 5.99607 v -5.99607 h 11.99209 v 5.99607 h -5.99604 v 5.99607 h 5.99604 v 5.99602 h -11.99209 v -5.99602 h -5.99607 v 5.99602 H 385.4685 v -5.99602 h 5.99607 v -11.99214 h -5.99607 v 5.99607 h -5.99606 v -5.99607 h -5.99603 v 11.99214 h 5.99603 v 5.99602 h -17.98815 v -5.99602 h 5.99605 v -11.99214 h -5.99605 v 5.99607 h -5.99602 v -5.99607 h -5.99607 v 11.99214 h 5.99607 v 5.99602 h -11.99213 v -5.99602 h -5.99604 v 5.99602 h -11.99212 v -5.99602 h 5.99607 v -5.99607 h -5.99607 v -5.99607 h 11.99212 v 5.99607 h 5.99604 v -17.98817 h -5.99604 v 5.99607 h -11.99212 v -5.99607 h 5.99607 v -5.99604 h -5.99607 v -5.99605 h 11.99212 v 5.99605 h 5.99604 v -5.99605 h 11.99213 v 5.99605 h -5.99607 v 11.99211 h 5.99607 v -5.99607 h 5.99602 v 5.99607 h 5.99605 v -11.99211 h -5.99605 v -5.99605 h 5.99605 v -11.99212 h -5.99605 v 5.99607 H 349.4922 v -5.99607 h 5.99607 v -5.99602 h -5.99607 v -5.99607 h 11.99209 v 5.99607 h 5.99605 v -11.99214 h -5.99605 v -5.996029 h 5.99605 V 84.124366 h -5.99605 v 5.996065 h -5.99602 v -5.996065 h -5.99607 v 11.992125 h 5.99607 v 5.996029 H 337.5001 v -5.996029 h 5.99604 V 84.124366 h -5.99604 v 5.996065 h -5.99605 v -5.996065 h -5.99607 v 11.992125 h 5.99607 v 5.996029 h -5.99607 v 11.99214 h 5.99607 v -5.99607 h 11.99209 v 5.99607 h -5.99604 v 5.99602 h 5.99604 v 5.99607 h -11.99209 v -5.99607 h -5.99607 v 5.99607 h -5.99604 v -5.99607 h -5.99605 v 5.99607 H 301.5238 v -5.99607 h 5.99603 v -5.99602 h -5.99603 v -5.99607 h 11.99209 v 5.99607 h 5.99605 v -11.99214 h -5.99605 v -5.996029 h 5.99605 V 84.124366 h -5.99605 v 5.996065 h -5.99606 v -5.996065 h -5.99603 v 11.992125 h 5.99603 v 5.996029 h -17.98816 v -5.996029 h 5.99605 V 84.124366 h -5.99605 v 5.996065 h -5.99603 v -5.996065 h -5.99606 v 11.992125 h 5.99606 v 5.996029 h -5.99606 v 11.99214 h 5.99606 v -5.99607 h 11.99208 v 5.99607 h -5.99605 v 5.99602 h 5.99605 v 5.99607 h -11.99208 v -5.99607 h -5.99606 v 11.99212 h 5.99606 v 5.99605 h -5.99606 v 11.99211 h 5.99606 v -5.99607 h 5.99603 v 5.99607 h 5.99605 v -11.99211 h -5.99605 v -5.99605 h 11.99213 v 5.99605 h 5.99603 v -5.99605 h 11.99211 v 5.99605 h -5.99605 v 5.99604 h 5.99605 v 5.99607 h -11.99211 v -5.99607 h -5.99603 v 17.98817 h 5.99603 v -5.99607 h 11.99211 v 5.99607 h -5.99605 v 5.99607 h 5.99605 v 5.99602 h -11.99211 v -5.99602 h -5.99603 v 5.99602 h -11.99213 v -5.99602 h 5.99605 v -11.99214 h -5.99605 v 5.99607 h -5.99603 v -5.99607 h -5.99606 v 11.99214 h 5.99606 v 5.99602 h -5.99606 v 11.99212 h 5.99606 v -5.99607 h 11.99208 v 5.99607 h -5.99605 v 5.99604 h 5.99605 v 5.99605 h -11.99208 v -5.99605 h -5.99606 v 11.99212 h 5.99606 v 5.99603 h -5.99606 v 11.99211 h 5.99606 v -5.99604 h 5.99603 v 5.99604 h 5.99605 v -11.99211 h -5.99605 v -5.99603 h 17.98816 v 5.99603 h -5.99603 v 11.99211 h 5.99603 v -5.99604 h 5.99606 v 5.99604 h 5.99605 v -11.99211 h -5.99605 v -5.99603 h 5.99605 v -11.99212 h -5.99605 v 5.99605 H 301.5238 v -5.99605 h 5.99603 v -5.99604 h -5.99603 v -5.99607 h 11.99209 v 5.99607 h 5.99605 v -5.99607 h 11.99211 v 5.99607 h -5.99607 v 11.99209 h 5.99607 v -5.99605 h 5.99605 v 5.99605 h 5.99604 v -11.99209 h -5.99604 v -5.99607 h 11.9921 v 5.99607 h 5.99607 v -5.99607 h 11.99207 v 5.99607 h -5.99605 v 5.99604 h 5.99605 v 5.99605 h -11.99207 v -5.99605 h -5.99607 v 17.98815 h 5.99607 v -5.99603 h 11.99207 v 5.99603 h -5.99605 v 5.99607 h 5.99605 v 5.99604 h -11.99207 v -5.99604 h -5.99607 v 5.99604 h -11.9921 v -5.99604 h 5.99604 v -11.9921 h -5.99604 v 5.99603 h -5.99605 v -5.99603 h -5.99607 v 11.9921 h 5.99607 v 5.99604 h -5.99607 v 5.99605 h 5.99607 v 5.99606 h -5.99607 v 11.9921 h 5.99607 v -5.99604 h 5.99605 v 5.99604 h 5.99604 v -11.9921 h -5.99604 v -5.99606 h 11.9921 v 5.99606 h 5.99607 v -5.99606 h 11.99207 v 5.99606 h -5.99605 v 5.99606 h 5.99605 v 5.99604 h -11.99207 v -5.99604 h -5.99607 v 17.98816 h 5.99607 v -5.99607 h 11.99207 v 5.99607 h -5.99605 v 5.99603 h 5.99605 v 5.99606 h -11.99207 v -5.99606 h -5.99607 v 5.99606 h -11.9921 v -5.99606 h 5.99604 v -11.9921 h -5.99604 v 5.99607 h -5.99605 v -5.99607 h -5.99607 v 11.9921 h 5.99607 v 5.99606 h -11.99211 v -5.99606 h -5.99605 v 5.99606 H 301.5238 v -5.99606 h 5.99603 v -5.99603 h -5.99603 v -5.99607 h 11.99209 v 5.99607 h 5.99605 v -11.99212 h -5.99605 v -5.99604 h 5.99605 v -11.99212 h -5.99605 v 5.99606 h -5.99606 v -5.99606 h -5.99603 v 11.99212 h 5.99603 v 5.99604 h -17.98816 v -5.99604 h 5.99605 v -11.99212 h -5.99605 v 5.99606 h -5.99603 v -5.99606 h -5.99606 v 11.99212 h 5.99606 v 5.99604 h -5.99606 v 11.99212 h 5.99606 v -5.99607 h 11.99208 v 5.99607 h -5.99605 v 5.99603 h 5.99605 v 5.99606 h -11.99208 v -5.99606 h -5.99606 v 5.99606 h -5.99607 v -5.99606 h -5.99603 v 5.99606 h -11.99211 v -5.99606 h 5.99606 v -5.99603 h -5.99606 v -5.99607 h 11.99211 v 5.99607 h 5.99603 v -11.99212 h -5.99603 v -5.99604 h 5.99603 v -11.99212 h -5.99603 v 5.99606 h -5.99605 v -5.99606 h -5.99606 v 11.99212 h 5.99606 v 5.99604 h -17.98817 v -5.99604 h 5.99606 v -11.99212 h -5.99606 v 5.99606 h -5.99605 v -5.99606 h -5.99603 v 11.99212 h 5.99603 v 5.99604 h -5.99603 v 11.99212 h 5.99603 v -5.99607 h 11.99211 v 5.99607 h -5.99606 v 5.99603 h 5.99606 v 5.99606 h -11.99211 v -5.99606 h -5.99603 v 5.99606 h -11.99214 v -5.99606 h 5.99607 v -11.9921 h -5.99607 v 5.99607 h -5.99602 v -5.99607 h -5.99607 v 11.9921 h 5.99607 v 5.99606 h -11.99213 v -5.99606 h -5.99604 v 5.99606 h -11.99211 v -5.99606 h 5.99606 v -5.99603 h -5.99606 v -5.99607 h 11.99211 v 5.99607 h 5.99604 v -17.98816 h -5.99604 v 5.99604 h -11.99211 v -5.99604 h 5.99606 v -5.99606 h -5.99606 v -5.99606 h 11.99211 v 5.99606 h 5.99604 v -5.99606 h 11.99213 v 5.99606 h -5.99607 v 11.9921 h 5.99607 v -5.99604 h 5.99602 v 5.99604 h 5.99607 v -11.9921 h -5.99607 v -5.99606 h 5.99607 v -5.99605 h -5.99607 v -5.99604 h 5.99607 v -11.9921 h -5.99607 v 5.99603 h -5.99602 v -5.99603 h -5.99607 v 11.9921 h 5.99607 v 5.99604 h -11.99213 v -5.99604 h -5.99604 v 5.99604 h -11.99211 v -5.99604 h 5.99606 v -5.99607 h -5.99606 v -5.99603 h 11.99211 v 5.99603 h 5.99604 v -17.98815 h -5.99604 v 5.99605 h -11.99211 v -5.99605 h 5.99606 v -5.99604 h -5.99606 v -5.99607 h 11.99211 v 5.99607 h 5.99604 v -5.99607 h 11.99213 v 5.99607 h -5.99607 v 11.99209 h 5.99607 v -5.99605 h 5.99602 v 5.99605 h 5.99607 v -11.99209 h -5.99607 v -5.99607 h 11.99214 v 5.99607 h 5.99603 v -5.99607 h 11.99211 v 5.99607 h -5.99606 v 5.99604 h 5.99606 v 5.99605 h -11.99211 v -5.99605 h -5.99603 v 11.99212 h 5.99603 v 5.99603 h -5.99603 v 11.99211 h 5.99603 v -5.99604 h 5.99605 v 5.99604 h 5.99606 v -11.99211 h -5.99606 v -5.99603 h 17.98817 v 5.99603 h -5.99606 v 11.99211 h 5.99606 v -5.99604 h 5.99605 v 5.99604 h 5.99603 v -11.99211 h -5.99603 v -5.99603 h 5.99603 v -11.99212 h -5.99603 v 5.99605 h -11.99211 v -5.99605 h 5.99606 v -5.99604 h -5.99606 v -5.99607 h 11.99211 v 5.99607 h 5.99603 v -11.99212 h -5.99603 v -5.99602 h 5.99603 v -11.99214 h -5.99603 v 5.99607 h -5.99605 v -5.99607 h -5.99606 v 11.99214 h 5.99606 v 5.99602 h -11.99211 v -5.99602 h -5.99606 v 5.99602 h -11.99208 v -5.99602 h 5.99603 v -5.99607 h -5.99603 v -5.99607 h 11.99208 v 5.99607 h 5.99606 v -17.98817 h -5.99606 v 5.99607 h -11.99208 v -5.99607 h 5.99603 v -5.99604 h -5.99603 v -5.99605 h 11.99208 v 5.99605 h 5.99606 v -5.99605 h 11.99211 v 5.99605 h -5.99606 v 11.99211 h 5.99606 v -5.99607 h 5.99605 v 5.99607 h 5.99603 v -11.99211 h -5.99603 v -5.99605 h 5.99603 v -11.99212 h -5.99603 v 5.99607 h -11.99211 v -5.99607 h 5.99606 v -5.99602 h -5.99606 v -5.99607 h 11.99211 v 5.99607 h 5.99603 v -11.99214 h -5.99603 v -5.996028 h 5.99603 V 84.124366 h -5.99603 v 5.996065 h -5.99605 v -5.996065 h -5.99606 v 11.992125 h 5.99606 v 5.996029 h -17.98817 v -5.996029 h 5.99606 V 84.124366 h -5.99606 v 5.996065 h -5.99605 v -5.996065 h -5.99603 v 11.992125 h 5.99603 v 5.996029 h -5.99603 v 11.99214 h 5.99603 v -5.99607 h 11.99211 v 5.99607 h -5.99606 v 5.99602 h 5.99606 v 5.99607 h -11.99211 v -5.99607 h -5.99603 v 5.99607 h -5.99607 v -5.99607 h -5.99607 v 5.99607 h -11.99209 v -5.99607 h 5.99607 v -5.99602 h -5.99607 v -5.99607 h 11.99209 v 5.99607 h 5.99607 v -11.99214 h -5.99607 v -5.996029 h 5.99607 V 84.124366 h -5.99607 v 5.996065 h -5.99602 v -5.996065 h -5.99607 v 11.992125 h 5.99607 v 5.996029 h -17.98817 v -5.996029 h 5.99604 V 84.124366 h -5.99604 v 5.996065 h -5.99605 v -5.996065 h -5.99606 v 11.992125 h 5.99606 v 5.996029 h -5.99606 v 11.99214 h 5.99606 v -5.99607 h 11.99209 v 5.99607 h -5.99604 v 5.99602 h 5.99604 v 5.99607 H 187.5988 v -5.99607 h -5.99606 v 11.99212 h 5.99606 v 5.99605 h -5.99606 v 11.99211 h 5.99606 v -5.99607 h 5.99605 v 5.99607 h 5.99604 v -11.99211 h -5.99604 v -5.99605 h 11.9921 v 5.99605 h 5.99607 v -5.99605 h 11.99209 v 5.99605 h -5.99607 v 5.99604 h 5.99607 v 5.99607 h -11.99209 v -5.99607 h -5.99607 v 17.98817 h 5.99607 v -5.99607 h 11.99209 v 5.99607 h -5.99607 v 5.99607 h 5.99607 v 5.99602 h -11.99209 v -5.99602 h -5.99607 v 5.99602 h -11.9921 v -5.99602 h 5.99604 v -11.99214 h -5.99604 v 5.99607 h -5.99605 v -5.99607 h -5.99606 v 11.99214 h 5.99606 v 5.99602 h -17.98816 v -5.99602 h 5.99608 v -11.99214 h -5.99608 v 5.99607 h -5.99607 v -5.99607 h -5.99602 v 11.99214 h 5.99602 v 5.99602 H 151.6225 v -5.99602 h -5.99607 v 5.99602 h -11.99209 v -5.99602 h 5.99607 v -5.99607 h -5.99607 v -5.99607 h 11.99209 v 5.99607 h 5.99607 v -17.98817 h -5.99607 v 5.99607 h -11.99209 v -5.99607 h 5.99607 v -5.99604 h -5.99607 v -5.99605 h 11.99209 v 5.99605 h 5.99607 v -5.99605 h 11.99207 v 5.99605 h -5.99602 v 11.99211 h 5.99602 v -5.99607 h 5.99607 v 5.99607 h 5.99608 v -11.99211 h -5.99608 v -5.99605 h 5.99608 v -11.99212 h -5.99608 v 5.99607 h -11.99209 v -5.99607 h 5.99602 v -5.99602 h -5.99602 v -5.99607 h 11.99209 v 5.99607 h 5.99608 v -11.99214 h -5.99608 v -5.996029 h 5.99608 V 84.124366 h -5.99608 v 5.996065 h -5.99607 v -5.996065 h -5.99602 v 11.992125 h 5.99602 v 5.996029 h -17.98814 v -5.996029 h 5.99607 V 84.124366 h -5.99607 v 5.996065 h -5.99602 v -5.996065 h -5.99607 v 11.992125 h 5.99607 v 5.996029 h -5.99607 v 11.99214 h 5.99607 v -5.99607 h 11.99209 v 5.99607 h -5.99607 v 5.99602 h 5.99607 v 5.99607 h -11.99209 v -5.99607 h -5.99607 v 5.99607 h -5.99606 v -5.99607 h -5.99605 v 5.99607 h -11.99212 v -5.99607 h 5.99605 v -5.99602 h -5.99605 v -5.99607 h 11.99212 v 5.99607 h 5.99605 v -11.99214 h -5.99605 v -5.996029 h 5.99605 V 84.124366 h -5.99605 v 5.996065 h -5.99607 v -5.996065 h -5.99605 v 11.992125 h 5.99605 v 5.996029 H 97.658012 v -5.996029 h 5.996068 V 84.124366 h -5.996068 v 5.996065 h -5.996056 v -5.996065 h -5.996037 v 11.992125 h 5.996037 v 5.996029 h -5.996037 v 11.99214 h 5.996037 v -5.99607 h 11.992124 v 5.99607 h -5.996068 v 5.99602 h 5.996068 v 5.99607 H 91.661956 v -5.99607 h -5.996037 v 11.99212 h 5.996037 v 5.99605 h -5.996037 v 11.99211 h 5.996037 v -5.99607 h 5.996056 v 5.99607 h 5.996068 v -11.99211 h -5.996068 v -5.99605 h 11.992098 v 5.99605 h 5.99605 v -5.99605 h 11.99212 v 5.99605 h -5.99605 v 5.99604 h 5.99605 v 5.99607 h -11.99212 v -5.99607 h -5.99605 v 17.98817 h 5.99605 v -5.99607 h 11.99212 v 5.99607 h -5.99605 v 5.99607 h 5.99605 v 5.99602 h -11.99212 v -5.99602 h -5.99605 v 5.99602 H 97.658012 v -5.99602 h 5.996068 v -11.99214 h -5.996068 v 5.99607 h -5.996056 v -5.99607 h -5.996037 v 11.99214 h 5.996037 v 5.99602 h -5.996037 v 11.99212 h 5.996037 v -5.99607 h 11.992124 v 5.99607 h -5.996068 v 5.99604 h 5.996068 v 5.99605 H 91.661956 v -5.99605 h -5.996037 v 11.99212 h 5.996037 v 5.99603 h -5.996037 v 11.99211 h 5.996037 v -5.99604 h 5.996056 v 5.99604 h 5.996068 v -11.99211 h -5.996068 v -5.99603 h 17.988148 v 5.99603 h -5.99605 v 11.99211 h 5.99605 v -5.99604 h 5.99607 v 5.99604 h 5.99605 v -11.99211 h -5.99605 v -5.99603 h 5.99605 v -11.99212 h -5.99605 v 5.99605 h -11.99212 v -5.99605 h 5.99605 v -5.99604 h -5.99605 v -5.99607 h 11.99212 v 5.99607 h 5.99605 v -5.99607 h 11.99213 v 5.99607 h -5.99607 v 11.99209 h 5.99607 v -5.99605 h 5.99602 v 5.99605 h 5.99607 v -11.99209 h -5.99607 v -5.99607 h 11.99212 v 5.99607 h 5.99602 v -5.99607 h 11.99215 v 5.99607 h -5.99608 v 5.99604 h 5.99608 v 5.99605 h -11.99215 v -5.99605 h -5.99602 v 17.98815 h 5.99602 v -5.99603 h 11.99215 v 5.99603 h -5.99608 v 5.99607 h 5.99608 v 5.99604 h -11.99215 v -5.99604 h -5.99602 v 5.99604 h -11.99212 v -5.99604 h 5.99607 v -11.9921 h -5.99607 v 5.99603 h -5.99602 v -5.99603 h -5.99607 v 11.9921 h 5.99607 v 5.99604 h -5.99607 v 5.99605 h 5.99607 v 5.99606 h -5.99607 v 11.9921 h 5.99607 v -5.99604 h 5.99602 v 5.99604 h 5.99607 v -11.9921 h -5.99607 v -5.99606 h 11.99212 v 5.99606 h 5.99602 v -5.99606 h 11.99215 v 5.99606 h -5.99608 v 5.99606 h 5.99608 v 5.99604 h -11.99215 v -5.99604 h -5.99602 v 17.98816 h 5.99602 v -5.99607 h 11.99215 v 5.99607 h -5.99608 v 5.99603 h 5.99608 v 5.99606 h -11.99215 v -5.99606 h -5.99602 v 5.99606 h -11.99212 v -5.99606 h 5.99607 v -11.9921 h -5.99607 v 5.99607 h -5.99602 v -5.99607 h -5.99607 v 11.9921 h 5.99607 v 5.99606 h -11.99213 v -5.99606 h -5.99605 v 5.99606 h -11.99212 v -5.99606 h 5.99605 v -5.99603 h -5.99605 v -5.99607 h 11.99212 v 5.99607 h 5.99605 v -11.99212 h -5.99605 v -5.99604 h 5.99605 v -11.99212 h -5.99605 v 5.99606 h -5.99607 v -5.99606 h -5.99605 v 11.99212 h 5.99605 v 5.99604 H 97.658012 v -5.99604 h 5.996068 v -11.99212 h -5.996068 v 5.99606 h -5.996056 v -5.99606 h -5.996037 v 11.99212 h 5.996037 v 5.99604 h -5.996037 v 11.99212 h 5.996037 v -5.99607 h 11.992124 v 5.99607 h -5.996068 v 5.99603 h 5.996068 v 5.99606 H 91.661956 v -5.99606 h -5.996037 v 11.99211 h 5.996037 v 5.99604 h -5.996037 v 11.99212 h 5.996037 v -5.99605 h 5.996056 v 5.99605 h 5.996068 v -11.99212 h -5.996068 v -5.99604 h 11.992098 v 5.99604 h 5.99605 v -5.99604 h 11.99212 v 5.99604 h -5.99605 v 5.99607 h 5.99605 v 5.99605 h -11.99212 v -5.99605 h -5.99605 v 17.98815 h 5.99605 v -5.99606 h 11.99212 v 5.99606 h -5.99605 v 5.99606 h 5.99605 v 5.99603 h -11.99212 v -5.99603 h -5.99605 v 5.99603 H 97.658012 v -5.99603 h 5.996068 v -11.99212 h -5.996068 v 5.99606 h -5.996056 v -5.99606 h -5.996037 v 11.99212 h 5.996037 v 5.99603 h -5.996037 v 11.99212 h 5.996037 v -5.99604 h 11.992124 v 5.99604 h -5.996068 v 5.99604 h 5.996068 v 5.99607 H 91.661956 v -5.99607 h -5.996037 v 11.99213 h 5.996037 v 5.99603 h -5.996037 v 11.99212 h 5.996037 v -5.99607 h 5.996056 v 5.99607 h 5.996068 v -11.99212 h -5.996068 v -5.99603 h 17.988148 v 5.99603 h -5.99605 v 11.99212 h 5.99605 v -5.99607 h 5.99607 v 5.99607 h 5.99605 v -11.99212 h -5.99605 v -5.99603 h 5.99605 v -11.99213 h -5.99605 v 5.99607 h -11.99212 v -5.99607 h 5.99605 v -5.99604 h -5.99605 v -5.99604 h 11.99212 v 5.99604 h 5.99605 v -5.99604 h 5.99606 v 5.99604 h 5.99607 v -5.99604 h 11.99209 v 5.99604 h -5.99607 v 5.99604 h 5.99607 v 5.99607 h -11.99209 v -5.99607 h -5.99607 v 11.99213 h 5.99607 v 5.99603 h -5.99607 v 11.99212 h 5.99607 v -5.99607 h 5.99602 v 5.99607 h 5.99607 v -11.99212 h -5.99607 v -5.99603 h 17.98814 v 5.99603 h -5.99602 v 11.99212 h 5.99602 v -5.99607 h 5.99607 v 5.99607 h 5.99608 v -11.99212 h -5.99608 v -5.99603 h 5.99608 v -11.99213 h -5.99608 v 5.99607 h -11.99209 v -5.99607 h 5.99602 v -5.99604 h -5.99602 v -5.99604 h 11.99209 v 5.99604 h 5.99608 v -11.99212 h -5.99608 v -5.99603 h 5.99608 v -11.99212 h -5.99608 v 5.99606 h -5.99607 v -5.99606 h -5.99602 v 11.99212 h 5.99602 v 5.99603 H 151.6225 v -5.99603 h -5.99607 v 5.99603 h -11.99209 v -5.99603 h 5.99607 v -5.99606 h -5.99607 v -5.99606 h 11.99209 v 5.99606 h 5.99607 v -17.98815 h -5.99607 v 5.99605 h -11.99209 v -5.99605 h 5.99607 v -5.99607 h -5.99607 v -5.99604 h 11.99209 v 5.99604 h 5.99607 v -5.99604 h 11.99207 v 5.99604 h -5.99602 v 11.99212 h 5.99602 v -5.99605 h 5.99607 v 5.99605 h 5.99608 v -11.99212 h -5.99608 v -5.99604 h 11.9921 v 5.99604 h 5.99606 v -5.99604 h 11.99209 v 5.99604 h -5.99604 v 5.99607 h 5.99604 v 5.99605 H 187.5988 v -5.99605 h -5.99606 v 11.99209 h 5.99606 v 5.99606 h -5.99606 v 11.99209 h 5.99606 v -5.99603 h 5.99605 v 5.99603 h 5.99604 V 305.9783 h -5.99604 v -5.99606 h 17.98817 v 5.99606 h -5.99607 v 11.99209 h 5.99607 v -5.99603 h 5.99602 v 5.99603 h 5.99607 V 305.9783 h -5.99607 v -5.99606 h 5.99607 v -11.99209 h -5.99607 v 5.99605 h -11.99209 v -5.99605 h 5.99607 v -5.99607 h -5.99607 v -5.99604 h 11.99209 v 5.99604 h 5.99607 v -5.99604 h 11.9921 v 5.99604 h -5.99603 v 11.99212 h 5.99603 v -5.99605 h 5.99605 v 5.99605 h 5.99606 v -11.99212 h -5.99606 v -5.99604 h 11.99211 v 5.99604 h 5.99606 v -5.99604 h 11.99208 v 5.99604 h -5.99603 v 5.99607 h 5.99603 v 5.99605 h -11.99208 v -5.99605 h -5.99606 v 17.98815 h 5.99606 v -5.99606 h 11.99208 v 5.99606 h -5.99603 v 5.99606 h 5.99603 v 5.99603 h -11.99208 v -5.99603 h -5.99606 v 5.99603 h -11.99211 v -5.99603 h 5.99606 v -11.99212 h -5.99606 v 5.99606 h -5.99605 v -5.99606 h -5.99603 v 11.99212 h 5.99603 v 5.99603 h -5.99603 v 5.99608 h 5.99603 v 5.99604 h -5.99603 v 11.99211 h 5.99603 v -5.99607 h 5.99605 v 5.99607 h 5.99606 v -11.99211 h -5.99606 v -5.99604 h 11.99211 v 5.99604 h 5.99606 v -5.99604 h 11.99208 v 5.99604 h -5.99603 v 5.99604 h 5.99603 v 5.99607 h -11.99208 v -5.99607 h -5.99606 v 17.98816 h 5.99606 v -5.99603 h 11.99208 v 5.99603 h -5.99603 v 5.99605 h 5.99603 v 5.99607 h -11.99208 v -5.99607 h -5.99606 v 5.99607 h -11.99211 v -5.99607 h 5.99606 v -11.99208 h -5.99606 v 5.99603 h -5.99605 v -5.99603 h -5.99603 v 11.99208 h 5.99603 v 5.99607 h -11.9921 v -5.99607 h -5.99607 v 5.99607 h -11.99209 v -5.99607 h 5.99607 v -5.99605 h -5.99607 v -5.99603 h 11.99209 v 5.99603 h 5.99607 v -11.99209 h -5.99607 v -5.99607 h 5.99607 v -11.99208 h -5.99607 v 5.99604 h -5.99602 v -5.99604 h -5.99607 v 11.99208 h 5.99607 v 5.99607 h -17.98817 v -5.99607 h 5.99604 v -11.99208 h -5.99604 v 5.99604 h -5.99605 v -5.99604 h -5.99606 v 11.99208 h 5.99606 v 5.99607 h -5.99606 v 11.99209 h 5.99606 v -5.99603 h 11.99209 v 5.99603 h -5.99604 v 5.99605 h 5.99604 v 5.99607 H 187.5988 v -5.99607 h -5.99606 v 17.98816 h 5.99606 v -5.99606 h 11.99209 v 5.99606 h -5.99604 v 5.99605 h 5.99604 v 5.99605 H 187.5988 v -5.99605 h -5.99606 v 11.99212 h 5.99606 v 5.99605 h -5.99606 v 11.9921 h 5.99606 v -5.99608 h 5.99605 v 5.99608 h 5.99604 v -11.9921 h -5.99604 v -5.99605 h 17.98817 v 5.99605 h -5.99607 v 11.9921 h 5.99607 v -5.99608 h 5.99602 v 5.99608 h 5.99607 v -11.9921 h -5.99607 v -5.99605 h 5.99607 v -11.99212 h -5.99607 v 5.99605 h -11.99209 v -5.99605 h 5.99607 v -5.99605 h -5.99607 v -5.99606 h 11.99209 v 5.99606 h 5.99607 v -5.99606 h 11.9921 v 5.99606 h -5.99603 v 11.9921 h 5.99603 v -5.99605 h 5.99605 v 5.99605 h 5.99606 v -11.9921 h -5.99606 v -5.99606 h 11.99211 v 5.99606 h 5.99606 v -5.99606 h 11.99208 v 5.99606 h -5.99603 v 5.99605 h 5.99603 v 5.99605 h -11.99208 v -5.99605 h -5.99606 v 17.98817 h 5.99606 v -5.99605 h 11.99208 v 5.99605 h -5.99603 v 5.99602 h 5.99603 v 5.99608 h -11.99208 v -5.99608 h -5.99606 v 5.99608 h -11.99211 v -5.99608 h 5.99606 v -11.99207 h -5.99606 v 5.99605 h -5.99605 v -5.99605 h -5.99603 v 11.99207 h 5.99603 v 5.99608 h -5.99603 v 5.99606 h 5.99603 v 5.99603 h -5.99603 v 11.99212 h 5.99603 v -5.99607 h 5.99605 v 5.99607 h 5.99606 v -11.99212 h -5.99606 v -5.99603 h 11.99211 v 5.99603 h 5.99606 v -5.99603 h 11.99208 v 5.99603 h -5.99603 v 5.99605 h 5.99603 v 5.99607 h -11.99208 v -5.99607 h -5.99606 v 17.98816 h 5.99606 v -5.99605 h 11.99208 v 5.99605 h -5.99603 v 5.99606 h 5.99603 v 5.99603 h -11.99208 v -5.99603 h -5.99606 v 5.99603 h -11.99211 v -5.99603 h 5.99606 v -11.99211 h -5.99606 v 5.99605 h -5.99605 v -5.99605 h -5.99603 v 11.99211 h 5.99603 v 5.99603 h -11.9921 v -5.99603 h -5.99607 v 5.99603 h -11.99209 v -5.99603 h 5.99607 v -5.99606 h -5.99607 v -5.99605 h 11.99209 v 5.99605 h 5.99607 v -11.99209 h -5.99607 v -5.99607 h 5.99607 V 419.9033 h -5.99607 v 5.99603 h -5.99602 v -5.99603 h -5.99607 v 11.99208 h 5.99607 v 5.99607 h -17.98817 v -5.99607 h 5.99604 V 419.9033 h -5.99604 v 5.99603 h -5.99605 v -5.99603 h -5.99606 v 11.99208 h 5.99606 v 5.99607 h -5.99606 v 11.99209 h 5.99606 v -5.99605 h 11.99209 v 5.99605 h -5.99604 v 5.99606 h 5.99604 v 5.99603 H 187.5988 v -5.99603 h -5.99606 v 5.99603 h -11.9921 v -5.99603 h 5.99608 v -11.99211 h -5.99608 v 5.99605 h -5.99607 v -5.99605 h -5.99602 v 11.99211 h 5.99602 v 5.99603 H 151.6225 v -5.99603 h -5.99607 v 5.99603 h -11.99209 v -5.99603 h 5.99607 v -5.99606 h -5.99607 v -5.99605 h 11.99209 v 5.99605 h 5.99607 v -17.98816 h -5.99607 v 5.99607 h -11.99209 v -5.99607 h 5.99607 v -5.99605 h -5.99607 v -5.99603 h 11.99209 v 5.99603 h 5.99607 v -5.99603 h 11.99207 v 5.99603 h -5.99602 v 11.99212 h 5.99602 v -5.99607 h 5.99607 v 5.99607 h 5.99608 v -11.99212 h -5.99608 v -5.99603 h 5.99608 v -11.99214 h -5.99608 v 5.99608 h -11.99209 v -5.99608 h 5.99602 v -5.99602 h -5.99602 v -5.99605 h 11.99209 v 5.99605 h 5.99608 v -11.99212 h -5.99608 v -5.99605 h 5.99608 v -11.99211 h -5.99608 v 5.99606 h -5.99607 v -5.99606 h -5.99602 v 11.99211 h 5.99602 v 5.99605 h -17.98814 v -5.99605 h 5.99607 v -11.99211 h -5.99607 v 5.99606 h -5.99602 v -5.99606 h -5.99607 v 11.99211 h 5.99607 v 5.99605 h -5.99607 v 11.99212 h 5.99607 v -5.99605 h 11.99209 v 5.99605 h -5.99607 v 5.99602 h 5.99607 v 5.99608 h -11.99209 v -5.99608 h -5.99607 v 5.99608 h -5.99606 v -5.99608 h -5.99605 v 5.99608 h -11.99212 v -5.99608 h 5.99605 v -5.99602 h -5.99605 v -5.99605 h 11.99212 v 5.99605 h 5.99605 v -11.99212 h -5.99605 v -5.99605 h 5.99605 v -11.99211 h -5.99605 v 5.99606 h -5.99607 v -5.99606 h -5.99605 v 11.99211 h 5.99605 v 5.99605 H 97.658012 v -5.99605 h 5.996068 v -11.99211 h -5.996068 v 5.99606 h -5.996056 v -5.99606 h -5.996037 v 11.99211 h 5.996037 v 5.99605 h -5.996037 v 11.99212 h 5.996037 v -5.99605 h 11.992124 v 5.99605 h -5.996068 v 5.99602 h 5.996068 v 5.99608 H 91.661956 v -5.99608 h -5.996037 v 11.99214 h 5.996037 v 5.99603 h -5.996037 v 11.99212 h 5.996037 v -5.99607 h 5.996056 v 5.99607 h 5.996068 v -11.99212 h -5.996068 v -5.99603 h 11.992098 v 5.99603 h 5.99605 v -5.99603 h 11.99212 v 5.99603 h -5.99605 v 5.99605 h 5.99605 v 5.99607 h -11.99212 v -5.99607 h -5.99605 v 17.98816 h 5.99605 v -5.99605 h 11.99212 v 5.99605 h -5.99605 v 5.99606 h 5.99605 v 5.99603 h -11.99212 v -5.99603 h -5.99605 v 5.99603 H 97.658012 v -5.99603 h 5.996068 v -11.99211 h -5.996068 v 5.99605 h -5.996056 v -5.99605 h -5.996037 v 11.99211 h 5.996037 v 5.99603 h -5.996037"
       style="display:inline;fill:none;stroke:#000000;stroke-width:2.24873;stroke-linecap:round;stroke-miterlimit:4;stroke-dasharray:none;stroke-opacity:1" />
  </g>
</svg>
